<svg id="Grupo_839" data-name="Grupo 839" xmlns="http://www.w3.org/2000/svg" xmlns:xlink="http://www.w3.org/1999/xlink" width="21.165" height="21.164" viewBox="0 0 21.165 21.164">
  <defs>
    <linearGradient id="linear-gradient" x1="0.5" x2="0.5" y2="1" gradientUnits="objectBoundingBox">
      <stop offset="0" stop-color="#00dbae"/>
      <stop offset="1" stop-color="#009be8"/>
    </linearGradient>
  </defs>
  <path id="Trazado_172" data-name="Trazado 172" d="M11.374,64.134a.459.459,0,0,0-.649.649l1.008,1.008L2.576,74.952a.99.99,0,0,0-.17,1.109,1.5,1.5,0,0,1,.051.184l.635,2.425L.141,81.62a.454.454,0,0,0-.009.649.458.458,0,0,0,.649.009l.009-.009,2.936-2.931,2.457.635c.069.014.138.037.2.051a1.624,1.624,0,0,0,.469.083.835.835,0,0,0,.612-.258l9.157-9.162,1,1a.459.459,0,0,0,.649-.649ZM6.846,79.186c-.018,0-.138-.028-.212-.051a2.2,2.2,0,0,0-.235-.06l-2.338-.6a.4.4,0,0,0-.046-.074.191.191,0,0,0-.051-.032L3.344,76.02c-.018-.078-.041-.147-.06-.212-.023-.083-.055-.193-.06-.2l.874-.879,1.565,1.565a.459.459,0,0,0,.649-.649L4.747,74.078,6,72.822a.467.467,0,0,0,.12.249l.92.92a.459.459,0,0,0,.649-.649l-.92-.92a.451.451,0,0,0-.248-.12l1.316-1.316a.467.467,0,0,0,.12.248l1.381,1.381a.459.459,0,0,0,.649-.649L8.6,70.585a.467.467,0,0,0-.248-.12L9.377,69.44l.874.874a.459.459,0,0,0,.649-.649l-.874-.874.962-.962,1.1,1.1a.459.459,0,0,0,.649-.649l-1.1-1.1.732-.732,3.589,3.589Z" transform="translate(0 -61.244)" fill="url(#linear-gradient)"/>
  <path id="Trazado_173" data-name="Trazado 173" d="M337.438,4.736l-4.6-4.6a.462.462,0,0,0-.649.009.464.464,0,0,0,0,.64l1.054,1.058-2.434,2.434a.459.459,0,1,0,.64.658l.009-.009L333.89,2.49l1.192,1.192-2.434,2.434a.459.459,0,0,0,.64.658l.009-.009,2.434-2.434,1.054,1.054a.461.461,0,0,0,.653-.649Z" transform="translate(-316.401 -0.005)" fill="url(#linear-gradient)"/>
</svg>
