<svg xmlns="http://www.w3.org/2000/svg" width="20.58" height="20.58" viewBox="0 0 20.58 20.58">
  <path id="Icon_awesome-user-alt" data-name="Icon awesome-user-alt" d="M9.79,11.014A5.507,5.507,0,1,0,4.283,5.507,5.508,5.508,0,0,0,9.79,11.014Zm4.895,1.224H12.578a6.657,6.657,0,0,1-5.576,0H4.895A4.895,4.895,0,0,0,0,17.132v.612A1.836,1.836,0,0,0,1.836,19.58H17.744a1.836,1.836,0,0,0,1.836-1.836v-.612A4.895,4.895,0,0,0,14.685,12.237Z" transform="translate(0.5 0.5)" fill="none" stroke="#009be8" stroke-width="1"/>
</svg>
