<svg xmlns="http://www.w3.org/2000/svg" width="21.557" height="10.655" viewBox="0 0 21.557 10.655">
    <g id="Grupo_1155" data-name="Grupo 1155" transform="translate(-851.097 -465.345)">
        <g id="box" transform="translate(862 465.345)">
            <path id="Trazado_175" data-name="Trazado 175" d="M10.653,2.628a.333.333,0,0,0-.19-.266L5.468.031a.333.333,0,0,0-.282,0L.192,2.362A.333.333,0,0,0,0,2.628s0,.034,0,.036v5.66a.333.333,0,0,0,.209.309l4.994,2a.333.333,0,0,0,.247,0l4.994-2a.333.333,0,0,0,.209-.309V2.664S10.653,2.63,10.653,2.628ZM5.327.7,9.484,2.64l-1.6.64-4.235-1.8ZM2.837,1.863,7.006,3.632,5.327,4.3,1.171,2.64ZM.666,3.156,4.994,4.887V9.83L.666,8.1ZM5.66,9.83V4.887L9.989,3.156V8.1Z" transform="translate(0 0)" fill="#009be8"/>
        </g>
        <path id="Trazado_3289" data-name="Trazado 3289" d="M202.686,281.893c-.865,0-1.73,0-2.594,0a.545.545,0,0,1-.568-.452.534.534,0,0,1,.327-.594.734.734,0,0,1,.264-.044q2.507,0,5.013.005a1.293,1.293,0,0,1,.345.021.53.53,0,0,1,.379.615.543.543,0,0,1-.552.448c-.7,0-1.394,0-2.091,0Z" transform="translate(651.584 189.414)" fill="#009be8"/>
        <path id="Trazado_3290" data-name="Trazado 3290" d="M212.5,303.443h-1.973a.549.549,0,0,1-.606-.535.542.542,0,0,1,.6-.556q1.992,0,3.984,0a.548.548,0,1,1,0,1.09C213.841,303.444,213.171,303.443,212.5,303.443Z" transform="translate(642.582 171.343)" fill="#009be8"/>
        <path id="Trazado_3291" data-name="Trazado 3291" d="M212.531,259.236h1.934c.394,0,.634.2.64.54a.558.558,0,0,1-.631.551h-3.944a.548.548,0,1,1-.009-1.09C211.19,259.234,211.86,259.236,212.531,259.236Z" transform="translate(642.585 207.501)" fill="#009be8"/>
    </g>
</svg>
