<svg id="box" xmlns="http://www.w3.org/2000/svg" width="10.655" height="10.655" viewBox="0 0 10.655 10.655">
    <path id="Trazado_175" data-name="Trazado 175" d="M10.653,2.628a.333.333,0,0,0-.19-.266L5.468.031a.333.333,0,0,0-.282,0L.192,2.362A.333.333,0,0,0,0,2.628s0,.034,0,.036v5.66a.333.333,0,0,0,.209.309l4.994,2a.333.333,0,0,0,.247,0l4.994-2a.333.333,0,0,0,.209-.309V2.664S10.653,2.63,10.653,2.628ZM5.327.7,9.484,2.64l-1.6.64-4.235-1.8ZM2.837,1.863,7.006,3.632,5.327,4.3,1.171,2.64ZM.666,3.156,4.994,4.887V9.83L.666,8.1ZM5.66,9.83V4.887L9.989,3.156V8.1Z" transform="translate(0 0)" fill="#db0000"/>
</svg>
