<svg id="box" xmlns="http://www.w3.org/2000/svg" width="13.345" height="13.345" viewBox="0 0 13.345 13.345">
  <path id="Trazado_175" data-name="Trazado 175" d="M13.342,3.291a.417.417,0,0,0-.238-.333L6.849.039a.417.417,0,0,0-.353,0L.241,2.959A.417.417,0,0,0,0,3.291s0,.043,0,.045v7.09a.417.417,0,0,0,.262.387l6.256,2.5a.417.417,0,0,0,.31,0l6.256-2.5a.417.417,0,0,0,.262-.387V3.337S13.343,3.294,13.342,3.291ZM6.673.877l5.206,2.43-2,.8-5.3-2.25ZM3.553,2.333,8.775,4.549l-2.1.841L1.466,3.307ZM.834,3.952,6.255,6.121v6.191L.834,10.144Zm6.256,8.36V6.121l5.421-2.169v6.191Z" transform="translate(0 0)" fill="#fff"/>
</svg>
