<svg id="box" xmlns="http://www.w3.org/2000/svg" width="26.99" height="26.99" viewBox="0 0 26.99 26.99">
  <path id="Trazado_175" data-name="Trazado 175" d="M26.985,6.657a.843.843,0,0,0-.482-.673L13.852.079a.844.844,0,0,0-.713,0L.487,5.983a.843.843,0,0,0-.482.673C0,6.663,0,6.743,0,6.748V21.086a.843.843,0,0,0,.53.783L13.182,26.93a.843.843,0,0,0,.626,0L26.46,21.869a.843.843,0,0,0,.53-.783V6.748S26.986,6.663,26.985,6.657ZM13.5,1.774l10.53,4.914L19.97,8.31,9.242,3.759ZM7.186,4.719,17.747,9.2,13.5,10.9,2.966,6.688Zm-5.5,3.275,10.965,4.386V24.9L1.687,20.515ZM14.339,24.9V12.379L25.3,7.994V20.515Z" transform="translate(0 0)" fill="#009be8"/>
</svg>
