<svg xmlns="http://www.w3.org/2000/svg" width="21.572" height="25.098" viewBox="0 0 21.572 25.098">
  <path id="Icon_awesome-shopping-bag" data-name="Icon awesome-shopping-bag" d="M16.163,7.531V6.025A5.959,5.959,0,0,0,10.286,0,5.959,5.959,0,0,0,4.408,6.025V7.531H0v12.8A3.72,3.72,0,0,0,3.673,24.1H16.9a3.72,3.72,0,0,0,3.673-3.765V7.531ZM7.347,6.025a2.94,2.94,0,1,1,5.878,0V7.531H7.347Zm7.347,5.648a1.13,1.13,0,1,1,1.1-1.13A1.116,1.116,0,0,1,14.694,11.673Zm-8.816,0a1.13,1.13,0,1,1,1.1-1.13A1.116,1.116,0,0,1,5.878,11.673Z" transform="translate(0.5 0.5)" fill="none" stroke="#009be8" stroke-width="1"/>
</svg>
