<svg id="_546391" data-name="546391" xmlns="http://www.w3.org/2000/svg" width="46.138" height="54.707" viewBox="0 0 46.138 54.707">
  <g id="Grupo_928" data-name="Grupo 928" transform="translate(0)">
    <g id="Grupo_927" data-name="Grupo 927" transform="translate(0)">
      <path id="Trazado_3163" data-name="Trazado 3163" d="M83.6,7.25H78.985V2.637A2.644,2.644,0,0,0,76.349,0H42.733A2.644,2.644,0,0,0,40.1,2.637V44.82a2.644,2.644,0,0,0,2.637,2.637h4.614V52.07a2.644,2.644,0,0,0,2.637,2.637H72.393A7.693,7.693,0,0,0,76.949,52.9l7.365-6.933a7,7,0,0,0,1.92-4.443V9.887A2.644,2.644,0,0,0,83.6,7.25ZM47.347,9.887V45.479H42.733a.668.668,0,0,1-.659-.659V2.637a.668.668,0,0,1,.659-.659H76.349a.668.668,0,0,1,.659.659V7.25H49.984A2.644,2.644,0,0,0,47.347,9.887ZM82.959,44.528,75.594,51.46a3.5,3.5,0,0,1-.564.413V45.809a1.653,1.653,0,0,1,1.648-1.648h6.595A2.767,2.767,0,0,1,82.959,44.528Zm1.3-3a3.074,3.074,0,0,1-.09.659h-7.49a3.633,3.633,0,0,0-3.625,3.625v6.841a3.447,3.447,0,0,1-.659.08H49.984a.667.667,0,0,1-.659-.659V9.887a.668.668,0,0,1,.659-.659H83.6a.668.668,0,0,1,.659.659Z" transform="translate(-40.097)" fill="#009be8"/>
    </g>
  </g>
  <g id="Grupo_930" data-name="Grupo 930" transform="translate(16.149 16.478)">
    <g id="Grupo_929" data-name="Grupo 929">
      <path id="Trazado_3164" data-name="Trazado 3164" d="M211.338,154.216H192.224a.989.989,0,1,0,0,1.977h19.114a.989.989,0,1,0,0-1.977Z" transform="translate(-191.235 -154.216)" fill="#009be8"/>
    </g>
  </g>
  <g id="Grupo_932" data-name="Grupo 932" transform="translate(16.149 29.66)">
    <g id="Grupo_931" data-name="Grupo 931">
      <path id="Trazado_3165" data-name="Trazado 3165" d="M211.338,277.59H192.224a.989.989,0,1,0,0,1.977h19.114a.989.989,0,1,0,0-1.977Z" transform="translate(-191.235 -277.59)" fill="#009be8"/>
    </g>
  </g>
  <g id="Grupo_934" data-name="Grupo 934" transform="translate(16.149 36.251)">
    <g id="Grupo_933" data-name="Grupo 933">
      <path id="Trazado_3166" data-name="Trazado 3166" d="M202.77,339.277H192.225a.989.989,0,1,0,0,1.977H202.77a.989.989,0,0,0,0-1.977Z" transform="translate(-191.236 -339.277)" fill="#009be8"/>
    </g>
  </g>
  <g id="Grupo_936" data-name="Grupo 936" transform="translate(16.149 23.069)">
    <g id="Grupo_935" data-name="Grupo 935">
      <path id="Trazado_3167" data-name="Trazado 3167" d="M211.338,215.9H192.224a.989.989,0,1,0,0,1.977h19.114a.989.989,0,1,0,0-1.977Z" transform="translate(-191.235 -215.903)" fill="#009be8"/>
    </g>
  </g>
</svg>
