<svg id="Grupo_838" data-name="Grupo 838" xmlns="http://www.w3.org/2000/svg" xmlns:xlink="http://www.w3.org/1999/xlink" width="21.448" height="20.107" viewBox="0 0 21.448 20.107">
  <defs>
    <linearGradient id="linear-gradient" x1="0.5" x2="0.5" y2="1" gradientUnits="objectBoundingBox">
      <stop offset="0" stop-color="#00dbae"/>
      <stop offset="1" stop-color="#009be8"/>
    </linearGradient>
  </defs>
  <path id="Trazado_159" data-name="Trazado 159" d="M80.662,186.054h-.5L78.8,178.408A2.931,2.931,0,0,0,75.912,176H72.006a2.931,2.931,0,0,0-2.885,2.409l-1.364,7.644h-.5A1.258,1.258,0,0,0,66,187.31v1.676a.419.419,0,0,0,.419.419H81.5a.419.419,0,0,0,.419-.419V187.31A1.258,1.258,0,0,0,80.662,186.054Zm-10.716-7.5a2.093,2.093,0,0,1,2.061-1.72h3.906a2.094,2.094,0,0,1,2.061,1.719l1.337,7.5h-10.7ZM81.08,188.567H66.838V187.31a.419.419,0,0,1,.419-.419h13.4a.419.419,0,0,1,.419.419Z" transform="translate(-63.235 -169.298)" fill="url(#linear-gradient)"/>
  <path id="Trazado_161" data-name="Trazado 161" d="M410.021,256h-3.6a.419.419,0,0,0,0,.838h3.6a.419.419,0,0,0,0-.838Z" transform="translate(-388.993 -245.946)" fill="url(#linear-gradient)"/>
  <path id="Trazado_162" data-name="Trazado 162" d="M4.021,256H.419a.419.419,0,1,0,0,.838h3.6a.419.419,0,1,0,0-.838Z" transform="translate(0 -245.946)" fill="url(#linear-gradient)"/>
  <path id="Trazado_163" data-name="Trazado 163" d="M362.224,86.414a.419.419,0,0,0-.592,0l-2.37,2.37a.419.419,0,0,0,.592.592l2.37-2.37A.419.419,0,0,0,362.224,86.414Z" transform="translate(-344.095 -83.346)" fill="url(#linear-gradient)"/>
  <path id="Trazado_164" data-name="Trazado 164" d="M79.375,88.783l-2.37-2.37a.419.419,0,0,0-.592.592l2.37,2.37a.419.419,0,1,0,.592-.592Z" transform="translate(-73.095 -83.346)" fill="url(#linear-gradient)"/>
  <path id="Trazado_165" data-name="Trazado 165" d="M246.419,16a.419.419,0,0,0-.419.419V19.77a.419.419,0,1,0,.838,0V16.419A.419.419,0,0,0,246.419,16Z" transform="translate(-235.695 -16)" fill="url(#linear-gradient)"/>
</svg>
