<svg xmlns="http://www.w3.org/2000/svg" width="135.375" height="31.997" viewBox="0 0 135.375 31.997">
  <g id="Grupo_1012" data-name="Grupo 1012" transform="translate(-195.595 -124.451)">
    <g id="Grupo_1008" data-name="Grupo 1008" transform="translate(224.442 128.384)">
      <path id="Trazado_3189" data-name="Trazado 3189" d="M281.284,147.992q.436,4.576,4.756,4.575,1.851,0,6.209-.4l.4,3.122a30.813,30.813,0,0,1-6.717.653q-8.5,0-8.5-9.84,0-9.948,6.535-9.949h3.013q6.209,0,6.39,7.734-.218,4.1-3.231,4.1Zm8.133-4.466q0-3.957-2.832-3.994h-2.433q-2.469.036-2.905,5.083h7.189Q289.416,144.615,289.417,143.526Z" transform="translate(-277.435 -136.046)" fill="#fff"/>
      <path id="Trazado_3190" data-name="Trazado 3190" d="M346.048,135.839h3.958v19.789h-3.667l-.254-1.815a4.084,4.084,0,0,1-3.159,1.815h-2.433q-6.391,0-6.39-8.787v-11h3.958v11q0,5.41,2.433,5.41h2.4q1.27-.035,3.159-2.215Z" transform="translate(-314.533 -135.839)" fill="#fff"/>
      <path id="Trazado_3191" data-name="Trazado 3191" d="M405.148,139.361q-2.361-.109-4.212-.108a5.338,5.338,0,0,0-3.159,1.815v14.56H393.82V135.839h3.631l.291,1.526a4.313,4.313,0,0,1,3.159-1.526,21.5,21.5,0,0,1,4.248.472Z" transform="translate(-353.627 -135.839)" fill="#fff"/>
      <path id="Trazado_3192" data-name="Trazado 3192" d="M432.89,147.992q.436,4.576,4.757,4.575,1.851,0,6.208-.4l.4,3.122a30.809,30.809,0,0,1-6.717.653q-8.5,0-8.5-9.84,0-9.948,6.535-9.949h3.013q6.21,0,6.391,7.734-.218,4.1-3.231,4.1Zm8.133-4.466q0-3.957-2.832-3.994h-2.433q-2.469.036-2.9,5.083h7.189Q441.023,144.615,441.023,143.526Z" transform="translate(-376.685 -136.046)" fill="#fff"/>
      <path id="Trazado_3193" data-name="Trazado 3193" d="M491.842,144.437h1.67l6.354-8.388h5.047l-8.133,10.094,8.061,9.622H499.9l-6.39-7.734h-1.67v7.734h-4.03V136.05h4.03Z" transform="translate(-415.159 -135.976)" fill="#fff"/>
      <path id="Trazado_3194" data-name="Trazado 3194" d="M549.161,135.839q7.7.364,7.7,6.972v12.817H553.3l-.145-1.888a12.649,12.649,0,0,1-5.954,1.888q-5.665,0-5.664-6.246.109-5.954,5.265-6.209h6.1v-1.307a2.392,2.392,0,0,0-2.251-2.614q-1.2-.036-2.469-.037h-4.938v-2.941A40.784,40.784,0,0,1,549.161,135.839Zm3.739,10.712h-6.027q-1.2.291-1.379,3.05,0,2.906,1.706,2.905a12.37,12.37,0,0,0,5.7-2.178Z" transform="translate(-450.33 -135.839)" fill="#fff"/>
    </g>
    <g id="Grupo_1009" data-name="Grupo 1009" transform="translate(196.487 124.451)">
      <path id="Trazado_3195" data-name="Trazado 3195" d="M196.487,136.185l6.3,11.295a25.93,25.93,0,0,1,5.929-6.417A28.015,28.015,0,0,0,196.487,136.185Z" transform="translate(-196.487 -132.133)" fill="none" stroke="#fff" stroke-width="1"/>
      <path id="Trazado_3196" data-name="Trazado 3196" d="M244.138,136.185l-6.3,11.295a25.924,25.924,0,0,0-5.928-6.417A28.016,28.016,0,0,1,244.138,136.185Z" transform="translate(-219.674 -132.133)" fill="none" stroke="#fff" stroke-width="1"/>
      <path id="Trazado_3197" data-name="Trazado 3197" d="M214.739,156.727l5.929,9.9s5.363-8.893,5.928-9.9a23.738,23.738,0,0,0-5.928-6.417S216.015,153.574,214.739,156.727Z" transform="translate(-208.436 -141.38)" fill="none" stroke="#fff" stroke-width="1"/>
      <path id="Trazado_3198" data-name="Trazado 3198" d="M221.4,124.451h7.1l-3.477,6.5Z" transform="translate(-212.799 -124.451)" fill="#fff"/>
    </g>
    <g id="Grupo_1010" data-name="Grupo 1010" transform="translate(253.118 151.849)">
      <path id="Trazado_3199" data-name="Trazado 3199" d="M360.47,204.108h2.751v.556h-2.158v1.372h2.009v.556h-2.009v1.892h-.593Z" transform="translate(-360.47 -203.997)" fill="#fff"/>
      <path id="Trazado_3200" data-name="Trazado 3200" d="M373.443,204.108h.538l1.873,4.377h-.692l-.439-1.082h-2.083l-.433,1.082h-.692Zm1.063,2.776-.816-2.009h-.012l-.828,2.009Z" transform="translate(-367.7 -203.997)" fill="#fff"/>
      <path id="Trazado_3201" data-name="Trazado 3201" d="M389.093,204.108h1.54a1.8,1.8,0,0,1,.692.114,1.183,1.183,0,0,1,.43.291.99.99,0,0,1,.219.4,1.567,1.567,0,0,1,.062.424,1.129,1.129,0,0,1-.074.4,1.149,1.149,0,0,1-.213.353,1.217,1.217,0,0,1-.34.266,1.18,1.18,0,0,1-.448.133l1.243,2h-.742l-1.113-1.929h-.661v1.929h-.594Zm.594,1.929h.779a2.114,2.114,0,0,0,.343-.028.919.919,0,0,0,.3-.1.559.559,0,0,0,.213-.213.853.853,0,0,0,0-.723.559.559,0,0,0-.213-.213.919.919,0,0,0-.3-.1,2.115,2.115,0,0,0-.343-.028h-.779Z" transform="translate(-379.208 -203.997)" fill="#fff"/>
      <path id="Trazado_3202" data-name="Trazado 3202" d="M403.271,204.108h.884l1.391,3.314h.025l1.379-3.314h.884v4.377h-.594v-3.6h-.012l-1.477,3.6h-.4l-1.477-3.6h-.012v3.6h-.593Z" transform="translate(-388.49 -203.997)" fill="#fff"/>
      <path id="Trazado_3203" data-name="Trazado 3203" d="M423.3,204.108h.538l1.873,4.377h-.692l-.439-1.082h-2.083l-.433,1.082h-.692Zm1.063,2.776-.816-2.009h-.012l-.828,2.009Z" transform="translate(-400.337 -203.997)" fill="#fff"/>
      <path id="Trazado_3204" data-name="Trazado 3204" d="M441.479,204.843a1.229,1.229,0,0,0-.47-.371,1.4,1.4,0,0,0-.587-.13,1.572,1.572,0,0,0-.671.139,1.54,1.54,0,0,0-.513.38,1.731,1.731,0,0,0-.331.566,2.034,2.034,0,0,0-.117.7,1.925,1.925,0,0,0,.111.655,1.636,1.636,0,0,0,.322.544,1.5,1.5,0,0,0,.513.371,1.656,1.656,0,0,0,.686.136,1.367,1.367,0,0,0,.662-.154,1.421,1.421,0,0,0,.482-.433l.5.377a2.083,2.083,0,0,1-.173.195,1.744,1.744,0,0,1-.328.253,2.318,2.318,0,0,1-.491.223,2.1,2.1,0,0,1-.665.1,2.165,2.165,0,0,1-.937-.2,2.294,2.294,0,0,1-1.314-2.065,2.557,2.557,0,0,1,.167-.937,2.208,2.208,0,0,1,.467-.742,2.089,2.089,0,0,1,.72-.486,2.412,2.412,0,0,1,.927-.173,2.271,2.271,0,0,1,.85.167,1.588,1.588,0,0,1,.683.513Z" transform="translate(-411.329 -203.786)" fill="#fff"/>
      <path id="Trazado_3205" data-name="Trazado 3205" d="M454.915,204.108h.593v4.377h-.593Z" transform="translate(-422.299 -203.997)" fill="#fff"/>
      <path id="Trazado_3206" data-name="Trazado 3206" d="M463.574,204.108h.538l1.873,4.377h-.692l-.439-1.082H462.77l-.433,1.082h-.692Zm1.063,2.776-.816-2.009h-.012l-.828,2.009Z" transform="translate(-426.705 -203.997)" fill="#fff"/>
      <path id="Trazado_3207" data-name="Trazado 3207" d="M478.674,207.359a.976.976,0,0,0,.411.355,1.23,1.23,0,0,0,.516.114,1.043,1.043,0,0,0,.3-.046.92.92,0,0,0,.281-.139.758.758,0,0,0,.207-.229.608.608,0,0,0,.08-.315.473.473,0,0,0-.161-.386,1.4,1.4,0,0,0-.4-.222q-.238-.09-.519-.173a2.112,2.112,0,0,1-.519-.232,1.266,1.266,0,0,1-.4-.4,1.244,1.244,0,0,1-.161-.677,1.165,1.165,0,0,1,.346-.8,1.452,1.452,0,0,1,.461-.3,1.711,1.711,0,0,1,.677-.121,2.374,2.374,0,0,1,.686.1,1.183,1.183,0,0,1,.575.4l-.482.439a.8.8,0,0,0-.315-.278,1,1,0,0,0-.464-.1,1.124,1.124,0,0,0-.411.065.737.737,0,0,0-.263.167.588.588,0,0,0-.139.22.67.67,0,0,0-.04.216.553.553,0,0,0,.161.427,1.248,1.248,0,0,0,.4.241,4.777,4.777,0,0,0,.519.167,2.217,2.217,0,0,1,.519.207,1.215,1.215,0,0,1,.4.358,1.055,1.055,0,0,1,.161.621,1.306,1.306,0,0,1-.121.569,1.263,1.263,0,0,1-.325.426,1.441,1.441,0,0,1-.482.266,1.865,1.865,0,0,1-.594.093,2.161,2.161,0,0,1-.8-.148,1.311,1.311,0,0,1-.6-.458Z" transform="translate(-437.533 -203.786)" fill="#fff"/>
    </g>
  </g>
</svg>
