<svg id="Icon" xmlns="http://www.w3.org/2000/svg" xmlns:xlink="http://www.w3.org/1999/xlink" width="8.118" height="15.334" viewBox="0 0 8.118 15.334">
  <defs>
    <clipPath id="clip-path">
      <path id="Facebook" d="M5.27,15.334V8.34H7.662l.359-2.727H5.27V3.873c0-.789.223-1.327,1.378-1.327H8.118V.107A20.328,20.328,0,0,0,5.974,0,3.316,3.316,0,0,0,2.4,3.6V5.613H0V8.34H2.4v6.994Z" fill="#fff"/>
    </clipPath>
  </defs>
  <path id="Facebook-2" data-name="Facebook" d="M5.27,15.334V8.34H7.662l.359-2.727H5.27V3.873c0-.789.223-1.327,1.378-1.327H8.118V.107A20.328,20.328,0,0,0,5.974,0,3.316,3.316,0,0,0,2.4,3.6V5.613H0V8.34H2.4v6.994Z" fill="#fff"/>
</svg>
