<svg xmlns="http://www.w3.org/2000/svg" width="21.401" height="14.976" viewBox="0 0 21.401 14.976">
    <g id="Grupo_900" data-name="Grupo 900" transform="translate(225.279 -142.487)">
        <path id="Trazado_3254" data-name="Trazado 3254" d="M-203.829,240.629a.643.643,0,0,1-.694.416c-.5-.013-1,0-1.483,0a5.325,5.325,0,0,1-.317.63,2.045,2.045,0,0,1-2.044.95,2.03,2.03,0,0,1-1.739-1.374.274.274,0,0,0-.312-.209q-7.04.006-14.079,0a1.4,1.4,0,0,1-.351-.033.515.515,0,0,1-.378-.515.514.514,0,0,1,.379-.493,1.413,1.413,0,0,1,.351-.033q7.029,0,14.058,0a.3.3,0,0,0,.34-.231,2.1,2.1,0,0,1,1.982-1.371,2.122,2.122,0,0,1,2,1.355c.03.077.059.154.094.243.5,0,1,.01,1.5,0a.642.642,0,0,1,.694.416Zm-3.214-.115a1.069,1.069,0,0,0-1.066-1.081,1.074,1.074,0,0,0-1.069,1.06,1.075,1.075,0,0,0,1.069,1.081A1.07,1.07,0,0,0-207.043,240.514Z" transform="translate(-0.049 -90.527)" fill="#033f5d"/>
        <path id="Trazado_3255" data-name="Trazado 3255" d="M-203.83,336.445a.652.652,0,0,1-.694.416c-2.57-.006-5.139,0-7.709-.007a.255.255,0,0,0-.3.2,2.106,2.106,0,0,1-2,1.4,2.107,2.107,0,0,1-2-1.4c-.059-.167-.142-.2-.3-.2q-3.844.007-7.688,0c-.459,0-.715-.2-.708-.549s.257-.527.709-.527q3.833,0,7.667,0a.28.28,0,0,0,.326-.218,2.109,2.109,0,0,1,2.016-1.384,2.1,2.1,0,0,1,1.983,1.4.255.255,0,0,0,.3.2c2.57,0,5.139,0,7.709-.007a.651.651,0,0,1,.694.416Zm-9.63-.122a1.075,1.075,0,0,0-1.056-1.074,1.076,1.076,0,0,0-1.084,1.066,1.076,1.076,0,0,0,1.056,1.074A1.076,1.076,0,0,0-213.459,336.323Z" transform="translate(-0.049 -180.993)" fill="#033f5d"/>
        <path id="Trazado_3256" data-name="Trazado 3256" d="M-203.878,144.752a.651.651,0,0,1-.694.416q-7.051-.008-14.1-.007c-.175,0-.264.033-.33.215A2.1,2.1,0,0,1-221,146.763a2.132,2.132,0,0,1-2-1.38c-.027-.07-.053-.141-.082-.218-.543,0-1.078.005-1.614,0a.537.537,0,0,1-.518-.787.558.558,0,0,1,.54-.288c.529,0,1.057,0,1.53,0a6.5,6.5,0,0,1,.561-.886,2.122,2.122,0,0,1,3.586.694c.061.168.144.2.3.2q7.061-.005,14.122-.006a.651.651,0,0,1,.694.416Zm-18.185-.12A1.069,1.069,0,0,0-221,145.7a1.075,1.075,0,0,0,1.074-1.077,1.074,1.074,0,0,0-1.064-1.065A1.069,1.069,0,0,0-222.064,144.632Z" fill="#033f5d"/>
    </g>
</svg>
