<svg xmlns="http://www.w3.org/2000/svg" width="77.013" height="47.028" viewBox="0 0 77.013 47.028">
  <path id="Icon_awesome-handshake" data-name="Icon awesome-handshake" d="M50.95,4.5H40.882a3.749,3.749,0,0,0-2.532.985L26.829,16.033c-.012.012-.023.035-.035.047a4.662,4.662,0,0,0-.246,6.564,4.888,4.888,0,0,0,6.575.316c.012-.012.035-.012.047-.023l9.365-8.58a1.875,1.875,0,0,1,2.532,2.766l-3.059,2.8L59.072,33.778a8.444,8.444,0,0,1,.926.9V12L53.6,5.6A3.724,3.724,0,0,0,50.95,4.5Zm12.811,7.525V38.267a3.747,3.747,0,0,0,3.751,3.751h7.5V12.025Zm5.626,26.243a1.875,1.875,0,1,1,1.875-1.875A1.881,1.881,0,0,1,69.387,38.267ZM0,42.006H7.5a3.747,3.747,0,0,0,3.751-3.751V12.025H0Zm5.626-7.49a1.875,1.875,0,1,1-1.875,1.875A1.881,1.881,0,0,1,5.626,34.517ZM56.717,36.7l-17.5-14.206L35.7,25.715A8.437,8.437,0,0,1,24.3,13.279L33.885,4.5H24.063a3.744,3.744,0,0,0-2.649,1.1L15,12V38.244h2.145l10.607,9.6A7.5,7.5,0,0,0,38.3,46.753l.023-.023,2.1,1.817a4.356,4.356,0,0,0,6.13-.633l3.68-4.524.633.516a3.745,3.745,0,0,0,5.274-.551l1.113-1.371a3.757,3.757,0,0,0-.539-5.286Z" transform="translate(1 -3.5)" fill="none" stroke="#fff" stroke-width="2"/>
</svg>
