<svg xmlns="http://www.w3.org/2000/svg" width="22.903" height="17.563" viewBox="0 0 22.903 17.563">
    <g id="Grupo_1052" data-name="Grupo 1052" transform="translate(-199.514 -223.876)">
        <path id="Trazado_3282" data-name="Trazado 3282" d="M251.774,225.856v-.882c-.305,0-.6.007-.9,0a.544.544,0,0,1-.472-.83.526.526,0,0,1,.47-.263c.978,0,1.956-.005,2.934,0a.534.534,0,0,1,.535.531.525.525,0,0,1-.506.555c-.309.016-.619,0-.941,0v.88a7.747,7.747,0,0,1,6.055,3.661,7.533,7.533,0,0,1,1.111,5.221,7.806,7.806,0,0,1-15.478-.17,7.572,7.572,0,0,1,1.731-5.88A7.7,7.7,0,0,1,251.774,225.856Zm-6.147,7.8a6.706,6.706,0,1,0,6.739-6.717A6.709,6.709,0,0,0,245.627,233.657Z" transform="translate(-37.727 0)" fill="#009be8"/>
        <path id="Trazado_3283" data-name="Trazado 3283" d="M202.7,281.9c-.868,0-1.736,0-2.6,0a.547.547,0,0,1-.571-.454.536.536,0,0,1,.329-.6.737.737,0,0,1,.265-.044q2.516,0,5.032.005a1.3,1.3,0,0,1,.346.021.532.532,0,0,1,.38.617.545.545,0,0,1-.554.45c-.7,0-1.4,0-2.1,0Z" transform="translate(0 -47.707)" fill="#009be8"/>
        <path id="Trazado_3284" data-name="Trazado 3284" d="M212.51,303.446h-1.98a.551.551,0,0,1-.608-.537.544.544,0,0,1,.605-.558q2,0,4,0a.55.55,0,1,1,0,1.094C213.856,303.448,213.183,303.447,212.51,303.446Z" transform="translate(-8.722 -65.765)" fill="#009be8"/>
        <path id="Trazado_3285" data-name="Trazado 3285" d="M212.54,259.236h1.941c.4,0,.636.2.642.541a.56.56,0,0,1-.633.553h-3.959a.55.55,0,1,1-.009-1.094C211.195,259.234,211.868,259.236,212.54,259.236Z" transform="translate(-8.719 -29.633)" fill="#009be8"/>
        <path id="Trazado_3286" data-name="Trazado 3286" d="M250.884,236.763a1.45,1.45,0,0,1-.261-1.418,1.127,1.127,0,0,1,.972-.783,1.458,1.458,0,0,1,1.345.565Z" transform="translate(-42.761 -8.944)" fill="#009be8"/>
        <path id="Trazado_3287" data-name="Trazado 3287" d="M322.189,236.752l-2.028-1.613a1.3,1.3,0,1,1,2.028,1.613Z" transform="translate(-101.109 -8.945)" fill="#009be8"/>
        <path id="Trazado_3288" data-name="Trazado 3288" d="M279.084,258.482c-.574-.163-1.127-.321-1.68-.476-.4-.112-.416-.152-.148-.47q1.827-2.176,3.661-4.345c.051-.06.159-.073.24-.108a.708.708,0,0,1,.042.275c-.332,1.175-.673,2.348-1.011,3.521-.02.068-.038.137-.065.234.242.071.479.143.717.211.367.1.735.205,1.1.311.233.067.26.157.1.34l-4.193,4.891c-.008.01-.015.024-.026.028-.08.034-.162.066-.243.1-.014-.086-.059-.182-.036-.257.1-.32.224-.633.339-.949l1.143-3.133C279.047,258.606,279.06,258.557,279.084,258.482Z" transform="translate(-65.001 -24.476)" fill="#009be8"/>
    </g>
</svg>
