<svg id="Grupo_120" data-name="Grupo 120" xmlns="http://www.w3.org/2000/svg" width="248.806" height="37.58" viewBox="0 0 248.806 37.58">
  <path id="Trazado_176" data-name="Trazado 176" d="M540.524,318.549a5.356,5.356,0,0,1,4.8-2.876,5.121,5.121,0,0,1,2.418.544,4.914,4.914,0,0,1,1.651,1.353v-1.7h2.451V327.6H549.4v-1.747a4.83,4.83,0,0,1-1.683,1.385,5.444,5.444,0,0,1-5.2-.224,5.513,5.513,0,0,1-1.992-2.173,6.684,6.684,0,0,1-.735-3.163A6.5,6.5,0,0,1,540.524,318.549Zm8.373,1.065a3.517,3.517,0,0,0-1.31-1.364,3.432,3.432,0,0,0-1.747-.468,3.444,3.444,0,0,0-3.057,1.8,4.192,4.192,0,0,0-.5,2.1,4.375,4.375,0,0,0,.5,2.13,3.529,3.529,0,0,0,1.321,1.4,3.384,3.384,0,0,0,1.736.48,3.427,3.427,0,0,0,1.747-.469,3.492,3.492,0,0,0,1.31-1.375,4.312,4.312,0,0,0,.5-2.12A4.255,4.255,0,0,0,548.9,319.615Z" transform="translate(-491.001 -302.694)" fill="#fff"/>
  <path id="Trazado_177" data-name="Trazado 177" d="M578.576,316.249a4.091,4.091,0,0,1,1.715,1.7,5.608,5.608,0,0,1,.618,2.728V327.6H578.5v-6.562a3.407,3.407,0,0,0-.788-2.418,2.806,2.806,0,0,0-2.152-.841,2.84,2.84,0,0,0-2.162.841,3.379,3.379,0,0,0-.8,2.418V327.6h-2.429v-11.74H572.6v1.342a4.017,4.017,0,0,1,1.524-1.129,4.871,4.871,0,0,1,1.971-.4A5.261,5.261,0,0,1,578.576,316.249Z" transform="translate(-505.063 -302.694)" fill="#fff"/>
  <path id="Trazado_178" data-name="Trazado 178" d="M599.867,315.5V322a1.246,1.246,0,0,0,.309.948,1.533,1.533,0,0,0,1.055.288h1.492v2.024H600.8a3.691,3.691,0,0,1-2.513-.767,3.159,3.159,0,0,1-.874-2.492v-6.5h-1.385v-1.982h1.385V310.6h2.45v2.919h2.856V315.5Z" transform="translate(-517.032 -300.344)" fill="#fff"/>
  <path id="Trazado_179" data-name="Trazado 179" d="M614.487,310.007a1.555,1.555,0,0,1,1.108-2.663,1.48,1.48,0,0,1,1.086.447,1.6,1.6,0,0,1,0,2.216,1.478,1.478,0,0,1-1.086.447A1.506,1.506,0,0,1,614.487,310.007Zm2.3,2v11.74h-2.429V312.01Z" transform="translate(-525.367 -298.839)" fill="#fff"/>
  <path id="Trazado_180" data-name="Trazado 180" d="M626.317,318.539a5.232,5.232,0,0,1,2.035-2.12,6.5,6.5,0,0,1,6.509.266,4.989,4.989,0,0,1,1.885,2.887h-2.62a2.773,2.773,0,0,0-1.023-1.364,3.023,3.023,0,0,0-1.768-.49,2.941,2.941,0,0,0-2.376,1.055,4.464,4.464,0,0,0-.884,2.951,4.512,4.512,0,0,0,.884,2.962,2.93,2.93,0,0,0,2.376,1.065,2.7,2.7,0,0,0,2.792-1.853h2.62a5.246,5.246,0,0,1-1.918,2.844,5.661,5.661,0,0,1-3.494,1.055,5.816,5.816,0,0,1-2.982-.757,5.3,5.3,0,0,1-2.035-2.13,7.271,7.271,0,0,1,0-6.371Z" transform="translate(-530.709 -302.694)" fill="#fff"/>
  <path id="Trazado_181" data-name="Trazado 181" d="M654.279,327.04a5.425,5.425,0,0,1-2.109-2.13,6.425,6.425,0,0,1-.767-3.185,6.3,6.3,0,0,1,.788-3.175,5.453,5.453,0,0,1,2.152-2.131,6.6,6.6,0,0,1,6.094,0,5.456,5.456,0,0,1,2.152,2.131,6.309,6.309,0,0,1,.789,3.175,6.173,6.173,0,0,1-.81,3.175,5.6,5.6,0,0,1-2.205,2.141,6.356,6.356,0,0,1-3.079.757A6.008,6.008,0,0,1,654.279,327.04Zm4.761-1.8a3.417,3.417,0,0,0,1.332-1.342,4.314,4.314,0,0,0,.511-2.173,4.4,4.4,0,0,0-.49-2.163,3.31,3.31,0,0,0-1.3-1.332,3.551,3.551,0,0,0-1.747-.447,3.491,3.491,0,0,0-1.736.447,3.2,3.2,0,0,0-1.268,1.332,4.573,4.573,0,0,0-.468,2.163,4.117,4.117,0,0,0,.97,2.93,3.2,3.2,0,0,0,2.439,1.034A3.613,3.613,0,0,0,659.041,325.24Z" transform="translate(-542.66 -302.694)" fill="#fff"/>
  <path id="Trazado_182" data-name="Trazado 182" d="M688.563,316.249a4.088,4.088,0,0,1,1.715,1.7,5.608,5.608,0,0,1,.618,2.728V327.6h-2.408v-6.562a3.407,3.407,0,0,0-.789-2.418,2.8,2.8,0,0,0-2.151-.841,2.84,2.84,0,0,0-2.163.841,3.379,3.379,0,0,0-.8,2.418V327.6h-2.429v-11.74h2.429v1.342a4.016,4.016,0,0,1,1.524-1.129,4.871,4.871,0,0,1,1.971-.4A5.258,5.258,0,0,1,688.563,316.249Z" transform="translate(-555.969 -302.694)" fill="#fff"/>
  <path id="Trazado_183" data-name="Trazado 183" d="M707.111,318.539a5.235,5.235,0,0,1,2.035-2.12,6.506,6.506,0,0,1,6.509.266,4.989,4.989,0,0,1,1.885,2.887h-2.62a2.772,2.772,0,0,0-1.023-1.364,3.024,3.024,0,0,0-1.768-.49,2.941,2.941,0,0,0-2.376,1.055,4.463,4.463,0,0,0-.884,2.951,4.512,4.512,0,0,0,.884,2.962,2.93,2.93,0,0,0,2.376,1.065,2.7,2.7,0,0,0,2.792-1.853h2.62a5.245,5.245,0,0,1-1.918,2.844,5.661,5.661,0,0,1-3.494,1.055,5.819,5.819,0,0,1-2.983-.757,5.3,5.3,0,0,1-2.035-2.13,7.271,7.271,0,0,1,0-6.371Z" transform="translate(-568.104 -302.694)" fill="#fff"/>
  <path id="Trazado_184" data-name="Trazado 184" d="M743.641,322.64h-8.969a3.253,3.253,0,0,0,1.044,2.259,3.292,3.292,0,0,0,2.3.852,2.842,2.842,0,0,0,2.77-1.64h2.621a5.288,5.288,0,0,1-1.928,2.653,5.658,5.658,0,0,1-3.462,1.033A6,6,0,0,1,735,327.04a5.376,5.376,0,0,1-2.087-2.13,6.492,6.492,0,0,1-.757-3.185,6.655,6.655,0,0,1,.735-3.185,5.171,5.171,0,0,1,2.067-2.12,6.154,6.154,0,0,1,3.057-.746,5.979,5.979,0,0,1,2.961.725A5.112,5.112,0,0,1,743,318.432a6.128,6.128,0,0,1,.725,3.015A7.572,7.572,0,0,1,743.641,322.64Zm-2.45-1.96a2.764,2.764,0,0,0-.959-2.152,3.43,3.43,0,0,0-2.323-.81,3.118,3.118,0,0,0-2.151.8,3.341,3.341,0,0,0-1.066,2.163Z" transform="translate(-580.036 -302.694)" fill="#fff"/>
  <path id="Trazado_185" data-name="Trazado 185" d="M764.232,316.227a5.137,5.137,0,0,1,2.408-.554,5.322,5.322,0,0,1,4.794,2.876,6.574,6.574,0,0,1,.725,3.132,6.763,6.763,0,0,1-.725,3.163,5.411,5.411,0,0,1-1.992,2.173,5.253,5.253,0,0,1-2.8.778,5.094,5.094,0,0,1-2.386-.544,5.348,5.348,0,0,1-1.7-1.353v7.287H760.12V315.865h2.429v1.726A4.928,4.928,0,0,1,764.232,316.227Zm4.953,3.356a3.433,3.433,0,0,0-1.321-1.342,3.543,3.543,0,0,0-1.758-.458,3.451,3.451,0,0,0-1.737.468,3.5,3.5,0,0,0-1.321,1.364,4.249,4.249,0,0,0-.5,2.109,4.306,4.306,0,0,0,.5,2.12,3.463,3.463,0,0,0,3.057,1.844,3.424,3.424,0,0,0,1.758-.48,3.531,3.531,0,0,0,1.321-1.4,4.375,4.375,0,0,0,.5-2.13A4.191,4.191,0,0,0,769.186,319.583Z" transform="translate(-592.979 -302.694)" fill="#fff"/>
  <path id="Trazado_186" data-name="Trazado 186" d="M790.966,315.5V322a1.244,1.244,0,0,0,.309.948,1.532,1.532,0,0,0,1.055.288h1.491v2.024H791.9a3.692,3.692,0,0,1-2.514-.767,3.159,3.159,0,0,1-.874-2.492v-6.5h-1.385v-1.982h1.385V310.6h2.451v2.919h2.855V315.5Z" transform="translate(-605.481 -300.344)" fill="#fff"/>
  <path id="Trazado_187" data-name="Trazado 187" d="M805.586,310.007a1.555,1.555,0,0,1,1.108-2.663,1.482,1.482,0,0,1,1.087.447,1.6,1.6,0,0,1,0,2.216,1.48,1.48,0,0,1-1.087.447A1.5,1.5,0,0,1,805.586,310.007Zm2.3,2v11.74h-2.429V312.01Z" transform="translate(-613.815 -298.839)" fill="#fff"/>
  <path id="Trazado_188" data-name="Trazado 188" d="M821.533,325.6l3.324-9.566h2.578l-4.474,11.74h-2.9l-4.453-11.74h2.6Z" transform="translate(-618.662 -302.859)" fill="#fff"/>
  <path id="Trazado_189" data-name="Trazado 189" d="M844.427,327.04a5.426,5.426,0,0,1-2.109-2.13,6.425,6.425,0,0,1-.768-3.185,6.3,6.3,0,0,1,.789-3.175,5.447,5.447,0,0,1,2.152-2.131,6.6,6.6,0,0,1,6.094,0,5.45,5.45,0,0,1,2.152,2.131,6.306,6.306,0,0,1,.788,3.175,6.173,6.173,0,0,1-.81,3.175,5.6,5.6,0,0,1-2.2,2.141,6.359,6.359,0,0,1-3.079.757A6.007,6.007,0,0,1,844.427,327.04Zm4.761-1.8a3.417,3.417,0,0,0,1.332-1.342,4.315,4.315,0,0,0,.511-2.173,4.4,4.4,0,0,0-.49-2.163,3.307,3.307,0,0,0-1.3-1.332,3.548,3.548,0,0,0-1.747-.447,3.491,3.491,0,0,0-1.736.447,3.2,3.2,0,0,0-1.268,1.332,4.575,4.575,0,0,0-.468,2.163,4.117,4.117,0,0,0,.969,2.93,3.2,3.2,0,0,0,2.439,1.034A3.617,3.617,0,0,0,849.188,325.24Z" transform="translate(-630.668 -302.694)" fill="#fff"/>
  <path id="Trazado_190" data-name="Trazado 190" d="M869.683,335.035a1.555,1.555,0,0,1,1.108-2.663,1.481,1.481,0,0,1,1.087.447,1.6,1.6,0,0,1,0,2.216,1.481,1.481,0,0,1-1.087.447A1.5,1.5,0,0,1,869.683,335.035Z" transform="translate(-643.482 -310.423)" fill="#fff"/>
  <path id="Trazado_191" data-name="Trazado 191" d="M881.076,318.539a5.232,5.232,0,0,1,2.035-2.12,6.506,6.506,0,0,1,6.509.266,4.988,4.988,0,0,1,1.885,2.887h-2.621a2.769,2.769,0,0,0-1.023-1.364,3.024,3.024,0,0,0-1.768-.49,2.94,2.94,0,0,0-2.376,1.055,4.463,4.463,0,0,0-.884,2.951,4.512,4.512,0,0,0,.884,2.962,2.929,2.929,0,0,0,2.376,1.065,2.7,2.7,0,0,0,2.791-1.853h2.621a5.245,5.245,0,0,1-1.918,2.844,5.661,5.661,0,0,1-3.494,1.055,5.819,5.819,0,0,1-2.983-.757,5.3,5.3,0,0,1-2.035-2.13,7.271,7.271,0,0,1,0-6.371Z" transform="translate(-648.622 -302.694)" fill="#fff"/>
  <path id="Trazado_192" data-name="Trazado 192" d="M910.058,308.534V324.3h-2.429V308.534Z" transform="translate(-661.252 -299.39)" fill="#fff"/>
  <g id="Grupo_119" data-name="Grupo 119" transform="translate(0 0)">
    <path id="Trazado_193" data-name="Trazado 193" d="M449.993,328.061a1.682,1.682,0,0,0-1.031.349,18.057,18.057,0,0,0,.414,2.917,1.691,1.691,0,1,0,.618-3.266Z" transform="translate(-448.962 -308.428)" fill="#fff"/>
    <path id="Trazado_194" data-name="Trazado 194" d="M449.993,318.621a1.685,1.685,0,0,0-.618.118,18.058,18.058,0,0,0-.414,2.917,1.693,1.693,0,1,0,1.031-3.035Z" transform="translate(-448.962 -304.059)" fill="#fff"/>
    <path id="Trazado_195" data-name="Trazado 195" d="M458.865,331.445a1.685,1.685,0,0,0,1.509-.929,11.242,11.242,0,0,1-.413-2.052,1.692,1.692,0,1,0-1.1,2.981Z" transform="translate(-452.762 -308.428)" fill="#fff"/>
    <path id="Trazado_196" data-name="Trazado 196" d="M468.314,346.951a1.692,1.692,0,1,0,1.692,1.692A1.692,1.692,0,0,0,468.314,346.951Z" transform="translate(-457.136 -317.171)" fill="#fff"/>
    <path id="Trazado_197" data-name="Trazado 197" d="M468.314,341.923a1.665,1.665,0,0,0,.494-.075,11.251,11.251,0,0,1-2.111-2.116,1.732,1.732,0,0,0-.075.5A1.692,1.692,0,0,0,468.314,341.923Z" transform="translate(-457.136 -313.829)" fill="#fff"/>
    <path id="Trazado_198" data-name="Trazado 198" d="M467.442,294.473a1.7,1.7,0,0,0,2.944-1.144.866.866,0,0,0-.005-.118A18.773,18.773,0,0,0,467.442,294.473Z" transform="translate(-457.515 -292.298)" fill="#fff"/>
    <path id="Trazado_199" data-name="Trazado 199" d="M450.662,312.929a.87.87,0,0,0,.118.005,1.7,1.7,0,0,0,1.144-2.944A18.763,18.763,0,0,0,450.662,312.929Z" transform="translate(-449.749 -300.064)" fill="#fff"/>
    <path id="Trazado_200" data-name="Trazado 200" d="M458.865,322.005a1.679,1.679,0,0,0,1.1-.4,11.241,11.241,0,0,1,.413-2.052,1.692,1.692,0,1,0-1.509,2.455Z" transform="translate(-452.762 -304.059)" fill="#fff"/>
    <path id="Trazado_201" data-name="Trazado 201" d="M458.865,309.171a1.692,1.692,0,1,0,1.691,1.692A1.692,1.692,0,0,0,458.865,309.171Z" transform="translate(-452.762 -299.685)" fill="#fff"/>
    <path id="Trazado_202" data-name="Trazado 202" d="M458.865,337.511a1.692,1.692,0,1,0,1.691,1.692A1.692,1.692,0,0,0,458.865,337.511Z" transform="translate(-452.762 -312.802)" fill="#fff"/>
    <path id="Trazado_203" data-name="Trazado 203" d="M450.78,337.511a.865.865,0,0,0-.118.005,18.767,18.767,0,0,0,1.262,2.938,1.7,1.7,0,0,0-1.144-2.944Z" transform="translate(-449.749 -312.802)" fill="#fff"/>
    <path id="Trazado_204" data-name="Trazado 204" d="M468.808,309.246a1.665,1.665,0,0,0-.494-.075,1.692,1.692,0,0,0-1.692,1.692,1.731,1.731,0,0,0,.075.5A11.253,11.253,0,0,1,468.808,309.246Z" transform="translate(-457.136 -299.685)" fill="#fff"/>
    <path id="Trazado_205" data-name="Trazado 205" d="M468.314,299.731a1.692,1.692,0,1,0,1.692,1.692A1.692,1.692,0,0,0,468.314,299.731Z" transform="translate(-457.136 -295.316)" fill="#fff"/>
    <path id="Trazado_206" data-name="Trazado 206" d="M468.694,356.4a1.7,1.7,0,0,0-1.252.548,18.776,18.776,0,0,0,2.938,1.262.867.867,0,0,0,.005-.118A1.692,1.692,0,0,0,468.694,356.4Z" transform="translate(-457.515 -321.545)" fill="#fff"/>
    <path id="Trazado_207" data-name="Trazado 207" d="M459.366,299.841a20.092,20.092,0,0,0-2.084,2.084,1.693,1.693,0,1,0,2.084-2.084Z" transform="translate(-452.813 -295.366)" fill="#fff"/>
    <path id="Trazado_208" data-name="Trazado 208" d="M458.915,346.951a1.7,1.7,0,0,0-1.633,1.241,20.086,20.086,0,0,0,2.084,2.084,1.693,1.693,0,0,0-.451-3.325Z" transform="translate(-452.813 -317.171)" fill="#fff"/>
    <path id="Trazado_209" data-name="Trazado 209" d="M476.986,347.3a1.689,1.689,0,1,0,2.063.414A11.419,11.419,0,0,1,476.986,347.3Z" transform="translate(-461.505 -317.333)" fill="#fff"/>
    <path id="Trazado_210" data-name="Trazado 210" d="M496.644,346.951a1.692,1.692,0,1,0,1.692,1.692A1.692,1.692,0,0,0,496.644,346.951Z" transform="translate(-470.248 -317.171)" fill="#fff"/>
    <path id="Trazado_211" data-name="Trazado 211" d="M506.1,346.951a1.693,1.693,0,0,0-.452,3.325,20.09,20.09,0,0,0,2.084-2.084A1.7,1.7,0,0,0,506.1,346.951Z" transform="translate(-474.622 -317.171)" fill="#fff"/>
    <path id="Trazado_212" data-name="Trazado 212" d="M477.754,299.731a1.69,1.69,0,0,0-.768,3.2,11.416,11.416,0,0,1,2.063-.414,1.669,1.669,0,0,0,.4-1.09A1.692,1.692,0,0,0,477.754,299.731Z" transform="translate(-461.505 -295.316)" fill="#fff"/>
    <path id="Trazado_213" data-name="Trazado 213" d="M476.18,291.925a1.691,1.691,0,1,0,2.917-.414A19.275,19.275,0,0,0,476.18,291.925Z" transform="translate(-461.505 -291.511)" fill="#fff"/>
    <path id="Trazado_214" data-name="Trazado 214" d="M487.972,347.3a11.4,11.4,0,0,1-2.063.414,1.669,1.669,0,0,0-.4,1.09,1.692,1.692,0,1,0,2.46-1.5Z" transform="translate(-465.879 -317.333)" fill="#fff"/>
    <path id="Trazado_215" data-name="Trazado 215" d="M496.644,299.731a1.692,1.692,0,1,0,1.692,1.692A1.692,1.692,0,0,0,496.644,299.731Z" transform="translate(-470.248 -295.316)" fill="#fff"/>
    <path id="Trazado_216" data-name="Trazado 216" d="M497.676,309.171a1.668,1.668,0,0,0-.494.075,11.272,11.272,0,0,1,2.112,2.116,1.75,1.75,0,0,0,.075-.5A1.692,1.692,0,0,0,497.676,309.171Z" transform="translate(-471.28 -299.685)" fill="#fff"/>
    <path id="Trazado_217" data-name="Trazado 217" d="M494.952,358.093a.872.872,0,0,0,.005.118,18.751,18.751,0,0,0,2.938-1.262,1.7,1.7,0,0,0-2.944,1.144Z" transform="translate(-470.248 -321.545)" fill="#fff"/>
    <path id="Trazado_218" data-name="Trazado 218" d="M496.644,295.021a1.7,1.7,0,0,0,1.252-.548,18.748,18.748,0,0,0-2.938-1.262.87.87,0,0,0-.005.118A1.692,1.692,0,0,0,496.644,295.021Z" transform="translate(-470.248 -292.298)" fill="#fff"/>
    <path id="Trazado_219" data-name="Trazado 219" d="M487.2,299.731a1.692,1.692,0,0,0-1.692,1.692,1.669,1.669,0,0,0,.4,1.09,11.4,11.4,0,0,1,2.063.414,1.69,1.69,0,0,0-.768-3.2Z" transform="translate(-465.879 -295.316)" fill="#fff"/>
    <path id="Trazado_220" data-name="Trazado 220" d="M515.539,322.005a1.682,1.682,0,0,0,1.031-.349,17.943,17.943,0,0,0-.414-2.917,1.691,1.691,0,1,0-.618,3.266Z" transform="translate(-478.996 -304.059)" fill="#fff"/>
    <path id="Trazado_221" data-name="Trazado 221" d="M515.539,312.939a.876.876,0,0,0,.118-.005A18.645,18.645,0,0,0,514.4,310a1.692,1.692,0,0,0,1.139,2.938Z" transform="translate(-478.996 -300.069)" fill="#fff"/>
    <path id="Trazado_222" data-name="Trazado 222" d="M485.861,291.511a1.694,1.694,0,1,0,2.917.414A19.169,19.169,0,0,0,485.861,291.511Z" transform="translate(-465.879 -291.511)" fill="#fff"/>
    <path id="Trazado_223" data-name="Trazado 223" d="M506.252,318.621a1.687,1.687,0,0,0-1.51.929,11.247,11.247,0,0,1,.414,2.052,1.692,1.692,0,1,0,1.1-2.981Z" transform="translate(-474.779 -304.059)" fill="#fff"/>
    <path id="Trazado_224" data-name="Trazado 224" d="M497.182,341.847a1.668,1.668,0,0,0,.494.075,1.692,1.692,0,0,0,1.692-1.692,1.75,1.75,0,0,0-.075-.5A11.27,11.27,0,0,1,497.182,341.847Z" transform="translate(-471.28 -313.829)" fill="#fff"/>
    <path id="Trazado_225" data-name="Trazado 225" d="M477.754,356.4a1.689,1.689,0,0,0-1.574,2.31,19.275,19.275,0,0,0,2.917.414,1.693,1.693,0,0,0-1.343-2.723Z" transform="translate(-461.505 -321.545)" fill="#fff"/>
    <path id="Trazado_226" data-name="Trazado 226" d="M506.252,328.061a1.677,1.677,0,0,0-1.1.4,11.248,11.248,0,0,1-.414,2.052,1.692,1.692,0,1,0,1.51-2.455Z" transform="translate(-474.779 -308.428)" fill="#fff"/>
    <path id="Trazado_227" data-name="Trazado 227" d="M513.852,339.2a1.674,1.674,0,0,0,.548,1.246,18.648,18.648,0,0,0,1.257-2.933.866.866,0,0,0-.118-.005A1.691,1.691,0,0,0,513.852,339.2Z" transform="translate(-478.996 -312.802)" fill="#fff"/>
    <path id="Trazado_228" data-name="Trazado 228" d="M513.852,329.753a1.685,1.685,0,0,0,2.3,1.574,17.943,17.943,0,0,0,.414-2.917,1.689,1.689,0,0,0-2.718,1.343Z" transform="translate(-478.996 -308.428)" fill="#fff"/>
    <path id="Trazado_229" data-name="Trazado 229" d="M506.1,303.166a1.7,1.7,0,0,0,1.632-1.241,20.1,20.1,0,0,0-2.084-2.084,1.693,1.693,0,0,0,.452,3.325Z" transform="translate(-474.622 -295.366)" fill="#fff"/>
    <path id="Trazado_230" data-name="Trazado 230" d="M506.1,337.511a1.692,1.692,0,1,0,1.691,1.692A1.692,1.692,0,0,0,506.1,337.511Z" transform="translate(-474.622 -312.802)" fill="#fff"/>
    <path id="Trazado_231" data-name="Trazado 231" d="M506.1,309.171a1.692,1.692,0,1,0,1.691,1.692A1.692,1.692,0,0,0,506.1,309.171Z" transform="translate(-474.622 -299.685)" fill="#fff"/>
    <path id="Trazado_232" data-name="Trazado 232" d="M487.2,356.4a1.694,1.694,0,0,0-1.343,2.723,19.169,19.169,0,0,0,2.917-.414,1.689,1.689,0,0,0-1.574-2.31Z" transform="translate(-465.879 -321.545)" fill="#fff"/>
  </g>
</svg>
