<svg id="Grupo_881" data-name="Grupo 881" xmlns="http://www.w3.org/2000/svg" xmlns:xlink="http://www.w3.org/1999/xlink" width="310.996" height="46.973" viewBox="0 0 310.996 46.973">
  <defs>
    <radialGradient id="radial-gradient" cx="-1.5" cy="-6.087" r="18.532" gradientTransform="translate(-0.121) scale(1.243 1)" gradientUnits="objectBoundingBox">
      <stop offset="0" stop-color="#05f29b"/>
      <stop offset="0.967" stop-color="#0785f2"/>
      <stop offset="1"/>
    </radialGradient>
    <radialGradient id="radial-gradient-2" cx="-1.5" cy="-4.589" r="18.533" xlink:href="#radial-gradient"/>
    <radialGradient id="radial-gradient-3" cx="-2.653" cy="-6.087" r="18.532" gradientTransform="translate(-0.029) scale(1.057 1)" xlink:href="#radial-gradient"/>
    <radialGradient id="radial-gradient-4" cx="-4.01" cy="-9.086" r="18.532" gradientTransform="translate(0)" xlink:href="#radial-gradient"/>
    <radialGradient id="radial-gradient-5" cx="-6.206" cy="-12.26" r="28.615" gradientTransform="translate(-0.001)" xlink:href="#radial-gradient"/>
    <radialGradient id="radial-gradient-6" cx="-4.759" cy="-1.039" r="34.644" gradientTransform="translate(0.193) scale(0.615 1)" xlink:href="#radial-gradient"/>
    <radialGradient id="radial-gradient-7" cx="-2.76" cy="-3.701" r="21.305" gradientTransform="translate(-0.313) scale(1.626 1)" xlink:href="#radial-gradient"/>
    <radialGradient id="radial-gradient-8" cx="-2.653" cy="-4.589" r="18.532" gradientTransform="translate(-0.029) scale(1.057 1)" xlink:href="#radial-gradient"/>
    <radialGradient id="radial-gradient-9" cx="-2.51" cy="-3.089" r="18.532" gradientTransform="translate(0)" xlink:href="#radial-gradient"/>
    <radialGradient id="radial-gradient-10" cx="-2.51" cy="-7.587" r="18.532" gradientTransform="translate(0)" xlink:href="#radial-gradient"/>
    <radialGradient id="radial-gradient-11" cx="-2.76" cy="-8.723" r="21.305" gradientTransform="translate(-0.313) scale(1.626 1)" xlink:href="#radial-gradient"/>
    <radialGradient id="radial-gradient-12" cx="-6.206" cy="-4.77" r="28.615" gradientTransform="translate(-0.001)" xlink:href="#radial-gradient"/>
    <radialGradient id="radial-gradient-13" cx="-4.01" cy="-1.591" r="18.532" gradientTransform="translate(0)" xlink:href="#radial-gradient"/>
    <radialGradient id="radial-gradient-14" cx="-4.759" cy="-19.79" r="34.644" gradientTransform="translate(0.193) scale(0.615 1)" xlink:href="#radial-gradient"/>
    <radialGradient id="radial-gradient-15" cx="-2.572" cy="-1.637" r="18.861" gradientTransform="translate(0)" xlink:href="#radial-gradient"/>
    <radialGradient id="radial-gradient-16" cx="-2.572" cy="-9.247" r="18.861" gradientTransform="translate(0)" xlink:href="#radial-gradient"/>
    <radialGradient id="radial-gradient-17" cx="-5.507" cy="-9.679" r="19.622" gradientTransform="translate(0.028) scale(0.944 1)" xlink:href="#radial-gradient"/>
    <radialGradient id="radial-gradient-18" cx="-8.506" cy="-9.086" r="18.532" gradientTransform="translate(0)" xlink:href="#radial-gradient"/>
    <radialGradient id="radial-gradient-19" cx="-10.186" cy="-9.247" r="18.861" gradientTransform="translate(0)" xlink:href="#radial-gradient"/>
    <radialGradient id="radial-gradient-20" cx="-5.507" cy="-1.684" r="19.622" gradientTransform="translate(0.028) scale(0.944 1)" xlink:href="#radial-gradient"/>
    <radialGradient id="radial-gradient-21" cx="-5.507" cy="-0.355" r="23.028" gradientTransform="translate(0.098) scale(0.805 1)" xlink:href="#radial-gradient"/>
    <radialGradient id="radial-gradient-22" cx="-7.008" cy="-9.679" r="19.622" gradientTransform="translate(0.028) scale(0.944 1)" xlink:href="#radial-gradient"/>
    <radialGradient id="radial-gradient-23" cx="-8.506" cy="-1.591" r="18.532" gradientTransform="translate(0)" xlink:href="#radial-gradient"/>
    <radialGradient id="radial-gradient-24" cx="-13.715" cy="-4.77" r="28.615" gradientTransform="translate(-0.001)" xlink:href="#radial-gradient"/>
    <radialGradient id="radial-gradient-25" cx="-9.779" cy="-19.79" r="34.644" gradientTransform="translate(0.193) scale(0.615 1)" xlink:href="#radial-gradient"/>
    <radialGradient id="radial-gradient-26" cx="-9.779" cy="-1.039" r="34.644" gradientTransform="translate(0.193) scale(0.615 1)" xlink:href="#radial-gradient"/>
    <radialGradient id="radial-gradient-27" cx="-7.008" cy="-1.684" r="19.622" gradientTransform="translate(0.028) scale(0.944 1)" xlink:href="#radial-gradient"/>
    <radialGradient id="radial-gradient-28" cx="-14.326" cy="-4.589" r="18.532" gradientTransform="translate(-0.123) scale(1.245 1)" xlink:href="#radial-gradient"/>
    <radialGradient id="radial-gradient-29" cx="-21.575" cy="-3.71" r="21.344" gradientTransform="translate(-0.314) scale(1.628 1)" xlink:href="#radial-gradient"/>
    <radialGradient id="radial-gradient-30" cx="-7.008" cy="-0.355" r="23.028" gradientTransform="translate(0.098) scale(0.805 1)" xlink:href="#radial-gradient"/>
    <radialGradient id="radial-gradient-31" cx="-10.634" cy="-4.589" r="18.532" gradientTransform="translate(-0.029) scale(1.057 1)" xlink:href="#radial-gradient"/>
    <radialGradient id="radial-gradient-32" cx="-13.715" cy="-12.26" r="28.615" gradientTransform="translate(-0.001)" xlink:href="#radial-gradient"/>
    <radialGradient id="radial-gradient-33" cx="-5.507" cy="-13.154" r="23.028" gradientTransform="translate(0.098) scale(0.805 1)" xlink:href="#radial-gradient"/>
    <radialGradient id="radial-gradient-34" cx="-10.634" cy="-6.087" r="18.532" gradientTransform="translate(-0.029) scale(1.057 1)" xlink:href="#radial-gradient"/>
    <radialGradient id="radial-gradient-35" cx="-21.575" cy="-8.739" r="21.344" gradientTransform="translate(-0.314) scale(1.628 1)" xlink:href="#radial-gradient"/>
    <radialGradient id="radial-gradient-36" cx="-14.326" cy="-6.087" r="18.532" gradientTransform="translate(-0.123) scale(1.245 1)" xlink:href="#radial-gradient"/>
    <radialGradient id="radial-gradient-37" cx="-10.186" cy="-1.637" r="18.861" gradientTransform="translate(0)" xlink:href="#radial-gradient"/>
    <radialGradient id="radial-gradient-38" cx="-10.008" cy="-7.587" r="18.532" gradientTransform="translate(0)" xlink:href="#radial-gradient"/>
    <radialGradient id="radial-gradient-39" cx="-10.008" cy="-3.089" r="18.532" gradientTransform="translate(0)" xlink:href="#radial-gradient"/>
    <radialGradient id="radial-gradient-40" cx="-7.008" cy="-13.154" r="23.028" gradientTransform="translate(0.098) scale(0.805 1)" xlink:href="#radial-gradient"/>
  </defs>
  <path id="Trazado_3060" data-name="Trazado 3060" d="M540.708,213.707a6.7,6.7,0,0,1,6.006-3.6,6.4,6.4,0,0,1,3.023.68,6.142,6.142,0,0,1,2.064,1.691v-2.131h3.063v14.674H551.8v-2.184a6.031,6.031,0,0,1-2.1,1.732,6.8,6.8,0,0,1-6.5-.28,6.892,6.892,0,0,1-2.49-2.716,8.358,8.358,0,0,1-.919-3.955A8.123,8.123,0,0,1,540.708,213.707Zm10.466,1.331a4.4,4.4,0,0,0-1.638-1.7,4.29,4.29,0,0,0-2.184-.585A4.305,4.305,0,0,0,543.531,215a5.239,5.239,0,0,0-.626,2.623,5.468,5.468,0,0,0,.626,2.663,4.41,4.41,0,0,0,1.652,1.744,4.23,4.23,0,0,0,2.17.6,4.284,4.284,0,0,0,2.184-.586,4.365,4.365,0,0,0,1.638-1.718,5.39,5.39,0,0,0,.626-2.649A5.319,5.319,0,0,0,551.174,215.039Z" transform="translate(-478.806 -193.889)" fill="#0869a6"/>
  <path id="Trazado_3061" data-name="Trazado 3061" d="M580.677,210.832a5.112,5.112,0,0,1,2.144,2.13,7.009,7.009,0,0,1,.772,3.41v8.655h-3.009v-8.2a4.259,4.259,0,0,0-.986-3.023,3.509,3.509,0,0,0-2.69-1.051,3.552,3.552,0,0,0-2.7,1.051,4.223,4.223,0,0,0-1,3.023v8.2h-3.036V210.352h3.036v1.678a5.02,5.02,0,0,1,1.9-1.411,6.089,6.089,0,0,1,2.464-.506A6.575,6.575,0,0,1,580.677,210.832Z" transform="translate(-488.788 -193.889)" fill="#0869a6"/>
  <path id="Trazado_3062" data-name="Trazado 3062" d="M600.826,211.16v8.123a1.561,1.561,0,0,0,.386,1.185,1.919,1.919,0,0,0,1.319.359H604.4v2.53H602a4.614,4.614,0,0,1-3.142-.959,3.949,3.949,0,0,1-1.092-3.115V211.16h-1.732v-2.477h1.732v-3.648h3.062v3.648H604.4v2.477Z" transform="translate(-497.286 -192.221)" fill="#0869a6"/>
  <path id="Trazado_3063" data-name="Trazado 3063" d="M614.6,205.112a1.944,1.944,0,0,1,1.385-3.329,1.85,1.85,0,0,1,1.358.559,1.995,1.995,0,0,1,0,2.77,1.847,1.847,0,0,1-1.358.559A1.882,1.882,0,0,1,614.6,205.112Zm2.876,2.5v14.674h-3.036V207.615Z" transform="translate(-503.202 -191.152)" fill="#0869a6"/>
  <path id="Trazado_3064" data-name="Trazado 3064" d="M626.5,213.694a6.541,6.541,0,0,1,2.544-2.65,8.13,8.13,0,0,1,8.136.333,6.235,6.235,0,0,1,2.357,3.609h-3.275a3.465,3.465,0,0,0-1.279-1.7,3.778,3.778,0,0,0-2.21-.612,3.676,3.676,0,0,0-2.97,1.319,5.58,5.58,0,0,0-1.1,3.688,5.64,5.64,0,0,0,1.1,3.7,3.662,3.662,0,0,0,2.97,1.331,3.37,3.37,0,0,0,3.489-2.316h3.275a6.558,6.558,0,0,1-2.4,3.555,7.077,7.077,0,0,1-4.368,1.319,7.27,7.27,0,0,1-3.728-.946,6.621,6.621,0,0,1-2.544-2.663,9.089,9.089,0,0,1,0-7.963Z" transform="translate(-506.995 -193.889)" fill="#0869a6"/>
  <path id="Trazado_3065" data-name="Trazado 3065" d="M655,224.32a6.78,6.78,0,0,1-2.637-2.663,8.032,8.032,0,0,1-.959-3.982,7.882,7.882,0,0,1,.985-3.968,6.817,6.817,0,0,1,2.69-2.664,8.249,8.249,0,0,1,7.617,0,6.821,6.821,0,0,1,2.69,2.664,7.889,7.889,0,0,1,.986,3.968,7.717,7.717,0,0,1-1.012,3.968,7,7,0,0,1-2.756,2.676,7.944,7.944,0,0,1-3.849.946A7.51,7.51,0,0,1,655,224.32Zm5.951-2.25a4.272,4.272,0,0,0,1.665-1.678,5.391,5.391,0,0,0,.639-2.717,5.505,5.505,0,0,0-.613-2.7,4.137,4.137,0,0,0-1.624-1.664,4.438,4.438,0,0,0-2.184-.559,4.363,4.363,0,0,0-2.17.559,3.993,3.993,0,0,0-1.585,1.664,5.716,5.716,0,0,0-.585,2.7,5.146,5.146,0,0,0,1.212,3.662,4.005,4.005,0,0,0,3.049,1.292A4.516,4.516,0,0,0,660.95,222.07Z" transform="translate(-515.479 -193.889)" fill="#0869a6"/>
  <path id="Trazado_3066" data-name="Trazado 3066" d="M690.665,210.832a5.111,5.111,0,0,1,2.144,2.13,7.011,7.011,0,0,1,.773,3.41v8.655h-3.01v-8.2a4.259,4.259,0,0,0-.986-3.023,3.508,3.508,0,0,0-2.689-1.051,3.552,3.552,0,0,0-2.7,1.051,4.224,4.224,0,0,0-1,3.023v8.2h-3.036V210.352h3.036v1.678a5.018,5.018,0,0,1,1.9-1.411,6.088,6.088,0,0,1,2.463-.506A6.572,6.572,0,0,1,690.665,210.832Z" transform="translate(-524.927 -193.889)" fill="#0869a6"/>
  <path id="Trazado_3067" data-name="Trazado 3067" d="M707.295,213.694a6.543,6.543,0,0,1,2.543-2.65,8.132,8.132,0,0,1,8.136.333,6.236,6.236,0,0,1,2.357,3.609h-3.275a3.465,3.465,0,0,0-1.279-1.7,3.78,3.78,0,0,0-2.21-.612,3.676,3.676,0,0,0-2.97,1.319,5.579,5.579,0,0,0-1.1,3.688,5.64,5.64,0,0,0,1.1,3.7,3.662,3.662,0,0,0,2.97,1.331,3.37,3.37,0,0,0,3.489-2.316h3.275a6.556,6.556,0,0,1-2.4,3.555,7.077,7.077,0,0,1-4.368,1.319,7.274,7.274,0,0,1-3.728-.946,6.623,6.623,0,0,1-2.543-2.663,9.088,9.088,0,0,1,0-7.963Z" transform="translate(-533.542 -193.889)" fill="#0869a6"/>
  <path id="Trazado_3068" data-name="Trazado 3068" d="M746.511,218.82H735.3a4.067,4.067,0,0,0,1.305,2.823,4.115,4.115,0,0,0,2.876,1.065,3.552,3.552,0,0,0,3.462-2.051h3.276a6.608,6.608,0,0,1-2.41,3.316,7.073,7.073,0,0,1-4.327,1.292,7.494,7.494,0,0,1-3.769-.946,6.719,6.719,0,0,1-2.609-2.663,8.114,8.114,0,0,1-.946-3.982,8.318,8.318,0,0,1,.919-3.982,6.464,6.464,0,0,1,2.583-2.65,7.693,7.693,0,0,1,3.822-.932,7.481,7.481,0,0,1,3.7.906,6.39,6.39,0,0,1,2.53,2.543,7.659,7.659,0,0,1,.906,3.768A9.44,9.44,0,0,1,746.511,218.82Zm-3.062-2.449a3.455,3.455,0,0,0-1.2-2.69,4.288,4.288,0,0,0-2.9-1.012,3.9,3.9,0,0,0-2.689,1,4.176,4.176,0,0,0-1.332,2.7Z" transform="translate(-542.013 -193.889)" fill="#0869a6"/>
  <path id="Trazado_3069" data-name="Trazado 3069" d="M765.26,210.8a6.421,6.421,0,0,1,3.009-.693,6.656,6.656,0,0,1,5.992,3.6,8.22,8.22,0,0,1,.906,3.915,8.458,8.458,0,0,1-.906,3.955,6.766,6.766,0,0,1-2.49,2.716,6.566,6.566,0,0,1-3.5.973,6.367,6.367,0,0,1-2.982-.68,6.684,6.684,0,0,1-2.131-1.691V232H760.12V210.352h3.036v2.157A6.162,6.162,0,0,1,765.26,210.8ZM771.452,215a4.291,4.291,0,0,0-1.651-1.678,4.429,4.429,0,0,0-2.2-.573,4.314,4.314,0,0,0-2.171.585,4.371,4.371,0,0,0-1.651,1.7,5.311,5.311,0,0,0-.626,2.637,5.383,5.383,0,0,0,.626,2.649,4.329,4.329,0,0,0,3.822,2.3,4.28,4.28,0,0,0,2.2-.6,4.414,4.414,0,0,0,1.651-1.744,5.468,5.468,0,0,0,.626-2.663A5.239,5.239,0,0,0,771.452,215Z" transform="translate(-551.201 -193.889)" fill="#0869a6"/>
  <path id="Trazado_3070" data-name="Trazado 3070" d="M791.925,211.16v8.123a1.558,1.558,0,0,0,.386,1.185,1.918,1.918,0,0,0,1.319.359h1.864v2.53h-2.4a4.615,4.615,0,0,1-3.142-.959,3.949,3.949,0,0,1-1.092-3.115V211.16h-1.731v-2.477h1.731v-3.648h3.063v3.648h3.569v2.477Z" transform="translate(-560.076 -192.221)" fill="#0869a6"/>
  <path id="Trazado_3071" data-name="Trazado 3071" d="M805.7,205.112a1.944,1.944,0,0,1,1.384-3.329,1.852,1.852,0,0,1,1.358.559,1.995,1.995,0,0,1,0,2.77,1.849,1.849,0,0,1-1.358.559A1.881,1.881,0,0,1,805.7,205.112Zm2.876,2.5v14.674h-3.035V207.615Z" transform="translate(-565.993 -191.152)" fill="#0869a6"/>
  <path id="Trazado_3072" data-name="Trazado 3072" d="M823.013,222.426l4.155-11.957h3.222L824.8,225.143h-3.622l-5.566-14.674h3.249Z" transform="translate(-569.434 -194.006)" fill="#0869a6"/>
  <path id="Trazado_3073" data-name="Trazado 3073" d="M845.146,224.32a6.782,6.782,0,0,1-2.637-2.663,8.032,8.032,0,0,1-.96-3.982,7.876,7.876,0,0,1,.986-3.968,6.808,6.808,0,0,1,2.69-2.664,8.247,8.247,0,0,1,7.617,0,6.813,6.813,0,0,1,2.69,2.664,7.883,7.883,0,0,1,.986,3.968,7.715,7.715,0,0,1-1.013,3.968,7.005,7.005,0,0,1-2.755,2.676,7.949,7.949,0,0,1-3.849.946A7.509,7.509,0,0,1,845.146,224.32Zm5.951-2.25a4.268,4.268,0,0,0,1.664-1.678,5.39,5.39,0,0,0,.639-2.717,5.5,5.5,0,0,0-.613-2.7,4.134,4.134,0,0,0-1.624-1.664,4.434,4.434,0,0,0-2.184-.559,4.362,4.362,0,0,0-2.17.559,3.994,3.994,0,0,0-1.585,1.664,5.716,5.716,0,0,0-.586,2.7,5.147,5.147,0,0,0,1.211,3.662,4.005,4.005,0,0,0,3.049,1.292A4.52,4.52,0,0,0,851.1,222.07Z" transform="translate(-577.957 -193.889)" fill="#0869a6"/>
  <path id="Trazado_3074" data-name="Trazado 3074" d="M869.8,230.14a1.944,1.944,0,0,1,1.385-3.329,1.851,1.851,0,0,1,1.358.559,1.994,1.994,0,0,1,0,2.77,1.851,1.851,0,0,1-1.358.559A1.879,1.879,0,0,1,869.8,230.14Z" transform="translate(-587.054 -199.376)" fill="#0869a6"/>
  <path id="Trazado_3075" data-name="Trazado 3075" d="M881.26,213.694a6.541,6.541,0,0,1,2.543-2.65,8.132,8.132,0,0,1,8.136.333,6.236,6.236,0,0,1,2.357,3.609H891.02a3.461,3.461,0,0,0-1.278-1.7,3.78,3.78,0,0,0-2.21-.612,3.675,3.675,0,0,0-2.97,1.319,5.58,5.58,0,0,0-1.1,3.688,5.64,5.64,0,0,0,1.1,3.7,3.661,3.661,0,0,0,2.97,1.331,3.368,3.368,0,0,0,3.489-2.316H894.3a6.556,6.556,0,0,1-2.4,3.555,7.077,7.077,0,0,1-4.367,1.319,7.274,7.274,0,0,1-3.729-.946,6.62,6.62,0,0,1-2.543-2.663,9.089,9.089,0,0,1,0-7.963Z" transform="translate(-590.703 -193.889)" fill="#0869a6"/>
  <path id="Trazado_3076" data-name="Trazado 3076" d="M910.665,202.973V222.68h-3.036V202.973Z" transform="translate(-599.669 -191.543)" fill="#0869a6"/>
  <g id="Grupo_147" data-name="Grupo 147" transform="translate(0)">
    <path id="Trazado_3077" data-name="Trazado 3077" d="M450.251,222.5a2.1,2.1,0,0,0-1.289.436,22.573,22.573,0,0,0,.517,3.646,2.114,2.114,0,1,0,.772-4.082Z" transform="translate(-448.962 -197.959)" fill="url(#radial-gradient)"/>
    <path id="Trazado_3078" data-name="Trazado 3078" d="M450.251,213.06a2.107,2.107,0,0,0-.772.148,22.573,22.573,0,0,0-.517,3.646,2.116,2.116,0,1,0,1.289-3.794Z" transform="translate(-448.962 -194.858)" fill="url(#radial-gradient-2)"/>
    <path id="Trazado_3079" data-name="Trazado 3079" d="M459.288,226.73a2.106,2.106,0,0,0,1.886-1.162,14.06,14.06,0,0,1-.516-2.565,2.115,2.115,0,1,0-1.37,3.726Z" transform="translate(-451.66 -197.959)" fill="url(#radial-gradient-3)"/>
    <path id="Trazado_3080" data-name="Trazado 3080" d="M468.737,241.39a2.115,2.115,0,1,0,2.115,2.115A2.115,2.115,0,0,0,468.737,241.39Z" transform="translate(-454.765 -204.166)" fill="url(#radial-gradient-4)"/>
    <path id="Trazado_3081" data-name="Trazado 3081" d="M468.737,236.909a2.082,2.082,0,0,0,.618-.094,14.063,14.063,0,0,1-2.639-2.645,2.162,2.162,0,0,0-.094.624A2.115,2.115,0,0,0,468.737,236.909Z" transform="translate(-454.765 -201.794)" fill="url(#radial-gradient-5)"/>
    <path id="Trazado_3082" data-name="Trazado 3082" d="M467.442,189.228a2.119,2.119,0,0,0,3.679-1.43,1.078,1.078,0,0,0-.007-.148A23.459,23.459,0,0,0,467.442,189.228Z" transform="translate(-455.034 -186.509)" fill="url(#radial-gradient-6)"/>
    <path id="Trazado_3083" data-name="Trazado 3083" d="M450.662,208.1a1.082,1.082,0,0,0,.148.007,2.119,2.119,0,0,0,1.43-3.679A23.458,23.458,0,0,0,450.662,208.1Z" transform="translate(-449.521 -192.022)" fill="url(#radial-gradient-7)"/>
    <path id="Trazado_3084" data-name="Trazado 3084" d="M459.288,217.29a2.1,2.1,0,0,0,1.37-.5,14.06,14.06,0,0,1,.516-2.565,2.115,2.115,0,1,0-1.886,3.068Z" transform="translate(-451.66 -194.858)" fill="url(#radial-gradient-8)"/>
    <path id="Trazado_3085" data-name="Trazado 3085" d="M459.288,203.61a2.115,2.115,0,1,0,2.114,2.115A2.115,2.115,0,0,0,459.288,203.61Z" transform="translate(-451.66 -191.753)" fill="url(#radial-gradient-9)"/>
    <path id="Trazado_3086" data-name="Trazado 3086" d="M459.288,231.95a2.115,2.115,0,1,0,2.114,2.115A2.115,2.115,0,0,0,459.288,231.95Z" transform="translate(-451.66 -201.064)" fill="url(#radial-gradient-10)"/>
    <path id="Trazado_3087" data-name="Trazado 3087" d="M450.81,231.95a1.085,1.085,0,0,0-.148.007,23.457,23.457,0,0,0,1.578,3.673,2.119,2.119,0,0,0-1.43-3.679Z" transform="translate(-449.521 -201.064)" fill="url(#radial-gradient-11)"/>
    <path id="Trazado_3088" data-name="Trazado 3088" d="M469.355,203.7a2.082,2.082,0,0,0-.618-.094,2.115,2.115,0,0,0-2.115,2.115,2.162,2.162,0,0,0,.094.624A14.064,14.064,0,0,1,469.355,203.7Z" transform="translate(-454.765 -191.753)" fill="url(#radial-gradient-12)"/>
    <path id="Trazado_3089" data-name="Trazado 3089" d="M468.737,194.17a2.115,2.115,0,1,0,2.115,2.115A2.115,2.115,0,0,0,468.737,194.17Z" transform="translate(-454.765 -188.651)" fill="url(#radial-gradient-13)"/>
    <path id="Trazado_3090" data-name="Trazado 3090" d="M469.007,250.84a2.119,2.119,0,0,0-1.564.685,23.454,23.454,0,0,0,3.673,1.578,1.078,1.078,0,0,0,.007-.148A2.115,2.115,0,0,0,469.007,250.84Z" transform="translate(-455.034 -207.271)" fill="url(#radial-gradient-14)"/>
    <path id="Trazado_3091" data-name="Trazado 3091" d="M459.887,194.28a25.119,25.119,0,0,0-2.605,2.605,2.117,2.117,0,1,0,2.605-2.605Z" transform="translate(-451.696 -188.687)" fill="url(#radial-gradient-15)"/>
    <path id="Trazado_3092" data-name="Trazado 3092" d="M459.324,241.39a2.122,2.122,0,0,0-2.042,1.551,25.12,25.12,0,0,0,2.605,2.605,2.117,2.117,0,0,0-.563-4.156Z" transform="translate(-451.696 -204.166)" fill="url(#radial-gradient-16)"/>
    <path id="Trazado_3093" data-name="Trazado 3093" d="M477.217,241.74a2.112,2.112,0,1,0,2.578.517A14.273,14.273,0,0,1,477.217,241.74Z" transform="translate(-457.866 -204.281)" fill="url(#radial-gradient-17)"/>
    <path id="Trazado_3094" data-name="Trazado 3094" d="M497.067,241.39a2.115,2.115,0,1,0,2.115,2.115A2.115,2.115,0,0,0,497.067,241.39Z" transform="translate(-464.073 -204.166)" fill="url(#radial-gradient-18)"/>
    <path id="Trazado_3095" data-name="Trazado 3095" d="M506.518,241.39a2.117,2.117,0,0,0-.565,4.156,25.126,25.126,0,0,0,2.605-2.605A2.121,2.121,0,0,0,506.518,241.39Z" transform="translate(-467.179 -204.166)" fill="url(#radial-gradient-19)"/>
    <path id="Trazado_3096" data-name="Trazado 3096" d="M478.177,194.17a2.112,2.112,0,0,0-.96,3.995,14.273,14.273,0,0,1,2.578-.517,2.086,2.086,0,0,0,.5-1.363A2.115,2.115,0,0,0,478.177,194.17Z" transform="translate(-457.866 -188.651)" fill="url(#radial-gradient-20)"/>
    <path id="Trazado_3097" data-name="Trazado 3097" d="M476.21,186.467a2.114,2.114,0,1,0,3.646-.517A24.094,24.094,0,0,0,476.21,186.467Z" transform="translate(-457.866 -185.95)" fill="url(#radial-gradient-21)"/>
    <path id="Trazado_3098" data-name="Trazado 3098" d="M488.587,241.74a14.249,14.249,0,0,1-2.578.517,2.086,2.086,0,0,0-.5,1.363,2.115,2.115,0,1,0,3.075-1.88Z" transform="translate(-460.971 -204.281)" fill="url(#radial-gradient-22)"/>
    <path id="Trazado_3099" data-name="Trazado 3099" d="M497.067,194.17a2.115,2.115,0,1,0,2.115,2.115A2.115,2.115,0,0,0,497.067,194.17Z" transform="translate(-464.073 -188.651)" fill="url(#radial-gradient-23)"/>
    <path id="Trazado_3100" data-name="Trazado 3100" d="M497.8,203.61a2.085,2.085,0,0,0-.618.094,14.089,14.089,0,0,1,2.639,2.645,2.187,2.187,0,0,0,.093-.624A2.115,2.115,0,0,0,497.8,203.61Z" transform="translate(-464.806 -191.753)" fill="url(#radial-gradient-24)"/>
    <path id="Trazado_3101" data-name="Trazado 3101" d="M494.952,252.955a1.1,1.1,0,0,0,.007.148,23.425,23.425,0,0,0,3.673-1.578,2.119,2.119,0,0,0-3.679,1.43Z" transform="translate(-464.073 -207.271)" fill="url(#radial-gradient-25)"/>
    <path id="Trazado_3102" data-name="Trazado 3102" d="M497.067,189.913a2.119,2.119,0,0,0,1.564-.685,23.431,23.431,0,0,0-3.673-1.578,1.1,1.1,0,0,0-.007.148A2.115,2.115,0,0,0,497.067,189.913Z" transform="translate(-464.073 -186.509)" fill="url(#radial-gradient-26)"/>
    <path id="Trazado_3103" data-name="Trazado 3103" d="M487.627,194.17a2.115,2.115,0,0,0-2.115,2.115,2.086,2.086,0,0,0,.5,1.363,14.249,14.249,0,0,1,2.578.517,2.112,2.112,0,0,0-.96-3.995Z" transform="translate(-460.971 -188.651)" fill="url(#radial-gradient-27)"/>
    <path id="Trazado_3104" data-name="Trazado 3104" d="M515.96,217.29a2.1,2.1,0,0,0,1.289-.436,22.434,22.434,0,0,0-.517-3.646,2.135,2.135,0,0,0-.772-.148,2.115,2.115,0,0,0,0,4.23Z" transform="translate(-470.283 -194.858)" fill="url(#radial-gradient-28)"/>
    <path id="Trazado_3105" data-name="Trazado 3105" d="M515.96,208.113a1.086,1.086,0,0,0,.148-.007,23.3,23.3,0,0,0-1.571-3.666,2.115,2.115,0,0,0,1.423,3.673Z" transform="translate(-470.283 -192.025)" fill="url(#radial-gradient-29)"/>
    <path id="Trazado_3106" data-name="Trazado 3106" d="M485.948,185.95a2.117,2.117,0,1,0,3.646.517A23.961,23.961,0,0,0,485.948,185.95Z" transform="translate(-460.971 -185.95)" fill="url(#radial-gradient-30)"/>
    <path id="Trazado_3107" data-name="Trazado 3107" d="M506.629,213.06a2.109,2.109,0,0,0-1.887,1.162,14.055,14.055,0,0,1,.517,2.565,2.115,2.115,0,1,0,1.37-3.726Z" transform="translate(-467.29 -194.858)" fill="url(#radial-gradient-31)"/>
    <path id="Trazado_3108" data-name="Trazado 3108" d="M497.182,236.815a2.085,2.085,0,0,0,.618.094,2.115,2.115,0,0,0,2.115-2.115,2.187,2.187,0,0,0-.093-.624A14.088,14.088,0,0,1,497.182,236.815Z" transform="translate(-464.806 -201.794)" fill="url(#radial-gradient-32)"/>
    <path id="Trazado_3109" data-name="Trazado 3109" d="M478.177,250.84a2.111,2.111,0,0,0-1.967,2.887,24.1,24.1,0,0,0,3.646.517,2.116,2.116,0,0,0-1.679-3.4Z" transform="translate(-457.866 -207.271)" fill="url(#radial-gradient-33)"/>
    <path id="Trazado_3110" data-name="Trazado 3110" d="M506.629,222.5a2.1,2.1,0,0,0-1.37.5,14.055,14.055,0,0,1-.517,2.565,2.115,2.115,0,1,0,1.887-3.068Z" transform="translate(-467.29 -197.959)" fill="url(#radial-gradient-34)"/>
    <path id="Trazado_3111" data-name="Trazado 3111" d="M513.852,234.065a2.093,2.093,0,0,0,.685,1.558,23.3,23.3,0,0,0,1.571-3.666,1.086,1.086,0,0,0-.148-.007A2.113,2.113,0,0,0,513.852,234.065Z" transform="translate(-470.283 -201.064)" fill="url(#radial-gradient-35)"/>
    <path id="Trazado_3112" data-name="Trazado 3112" d="M513.852,224.615a2.113,2.113,0,0,0,2.108,2.115,2.135,2.135,0,0,0,.772-.148,22.434,22.434,0,0,0,.517-3.646,2.112,2.112,0,0,0-3.4,1.679Z" transform="translate(-470.283 -197.959)" fill="url(#radial-gradient-36)"/>
    <path id="Trazado_3113" data-name="Trazado 3113" d="M506.518,198.436a2.121,2.121,0,0,0,2.04-1.551,25.124,25.124,0,0,0-2.605-2.605,2.117,2.117,0,0,0,.565,4.156Z" transform="translate(-467.179 -188.687)" fill="url(#radial-gradient-37)"/>
    <path id="Trazado_3114" data-name="Trazado 3114" d="M506.518,231.95a2.115,2.115,0,1,0,2.114,2.115A2.114,2.114,0,0,0,506.518,231.95Z" transform="translate(-467.179 -201.064)" fill="url(#radial-gradient-38)"/>
    <path id="Trazado_3115" data-name="Trazado 3115" d="M506.518,203.61a2.115,2.115,0,1,0,2.114,2.115A2.114,2.114,0,0,0,506.518,203.61Z" transform="translate(-467.179 -191.753)" fill="url(#radial-gradient-39)"/>
    <path id="Trazado_3116" data-name="Trazado 3116" d="M487.627,250.84a2.117,2.117,0,0,0-1.679,3.4,23.963,23.963,0,0,0,3.646-.517,2.111,2.111,0,0,0-1.967-2.887Z" transform="translate(-460.971 -207.271)" fill="url(#radial-gradient-40)"/>
  </g>
</svg>
