<svg xmlns="http://www.w3.org/2000/svg" width="557.643" height="563.446" viewBox="0 0 557.643 563.446">
  <g id="Grupo_976" data-name="Grupo 976" transform="translate(-140.914 -18.028)">
    <g id="Provincia_Santiago" data-name="Provincia Santiago" transform="translate(353.35 107.019)">
      <path id="Cerrillos" d="M305.3,207.057l-.924,5.056-2.871.07-.07,6.619c-.545-.126-1.091.8-1.635,2.527l-2.082,5.352H305.3l2.379,1.932-3.831,5.708,9.027,4.009.165-4.7,8.641-23.269-.156-1.708-11.767,3.025Z" transform="translate(-201.887 -2.078)" fill="#edf8fe" stroke="#009be8" stroke-width="0.5"/>
      <path id="Estacion_Central" data-name="Estacion Central" d="M300.018,203.087l.25,7.092-.653-.047.093,1.075,4.531,1.4,4.436,4.624,11.957-3.082,5.512.093-.14-3.082-2.9.187c.621-1.8.342-7.193.513-10.79l-.7-.187V197.1l-5.6.28v1.775l-6.354.383.327,4.764c-2.7,1.13-3.384.674-4.434.5Z" transform="translate(-200.835 -7.612)" fill="#edf8fe" stroke="#009be8" stroke-width="0.5"/>
      <path id="Lo_Prado" data-name="Lo Prado" d="M297.063,194.712l-.076,5.089.912.208-.028,3.736,10.315,2.454a5.822,5.822,0,0,0,4.573-.475l-.331-4.767-.2-5.548-6.58-.669-.2,1.284-3.233-1.478Z" transform="translate(-202.296 -9.032)" fill="#edf8fe" stroke="#009be8" stroke-width="0.5"/>
      <path id="Cerro_Navia" data-name="Cerro Navia" d="M284.9,189.422l.051-1.8,4.538.037.149.563,1.649.037,2.55-1.276,4.013-.037h10.612l1.125.45,1.651-1.049h1.011l2.212,1.687-2.324,12.562-3.216-1.458-5.139.165.045-3.3-1.058.118-3.057-.118-1.528-.7-3.176-.118-2-.7-.823-1.176-.471,1.176-2-.471-1.41-1.058-1.058-1.293-.823-1.293-.118-.7Z" transform="translate(-209.014 -13.59)" fill="#edf8fe" stroke="#009be8" stroke-width="0.5"/>
      <path id="Santiago" d="M316.255,218.708l4.353.156v-1.4h-.934l14.149.311,7.386-3.42-5.365-18.969-15.994-4.4.135,1.061c-1.45-.034-3.907-2.136-4.042.621l.389,5.053-5.365.311.037,2.757,5.6-.282v3.27l.7.187c-.171,3.6.107,8.993-.515,10.788l2.9-.187.054,3.082-3.4-.016" transform="translate(-194.525 -11.014)" fill="#edf8fe" stroke="#009be8" stroke-width="0.5"/>
      <path id="Renca" d="M297.765,178.472l-1.478-1.025-11.169,11.641-.184,4.429,4.538.037.149.563,1.649.037,2.55-1.276,4.013-.037h10.612l1.125.45,1.651-1.049h1.011l0-.873,1.22.059,2.348-1.307h4.16l3.328,2.5,2.259,2.348,2.942,1.872,5.825,2.615.03-.772-3.3-3.536-.653-6.657-.655-1.368-4.011-7.252-1.606-4.131-.565.951h-.445l-.179-.714-2.169,1.07-1.368.03-2.942,3.834-1.13.03-.891-.445-2.2,1.545h-1.813l-.059-.445-1.13-.059-.093.471-1.036-.056-.089-.238-1.011-.03-.237.356-1.011-.059-.327.506-1.606-1.814-.772-.03-.387-.445-.356.475H299.9l-1.041-1.1-.03-1.07Z" transform="translate(-208.995 -19.487)" fill="#edf8fe" stroke="#009be8" stroke-width="0.5"/>
      <path id="Quinta_Normal" data-name="Quinta Normal" d="M324.7,195.376l-.135-1.061-5.825-2.615-2.942-1.872-2.259-2.348-3.33-2.5h-4.16L303.7,186.29l-1.218-.059,0,.871,2.212,1.688-2.1,11.266,6.58.669.2,5.548,6.349-.381v-1.774l-.037-2.757,5.365-.311L320.661,196C320.8,193.24,323.253,195.343,324.7,195.376Z" transform="translate(-199.242 -14.348)" fill="#edf8fe" stroke="#009be8" stroke-width="0.5"/>
      <path id="Recoleta" d="M330.718,204.874l-7.048-1.951.638-7.3-1.45-.058.059-5.914h-1.044l-1.1-.811.117-1.914-.7-.753.532-.288-.058-9.452-.229-.056V175l.286-.058.173-1.032,8.271,3.941L341.933,187.9l-.034,1.963-3.288,2.152-.538,1.375-2.928,3.048h-1.254l-1.794,1.315-.358,2.39-1.375,2.629h.419Z" transform="translate(-189.397 -20.502)" fill="#edf8fe" stroke="#009be8" stroke-width="0.5"/>
      <path id="Independencia" d="M317.173,182.354l-3.438,1.444.653,1.368.653,6.656,3.3,3.536-.03.773,8.948,2.454.638-7.3-1.45-.058.059-5.914h-1.044l-1.1-.811.115-1.914-.7-.753-3.941-.117Z" transform="translate(-192.987 -16.164)" fill="#edf8fe" stroke="#009be8" stroke-width="0.5"/>
      <path id="Conchali" d="M326.834,188.154l.532-.288-.058-9.452-.229-.056v-1.375l.286-.058.173-1.032L315.8,170.739l-2.513-.4-5.038.042v.909l2.925,7.44,1.6,4.132,4.013,7.252,3.438-1.444,2.667-.638Z" transform="translate(-196.038 -22.485)" fill="#edf8fe" stroke="#009be8" stroke-width="0.5"/>
      <path id="El_Bosque" data-name="El Bosque" d="M315.9,229.642l8.216,3.407,6.144.962-4.2,19.957-5.212-1.069-11.9-5.08,2.405-4.944V238.2l1.338.535Z" transform="translate(-195.646 10.475)" fill="#edf8fe" stroke="#009be8" stroke-width="0.5"/>
      <path id="La_Cisterna" data-name="La Cisterna" d="M327.777,239.564l-6.144-.962-8.216-3.407,6.144-15.543,12.059,3.4Z" transform="translate(-193.163 4.923)" fill="#edf8fe" stroke="#009be8" stroke-width="0.5"/>
      <path id="Lo_Espejo" data-name="Lo Espejo" d="M307.616,228.295l-.126,4.552,9.221,4.011,6.144-15.543-10.919-4.655Z" transform="translate(-196.458 3.259)" fill="#edf8fe" stroke="#009be8" stroke-width="0.5"/>
      <path id="Pedro_Aguirre_Cerda" data-name="Pedro Aguirre Cerda" d="M320.953,208l7.261.184-6.948,17.942-10.917-4.655,4.321-11.635-.157-1.708,2.175.039-.087,1.078,4.353.156V208Z" transform="translate(-194.869 -1.553)" fill="#edf8fe" stroke="#009be8" stroke-width="0.5"/>
      <path id="San_Miguel" data-name="San Miguel" d="M317.365,226.062l6.948-17.942,5.948.128,2.405,21.553-1.951.025Z" transform="translate(-190.969 -1.487)" fill="#edf8fe" stroke="#009be8" stroke-width="0.5"/>
      <path id="San_Ramon" data-name="San Ramon" d="M330.012,222.177l-1.951.025-1.29-.367-3.843,16.515-.787,3.737,10.768,1.293Z" transform="translate(-188.314 6.136)" fill="#edf8fe" stroke="#009be8" stroke-width="0.5"/>
      <path id="La_Granja" data-name="La Granja" d="M327.2,223.106l2.892,21.211,1.679.2,6.449-1.627-1.19-4.946h1.878l-.563-17.779h-2.379l-4.627,2.671Z" transform="translate(-185.502 5.208)" fill="#edf8fe" stroke="#009be8" stroke-width="0.5"/>
      <path id="San_Joaquin" data-name="San Joaquin" d="M328.057,230.977l-2.4-21.553,7.386-3.42.818,2.265.982,4.6,1.659,4.173,1.534,8.593,1.1,1.1.061,1.293h-2.379l-4.627,2.671Z" transform="translate(-186.359 -2.664)" fill="#edf8fe" stroke="#009be8" stroke-width="0.5"/>
      <path id="La_Pintana" data-name="La Pintana" d="M343.28,234.771l-6.447,1.627-12.44-1.5-3.417,16.216-2.88,11.74,11.479,1.053-.888,6.29h1.081l-.361,2.928H336.9l.84-4.224V261.15l8.786-1.68-.311-2.713L346,251.5l-1.2-1.632-.5-7.2h-.456l-.72-4.633h1.13Z" transform="translate(-190.563 13.326)" fill="#edf8fe" stroke="#009be8" stroke-width="0.5"/>
      <path id="Providencia" d="M337.086,184.683l-2.108,1.344-.538,1.375-2.928,3.048h-1.254l-1.794,1.315-.358,2.39-1.375,2.629h.419l-.064,2.1,2.264,7.992,5.612-1.783.125.683.993.062,3.165-1.676,4.9-.434,2.234,1.551,4.554-7.7-1.078-1.17-7.757-6.95-2.668-.993,1.3-3.725Z" transform="translate(-185.763 -14.515)" fill="#edf8fe" stroke="#009be8" stroke-width="0.5"/>
      <path id="Nunoa" d="M328.412,202.272l5.613-1.783.123.683.994.062,3.165-1.676,4.9-.434,2.234,1.551,4.54-7.7,3.809,2.424,1.318,6.874-.515,4.3-1.777,5.556-4.009,2.463-8.993-.058-7.5.974-.8-2.256Z" transform="translate(-184.829 -9.908)" fill="#edf8fe" stroke="#009be8" stroke-width="0.5"/>
      <path id="La_Reina" data-name="La Reina" d="M342.666,193.9l3.809,2.426,1.318,6.874-.517,4.3,3.994,1.691,6.818.232,3.894-.185,3.524,1.3.835-3.245,18.966,1.159.093-1.206-1.159-2.18-1.716-1.251-.51-.7L380.762,202l.093-2.318-5.425-4.776-3.8-.834-3.014-1.438-6.354.881-.232-2.226-8.9,1.159-11.547.232Z" transform="translate(-177.51 -10.842)" fill="#edf8fe" stroke="#009be8" stroke-width="0.5"/>
      <path id="Macul" d="M335.113,226.041l-1.534-8.591-1.659-4.174-1-4.615,7.5-.974,8.993.058,4.009-2.464L349.7,215.941l-3.792,7.448v3.152Z" transform="translate(-183.436 -3.066)" fill="#edf8fe" stroke="#009be8" stroke-width="0.5"/>
      <path id="Penalolen" d="M385.878,202.733l-18.966-1.159-.835,3.245-3.524-1.3-3.894.185-6.818-.232-3.994-1.691-1.775,5.556L344.342,218l-3.792,7.448.023,3.151,13.211,1.038,9.022.191,1.624-.524,1.193-1.193h2.147l.722-1.2.853.095,4.076-3.6,3.886-.095,1.422-1.232,2.37-.095v-1.232l4.266,1.99,2.559.285,3.886-3.317h3.127l1.517-1.232,1.422-.19,3.886,1.705,2.464-.095,3.319-1.8,2.18.095-.095-1.8-.664-1.61-3.222-.38-1.042-.853-1.612-.095-2.275-2.844h-.854l-.948-.854-4.929-.188-2.276-1.612-.188-1.327-2.086-2.275Z" transform="translate(-178.082 -5.126)" fill="#edf8fe" stroke="#009be8" stroke-width="0.5"/>
      <path id="Las_Condes" data-name="Las Condes" d="M412.114,232.591l-3.222-.38-1.042-.853-1.612-.095-2.275-2.844h-.854l-.948-.853-4.929-.19-2.276-1.612-.188-1.327-2.086-2.275-3.658-1.62.092-1.206-1.158-2.18-1.716-1.252-.51-.7-1.252-1.112.093-2.318L379.147,207l-3.8-.836-3.015-1.438-6.352.882-.232-2.226-8.9,1.159-11.537.258-7.745-6.925-2.67-.993,1.3-3.723,30.395-13,3.014-3.684,7.031-3.348,3.935-.419,2.6-1.674,1.506.084,1.842-1.59,4.017.585h2.93v2.429l-1.925,1.338-.837,2.345v.921l2.009,2.511.669,1.422-.167,1.842,1.005.5.5-.084,3.431,2.177,5.859,1.172,1.005,1.508-.166,7.7.5.419v1.674L409.7,201l3.851.5,1.59,6.278-.419,2.009,1.674,3.264.42,6.2-2.513,2.093-.837,2.261,1.173,1.674-.335,4.6h-.755Z" transform="translate(-181.227 -22.937)" fill="#edf8fe" stroke="#009be8" stroke-width="0.5"/>
      <path id="Vitacura" d="M334.71,189.118c-.235,1.134.039,2.345-.11,3.482l-.034,1.963-1.179.807,3.645.059,30.393-13,3.014-3.683,4.548-2.2-1.19-1.392-8.943.624-2.7-1.87-3.4-3.258-2.219-1.179H353.9l-.415-.485-.971-.138-.624-.971-1.248.14-.969.762-1.1-2.155-2.155-1.168-.762,1.663-.971.554-2.773.208-2.01,2.287-1.733,1.8,1.595,1.318-.279,4.02-.969.9.068,2.427.061.087-1.486.675-.067,1.35.742,1.147-.067,1.757L336.152,187Z" transform="translate(-182.064 -25.203)" fill="#edf8fe" stroke="#009be8" stroke-width="0.5"/>
      <path id="La_Florida" data-name="La Florida" d="M411.456,212.194l-3.319,1.8-2.464.095-3.886-1.705-1.422.19-1.517,1.232H395.72l-3.886,3.317-2.559-.285-4.266-1.99v1.232l-2.37.095-1.422,1.232-3.886.095-4.076,3.6-.853-.095-.722,1.2h-2.147l-1.193,1.193-1.624.524-9.022-.191L344.48,222.7l-10.813-.5,1.1,1.106.061,1.291.563,17.779h-1.878l1.19,4.946.963,3.259h-1.128l.72,4.633h.456l4.622-1.634,3.129,1.377,4.008-.5-.126-2.254,12.269-2.379-4.758-7.135,6.76.124,2.5,2.379,1.68-1.788a8.387,8.387,0,0,1,4.277-2.015c.688-.138.7-1.207,1.126-1.315a6.679,6.679,0,0,1,1.69-.188c.814,0,.607-.313,1.379-.313.747,0,1.053.4,1.627.5a15.051,15.051,0,0,0,2.317.25c.52,0,1.844-.223,2.253.188.205.205.714.7,1.19.563.663-.19,1.319-.205,2-.377.219-.054,1.084-.359,1-.688,1.022-.4,2.62,0,3.944-.126a1.91,1.91,0,0,0,1.377-.5c.5-.737.87-1.5,1.441-2.191.913-.643,1.732-.812,2.317-1.816a4.941,4.941,0,0,0,.625-2.692,4.17,4.17,0,0,1,2.191-1.252c1.438.045,1.9.089,1.753-1.189.261-1.044.4-2.1.751-3.13a1.855,1.855,0,0,1,2-1.5,1.688,1.688,0,0,0,.938-.563,7.568,7.568,0,0,1,.062-2.191,10.175,10.175,0,0,0,2.944-.878,2.216,2.216,0,0,0,1.439-1.252c.241-.6,1.431-.313,2.066-.313,1.145-.176,1.624-1.089,2.317-1.878a5.067,5.067,0,0,0,2.191-1.377c1.391-.974.219-2.83.59-4.892Z" transform="translate(-181.99 0.777)" fill="#edf8fe" stroke="#009be8" stroke-width="0.5"/>
      <path id="Huechuraba" d="M353.72,163.376c.154.205,2.384,3.513,2.665,3.513a2.973,2.973,0,0,1,2.058.484,3.842,3.842,0,0,1,.834,1.862l-.762,1.663-.971.554-2.773.208-2.01,2.287-1.733,1.8,1.595,1.318-.279,4.02-.969.9.068,2.427.061.087-1.486.675-.067,1.35.742,1.147-.067,1.757-1.621,1.35-1.442,2.117c-.235,1.134.039,2.345-.11,3.482l-12.764-10.048-8.271-3.941-11.743-5.154-2.513-.4-1.9-5.366v-2.189l.661-.454-.042-1.2.949-.289c1.99-5.557,2.186-2.684,3.8-4.541.086-.692-.061-1.218-.744-1.363v-1.981a5.606,5.606,0,0,0,2.38.159,1.685,1.685,0,0,1,1.575.848,3.275,3.275,0,0,1,2.542-1.817,4.638,4.638,0,0,1,1.455,1.091c.546.548,1.618-.568,1.937-.727,1.462-.126,1.879,1.618,3.27,2.3.809.694.758,1.7,1.453,2.422.464.45.07,1.319-.121,1.937,1.246.624.442.991,1.937.243a1.609,1.609,0,0,1,1.817.484c.876,1.168.619.471,1.211-.12.638-.7,1.277-1.388,1.938-2.06.344-.344.482,1.091.969,1.091h2.422c.786.106,1.263,1.148,3.874.605.773-.193,1.008-1.243,2.06-1.453,1.634-.131,2.8.471,3.633-1.091C349.843,163.844,351.044,164.507,353.72,163.376Z" transform="translate(-194.917 -28.984)" fill="#edf8fe" stroke="#009be8" stroke-width="0.5"/>
      <path id="Quilicura" d="M286.261,177.2l7.291,6.938,2.234,2.587,3.762,2.821,1.478,1.025,1.069.03.031,1.07,1.039,1.1h2.408l.356-.475.386.445.773.03,1.6,1.814.327-.506,1.011.059.238-.356,1.01.03.09.238,1.036.056.092-.471,1.13.059.061.445H315.5l2.2-1.545.893.445,1.128-.03,2.942-3.834,1.368-.03,2.17-1.07.177.714h.446l.565-.951-2.925-7.442v-.909l5.038-.042-1.9-5.366V171.89l.661-.454-.042-1.2.949-.289c1.99-5.557,2.186-2.684,3.8-4.542.086-.692-.061-1.218-.744-1.363V160H330.45l-.7-1.445c-.064-.622.294-.5.66-.372l.289,1.033c-.18-1.017,1.025-2.58-2.519-2.272-.812-.711-.661-1.973-2.849-1.9l-1.031.621-1.445-.124L321,153.971l-3.014.082-.7,3.8-2.37.657L283.4,167.247l-.986-1.36-3-.154c-.865,1.028.056,3.4.769,5.61Z" transform="translate(-212.257 -31.586)" fill="#edf8fe" stroke="#009be8" stroke-width="0.5"/>
      <path id="Pudahuel" d="M252.13,240.108c6.217-1.523,2.177-3.169,6.824-2.919,3.746-.493,1.543-3.241,5.407-2.917,2.326.692,4.834,3.085,6.738-.129.157,1.775,3.634-1.005,7.166-.044.58,1.013,3.039-.663,4.335.044,2.03.73,2.438-.325,2.189-2.1,5.282-7.946,3.868-3.129,11.543-5.021,3.574.1,2.424-.949,3.342-1.03,1-.089,1.214-.7,1.34-1.358.934-.823,2.791.8,5.355.565l.353-1.646c2.2.594,5.293.386,6.231,2.118,1.532-.859,3.315-1.559,2.939-3.645,1.655.114,4.072-1.21,4.587,1.058l.352,2.469,11.848,2.488-.156,1.945,2.435-2.057.605.025-.2-7.067-3.645-.842.023-3.712-.918-.185.117-8.349-1.058.118-3.057-.118-1.528-.7-3.174-.118-2-.706-.823-1.175-.471,1.175-2-.47-1.411-1.058-1.058-1.293-.823-1.293-.118-.706-1.41-.235.235-6.231,11.169-11.641-3.762-2.821-2.234-2.587-7.291-6.937-6.076-5.856c-2.038,3.672-4.045,8.135-6.225,8.282-4.475.166-3.731,7.728-11.459,13.572-4.2-4.361-1.276-.741-7.288-4.784-6.657-3.4-10.217,2.345-17.8-.389l-4.552-2.944c-5.316.425-7.077,5.9-9.133,4.448-1.655-1.774-.739.644-7.622,3.188-.7.26-.562,1.218-1.322,1.687.779,7.135-4.468,5.494-.236,9.464-1.739,3.532,1.786,5.427.8,11.358-.338,5.666-3.412,5.131-2.412,6.956a3.493,3.493,0,0,1-.2,3.746c-1.606,1.9,1.215,2.482,2.091,4.109l.238,4.874c1.344,2.617,1,5.582,9.511,6.152C249.012,236.986,250.754,238.442,252.13,240.108Z" transform="translate(-236.125 -25.379)" fill="#edf8fe" stroke="#009be8" stroke-width="0.5"/>
      <path id="Maipu" d="M330.6,207.684l-2.412,2.076.156-1.945-11.848-2.488-.352-2.469c-.515-2.268-2.931-.944-4.587-1.058.376,2.086-1.407,2.787-2.939,3.645-.938-1.732-4.031-1.523-6.231-2.118l-.353,1.646c-2.564.237-4.422-1.388-5.355-.565-.126.658-.339,1.27-1.34,1.358-.918.081.232,1.131-3.342,1.03-7.675,1.892-6.261-2.925-11.543,5.021.249,1.778-.159,2.833-2.189,2.1-1.3-.706-3.754.969-4.335-.044-3.532-.962-7.009,1.819-7.166.044-1.9,3.214-4.412.822-6.738.129-3.863-.324-1.66,2.424-5.407,2.917-4.647-.25-.607,1.4-6.824,2.919.588.655.219,1.134.03,1.19-.059.039-1.464.9-1.539,1.836a4.234,4.234,0,0,1-.652,2.191,4.924,4.924,0,0,0-1.3,2.015c-.182.955-.737,1.937-.118,2.783a5.972,5.972,0,0,1,2.013.711A4.513,4.513,0,0,1,248,232.271c1.3-.4,3.028-1.408,4.678-1.363,1.708.233,3.217.565,4.324,2.013.191,1.615.649,2.615,2.547,2.785.356.089,1.266.4,1.422.711a3.679,3.679,0,0,0,1.421,1.777c.744.363,1.092.7,1.007,1.6-.061.825.019,1.164.888,1.422.448-.112.663-.431,1.067-.534a3.137,3.137,0,0,1,2.131.061c.848.585,1.562,1.308,2.37,1.954,1.716.905,3.508-.86,4.916-1.836,2.015,1.119,3.27,3.536,5.8,3.554,2.069-.632,3.437-1.4,5.687-.711.916-.056,1.774-.288,2.665-.414a29.982,29.982,0,0,1,4.087,1.125c2.749.067,2.788-5.337,5.449-3.792a3.135,3.135,0,0,1,1.363,3.2,2.619,2.619,0,0,1-2.013.475,2.1,2.1,0,0,0-1.186,1.6c.16.7.261.909-.414,1.243a2.6,2.6,0,0,1-1.6.9l7.617,6.947,6.811,6.592,7.434,1.487,21.11-31.369-2.379-1.932h-7.582l2.082-5.352c.545-1.732,1.089-2.653,1.635-2.527l.068-6.619,2.872-.07.924-5.056-4.537-1.484Z" transform="translate(-231.789 -5.157)" fill="#edf8fe" stroke="#009be8" stroke-width="0.5"/>
      <path id="Lo_Barnechea" data-name="Lo Barnechea" d="M437.458,81.073c-.879,4.535-.582,10.517-6.2,9.223-.638,1.237.574,4.322-2.45,3.171-.657,2.5-1.881,1.585-2.881,2.018-1.641,1.9-4.552,1.889-7.715,1.5-1.137,2.413-9.435,4.12-10.267,11.952-1.6.658-2.422.04-4.173,4.493-.109,1.35.871,4.518-.4,3.93-2.5,1.3-3.41,2.231-3.129,2.888-.72,2.387-1.489,4.626-3.048,4.493,1.3,13.253-3.575,6.337-2.808,11.631,1.178,2.256,2.057,4.767-2.429,11.851-5.108-2.047-11.49,1.785-17.744.89-.635,2.933-.19,7.162-3.357,7.056-1.819,3.806-3.515.923-6.3,3.563a4.445,4.445,0,0,0-5.274.548H355.24c-1.073,1.873-2.443,3.672-2.124,5.892-2.724.826-.328,2.457-4.521,7.673,1.452,3.846,1.22,9.789-2.069,11.292-2.849,1.3-3.273,2.356-5.878,4.121,1.553,8.011-8.58,1.663-3.837,8.769v4.247c2.08,4.982,4.557,4.523,2.861,7.423.154.205,2.384,3.513,2.665,3.513a2.973,2.973,0,0,1,2.058.484,3.842,3.842,0,0,1,.834,1.862l2.155,1.168,1.094,2.155.971-.762,1.248-.138.624.969.971.14.415.484h2.634l2.219,1.179,3.4,3.258,2.7,1.872,8.943-.624,1.19,1.392,2.485-1.151,3.933-.419,2.6-1.674,1.508.084,1.841-1.59,4.019.585,2.978.033-.048,2.394-1.925,1.338-.837,2.345v.921l2.009,2.511.669,1.422-.167,1.842,1.005.5.5-.084,3.431,2.177,5.859,1.172,1.005,1.508-.166,7.7.5.419v1.674l4.353,3.014,3.851.5,1.59,6.278-.419,2.009,1.674,3.264.42,6.2-2.513,2.093-.837,2.261,1.173,1.674-.335,4.6.423,2.4,4.392-.915,3.112,2.379h2.013l1.464,1.831h4.576l4.392-3.3,6.04-.182L442,286.124h5.125l1.646,1.831h2.013l3.3-4.392,3.11-4.394h3.661l3.112-3.659.915-.549,5.491-1.1-.367-3.11h1.464l-.182-2.928,8.966,1.28,2.013-1.28.184-2.2,3.843-.366V263.8l3.477-.184,1.648-2.013,2.745.184,2.013-1.282.549-3.11,2.928-2.928.184-2.379,2.013.548,5.673-4.758.366-9.333,6.955-2.745.366-2.562,3.3-1.83.182-9.151,2.2-1.83h2.379l2.563-2.746-.184-6.222-2.379-3.659-.733-11.714-2.744-2.379.549-3.843-4.941-6.955-1.28-13.176-3.844-4.392-.548-5.491-7.322-6.222.184-2.562c4.557-6.819.109-7.207-1.648-9.517l.184-3.11-4.941-2.746v-9.7l-1.648-4.027c-14.6,1.442-3.465-6.858-10.231-12.067l-1.3-4.324.145-12.394h-6.917l-6.486-6.917-.288-2.45-4.179-2.161-4.612.288c-1.346-3.2-2.69-3.874-4.036-4.036l-5.044-2.594C449.593,80.628,444.023,81.475,437.458,81.073Z" transform="translate(-180.869 -75.309)" fill="#edf8fe" stroke="#009be8" stroke-width="0.5"/>
    </g>
    <path id="Puente_Alto" data-name="Puente Alto" d="M376.716,229.788c-.772,0-.563.311-1.377.311a6.809,6.809,0,0,0-1.71.2c-.429.107-.422,1.173-1.111,1.312a8.431,8.431,0,0,0-4.285,2.02l-1.688,1.777-2.486-2.376-6.773-.134,4.752,7.151-12.258,2.376.134,2.244-4.019.51-3.132-1.377-4.618,1.643.51,7.194,1.2,1.621.222,5.263.31,2.709-8.794,1.688v7.75l-.843,4.241-.222,4.33-1.375,2.11c.056-.045.117-.093.177-.134a4.89,4.89,0,0,1,3.93-.355,5.3,5.3,0,0,0,2.51.577,5.773,5.773,0,0,0,1.243-.177,7.234,7.234,0,0,0,1.221-.445,2.46,2.46,0,0,0,1.021.156,3.584,3.584,0,0,0,.933-.222c1.01-.358,1.959-.994,3.087-.644,1.139-.166,2.01-1.531,2.443.2,2.18.769,2.494-2.533,4.129-2.821a4.3,4.3,0,0,1,1.2.333,2.091,2.091,0,0,0,.355.112.442.442,0,0,0,.445-.112,2.56,2.56,0,0,0,.443-.8c.23-.551.517-1.4.933-2.665.993-1.632,2.864-1.137,4.241-1.332-.1-1.487,1.651-3.687,3.087-2.31a2.794,2.794,0,0,0,1.375.289,2.894,2.894,0,0,0,.644-.112,9.6,9.6,0,0,0,2.8-1.8c1.9-.552,3.722.521,5.463.955,1.319-.667,2.41-3.589,4.153-1.976a5.493,5.493,0,0,0,2.886.843,2.663,2.663,0,0,0,.443-.067c.126-.249.254-.506.378-.755a1.8,1.8,0,0,0,0-1.753c-.433-.865.918-.825,1.266-.756a6.915,6.915,0,0,1,.377,1.621c.12.479.913.512,1.487.512a1.457,1.457,0,0,0,1.377-1.133c.184-.733.756-.632.756-1.621a2.022,2.022,0,0,0-.067-.534c0-.008,0-.014,0-.022-.12-.425-.336-.565-.177-1.2.208-.834.789-.314,1.243-.132a1.728,1.728,0,0,0,.666.156.958.958,0,0,0,.177-.023,1.442,1.442,0,0,0,.355-.132c.128-.065.279-.146.445-.244.615-.369.706-1.122.843-1.733-.081.045-.1.039.023-.132a2.12,2.12,0,0,0-.134-1.643c-.2-.392.022-.647.333-.8a1.569,1.569,0,0,1,.244-.089,2.61,2.61,0,0,1,.688-.112l.112-2.132c.9-.1-.079-4.342-.289-5.862-.114-.87.467-2.08-1.554-2,.769-2.3-.82-5.806,2.31-6.928.664-5.55,2.043-3.32,3.174-3.731l-.11-4.419c2.427-2.688-.667-2.83-1.2-4.153-1.322.129-2.908-.261-3.93.134.082.328-.8.633-1.021.688-.683.171-1.336.188-2,.378-.474.135-.971-.372-1.176-.577-.411-.411-1.744-.179-2.265-.179a14.77,14.77,0,0,1-2.309-.244C377.763,230.2,377.462,229.788,376.716,229.788Z" transform="translate(168.933 117.575)" fill="#edf8fe" stroke="#009be8" stroke-width="0.5"/>
    <path id="Pirque" d="M414.663,242.664l.266.317c.32,6.558,1.038,8.749,1.886,9.5,1.042-.017,1.1,5.887,1.394,10.356.208,2.668,2.524.557,4.381.4,2.233-.7-.025,6.693,2.987,9.061,4.671.8,1.923,3.8,5.377,5.078-.307,3.466-2.875,2.083-3.585,7.071-7.82-.112-5.212.832-6.472,7.07-12.433,11.089,9.736,11.691,14.637,17.527.07,1.554-.658,2.623-.842,3.921-.515,3.628.828,3.007-1.3,7.68-.846,1.861,1.682,3.326,1.355,6.468-.1,1,1.981.8,1.855,3.04-3.221,4.177,1.024,3.781-3.883,12.534,1.589,1.492.881,3.639.971,5.561,1.461,2.234,2.06,4.324.706,6.09.873,4.766,2.374,9-.8,13.769l-.44,7.855c-1.856,2.863-2.452,1.629-3.443,1.677-4.257-.3.261,3.582-10.415,7.855-.428,2.34-1.151-3.5-4.709,4.462-4.6,3.476-3.564-2.065-7.432.191l-1.715,1.525c-1.148-2.646-2.562-5.248-.762-8.384-2.1.328-1.943-3.863-2.1-7.432-1.039.054-2.324.683-1.9-2.668-7.728-2.387-7.235,4.274-14.865-.571-3.939,4.367-1.778-3.091-7.051-6.1q1.524-4.383-3.049-4.193c1.347-2.063,5.593-4.955.381-5.145,1.237-1.528-1.22-1.473-3.429-1.523-1.143-3.281-2.287-2.829-3.431-3.241-1.046.082-1.747-1.55-2.287-4-5.086,3.585-4.1-1.648-9.718-.381-1.948,1.655-3.919,3.2-6.861.381l-.952-11.434c-2.995-4.87-8.549-1.774-7.432-19.437l-3.62-1.144-.381-5.145c-3.662,1.228-1.587-1.643-2.1-2.668-2.049,1.049-3.14.182-4.193-.762-1.134-2.457-2.55-3.513-4.193-3.429l.762-3.431c-2.1.1-1.477-3.336-4-7.432-2.044-2.033-.429-4.069-.182-6.1,5.217-3.123,4.585-2.178,5.33-1.909l-.2-1.71c3.1-3.373,1.193-5.318,1.665-5.374a2.71,2.71,0,0,0,.667-.865c-.061.04.944-1.422.888-1.377l.089-.134h.089a4.89,4.89,0,0,1,3.93-.355,5.3,5.3,0,0,0,2.51.577,5.773,5.773,0,0,0,1.243-.177,7.234,7.234,0,0,0,1.221-.445,2.46,2.46,0,0,0,1.021.156,3.584,3.584,0,0,0,.933-.222c1.01-.358,1.959-.994,3.087-.644,1.139-.166,2.01-1.531,2.443.2,2.18.769,2.494-2.533,4.129-2.821a4.3,4.3,0,0,1,1.2.333,2.091,2.091,0,0,0,.355.112.442.442,0,0,0,.445-.112,2.56,2.56,0,0,0,.443-.8c.23-.551.517-1.4.933-2.665.993-1.632,2.864-1.137,4.241-1.332-.1-1.487,1.651-3.687,3.087-2.31a2.794,2.794,0,0,0,1.375.289,2.894,2.894,0,0,0,.644-.112,9.6,9.6,0,0,0,2.8-1.8c1.9-.552,3.722.521,5.463.955,1.319-.667,2.41-3.589,4.153-1.976a5.493,5.493,0,0,0,2.886.843,2.663,2.663,0,0,0,.443-.067c.126-.249.254-.506.378-.755a1.8,1.8,0,0,0,0-1.753c-.433-.865.918-.825,1.266-.756a6.915,6.915,0,0,1,.377,1.621c.12.479.913.512,1.487.512a1.457,1.457,0,0,0,1.377-1.133c.184-.733.756-.632.756-1.621a2.022,2.022,0,0,0-.067-.534c0-.008,0-.014,0-.022-.12-.425-.336-.565-.177-1.2.208-.834.789-.314,1.243-.132a1.728,1.728,0,0,0,.666.156.958.958,0,0,0,.177-.023,1.442,1.442,0,0,0,.355-.132c.128-.065.279-.146.445-.244.615-.369.706-1.122.843-1.733-.081.045-.1.039.023-.132a2.12,2.12,0,0,0-.134-1.643c-.2-.392.022-.647.333-.8a1.569,1.569,0,0,1,.244-.089,2.61,2.61,0,0,1,.688-.112c0,.212,2.349-.123,2.776-2.464.428-.425.84-.842,1.245-1.288.532-.555,1.139,0,1.554.4.756.352.744-.149.977-.666.11-.625-.106-1.3.443-1.909.437-.44,1.231-.258,1.755-.045.655.232,1.154.747,1.775,1.022a1.441,1.441,0,0,0,1.666-.156,1.96,1.96,0,0,1,1.82-.821,9.83,9.83,0,0,1,1.777.132l.022-.6c-.188-.644-1.6-1.324-.843-2.065l.067-.845c-.205-.18-.647-.482-.311-.755a2.35,2.35,0,0,1,1.243.134,3.414,3.414,0,0,0,1.2.577,1.411,1.411,0,0,0,1.42-.756,11.6,11.6,0,0,1,.821-1.732,1.088,1.088,0,0,1,1.022-.443,1.348,1.348,0,0,1,1.2.422A13.909,13.909,0,0,0,414.663,242.664Z" transform="translate(165.65 123.733)" fill="#a0d7ef" stroke="#009be8" stroke-width="0.5"/>
    <path id="San_Bernardo" data-name="San Bernardo" d="M316.483,224.581l9.027,4.009,9.26,3.865-3.208,9.089-1.336-.535v4.678l-2.405,4.944,11.894,5.08,5.214,1.069-2.878,11.731,11.479,1.063-.888,6.29h1.081l-.361,2.928,7.49.006-.224,4.335-1.375,2.11c.056-.045-.951,1.416-.891,1.375a2.709,2.709,0,0,1-.663.878,5.206,5.206,0,0,1-2.466.957c-.63-.075-.114.246-.627.479-1.265.159-2.578-.036-3.793.221-.247.431-.086.7-.331,1.142a6.96,6.96,0,0,1-2.651.146c-.372,0-.1.4-.294.663-.114.152-.574.081-.663.258-.376.881-.462.739-1.031,1.509a8.784,8.784,0,0,1-2.614,2.541c-.335-.633-.386-.579-1.1-.663a2.29,2.29,0,0,0-.957.037c-.6.249-.277,1.749-1.4,1.253-.123.123-.588-.59-.7-.7-.509,1.14-.9.772-1.326,1.032a8.572,8.572,0,0,1-.627,1.288,7.823,7.823,0,0,1-2.024.073c-1.427-.048-.842-.25-1.1-.846-.356,0-2.486-.11-2.762-.11l-5.029,2.25c-4.747,1.291-2.5,6.079-3.683,9.151-4.448,6.885-6.343.96-15.624,9.988l-7.645,5.19c-4.789-.386-4.168,4.224-7.812,7.924-1.425,2.525-3.432-1.221-4.464,4.464-4.037-1.29-7.029,10.692-9.6,9.1-4.342-3.946-1.515-6.9-.837-6.864,2.273-2.122,1.186-3.712.781-5.413,1.274-1.8-.121-3.608-.613-5.413.134-4.4,6.13,5,7.051-2.019-.384-3.384,1.976-4.355,5.109-8.515,2.275-1.788.51-2.365.111-3.351-.934-8.854-5.057-8.993-2.748-13.844,8.57-16.008,12.582-3.316,18.679-1.813h6.427c1.921-1.733,1.638-4.79,2.253-7.308l.769-2.746c-3.925-1.377-2.555-1.741-3.186-2.307l-.549-3.516-1.319.054c-2.27-.47-1.623-3.914-4.285-5.053V275.08l4.285-1.153c-4.339-5.067.044-7.319-4.23-8.241,3.888-3.207,5.954-2.852,5.769-4.12-2.947.279-4.017-7.79-5.548-7.141v-2.418c-3.611-1.574-5.027-.865-5.988-1.813Z" transform="translate(138.833 114.681)" fill="#edf8fe" stroke="#009be8" stroke-width="0.5"/>
    <path id="Calera_de_Tango" data-name="Calera de Tango" d="M281.236,257.71l1.828-2.615,1.853-1.761,2.587-.392,5.189-9.652,4.585.363,1.195-3.518,7.516,1.416c.961.948,2.377.238,5.988,1.813v2.418c1.531-.649,2.6,7.42,5.548,7.141.185,1.268-1.881.913-5.769,4.12,4.274.923-.109,3.174,4.23,8.241l-4.285,1.153v1.649c2.662,1.139,2.015,4.584,4.285,5.053l1.319-.054.549,3.516c.632.566-.739.93,3.186,2.307l-.769,2.746c-.615,2.517-.331,5.575-2.253,7.308h-6.427c-6.1-1.5-10.11-14.2-18.679,1.813l-4.212-2.021-1.573-10.02-3.732.2-5.5,9.824-14.931-6.09,8.056-7.859,11-14.539Z" transform="translate(132.143 123.326)" fill="#a0d7ef" stroke="#009be8" stroke-width="0.5"/>
    <path id="Buin" d="M355.959,322.725c2.186.269,2.334-3.86,4.261-4.934.457-.229,1.554-2.468,2.018-2.468,1.732,0,1.652,1.276,3.14,2.019.864.431,3.348.415,3.813,1.346,1,2,1.3.123,2.69-.226,1.878-.468,1.06-1.193,1.346-2.914,2.216-.222,1.372-2.357,2.242-2.692q2.392.009,4.783-.006a46.84,46.84,0,0,1-.1-8.734l-3.62-1.144-.381-5.145c-3.662,1.228-1.587-1.643-2.1-2.668-2.049,1.049-3.14.182-4.193-.762-1.134-2.457-2.55-3.513-4.193-3.429l.762-3.431c-2.1.1-1.477-3.336-4-7.432-2.044-2.033-.429-4.068-.182-6.1,5.217-3.123,4.585-2.178,5.33-1.909l-.2-1.71c3.1-3.373,1.193-5.318,1.666-5.368a5.165,5.165,0,0,1-2.466.962c-.63-.075-.114.246-.627.479-1.265.159-2.578-.036-3.793.221-.247.431-.086.7-.331,1.142a6.959,6.959,0,0,1-2.651.146c-.372,0-.1.4-.294.663-.114.152-.574.081-.663.258-.377.881-.462.739-1.031,1.509a8.783,8.783,0,0,1-2.614,2.541c-.334-.633-.386-.579-1.1-.663a2.29,2.29,0,0,0-.957.037c-.6.249-.277,1.749-1.4,1.253-.123.123-.588-.59-.7-.7-.509,1.14-.9.772-1.326,1.032a8.573,8.573,0,0,1-.627,1.288,7.821,7.821,0,0,1-2.024.073c-1.427-.048-.842-.25-1.1-.846-.356,0-2.486-.11-2.762-.11l-5.028,2.25c-4.747,1.291-2.5,6.079-3.683,9.151-4.448,6.885-6.343.96-15.624,9.988l-7.645,5.19c-4.789-.386-4.168,4.224-7.812,7.924-1.425,2.525-3.432-1.221-4.464,4.464-4.037-1.29-7.029,10.692-9.6,9.1-.766,1.529-1.515,1.377-1.823,2.6-1.336,2.74-1.021,3.829-3.588,4.935-2.647,1.218-2.127,3.345-3.14,5.158-1.959.839-2.637,2.962-3.812,6.727-.241.963-2.388-.115-3.14.448-1.156,3.1-2.783,8.349-6.729,4.709a50.367,50.367,0,0,1-5.382,1.346c-1.713-.675-3.491-.737-6.5,1.122.941,1.881,4.934,3.364,6.727,3.812,3.07.976,2.107-3.891,4.934-1.346,2.268,1.627,4.576,1.164,6.5,3.364,1.744,2.427,3.765,2.548,6.5,3.14,2.086,1.374,1.786,4.2,4.485,4.261a15.349,15.349,0,0,0,6.5-1.57c2.43-.812,4.769-.128,7.4-.448,2.822-.937,6.872,1.912,7.4,2.018l9.867-11.213,2.242,2.466.224-4.934,2.692-16.819,5.831.224-.226,6.951,15.922.45.226,2.018,5.83-1.794.224-17.492Z" transform="translate(127.491 137.157)" fill="#a0d7ef" stroke="#009be8" stroke-width="0.5"/>
    <path id="Paine" d="M393.969,295.762c1.027,7.972,4.971,6.871,7.328,10.7l.952,11.434c2.942,2.819,4.913,1.274,6.861-.381,5.618-1.266,4.632,3.966,9.718.381.54,2.452,1.242,4.084,2.287,4,1.144.412,2.287-.04,3.431,3.241,2.209.05,4.666,0,3.429,1.523,5.212.19.966,3.082-.381,5.145q4.574-.189,3.049,4.193c5.273,3.007,3.112,10.466,7.051,6.1,7.63,4.845,7.137-1.816,14.865.571-.42,3.351.865,2.723,1.9,2.668.154,3.569,0,7.76,2.1,7.432-1.8,3.137-.386,5.738.762,8.384s.314-.713-4.447-.579-12.879-.674-10.816,6.2c-2.348,3.662-5.68,10.4-10.326,6.829-3.227,4.783-6.111-5.091-10.927-2.038-3.247.988-4.664.025-6.188,4.428-3.529,2.29-7.1,5.883-10.482,1.763-7.062.167-7.684.893-10.363,5.128-.767,1.214-2.612-.073-3.69.568-2.388,1.819.8,5.881-3.588,6.5-4.794.224-5.24,3.432-5.033,6.762-4.139,3.146-9.4,10.1-13.26,2.864-3.051-3.659-7.857-5.995-8.022-10.723-2.388-3.994-9.128-6.948-11.795.143-2.654,1.925-1.727,2.9-4.47,3.193-1.522,3.32-8.373-1.226-8.336,4.881-6.768,7.677-8.554,9.929-12.963,5.94-4.878-.779-11.382-9.366-13.715-1.175.411,5.741-4.652,6.745-8.8,8.247-.638-2.009-1.539-2.772-2.413-1.744a4.592,4.592,0,0,1-3.588,1.57c-1.655,0-1.693.47-2.242,1.57-.327.652-1.176,2.127-1.57,2.916-.625,1.249-1.111,1.162-.674,2.916.42,1.68-.781,1.346-2.018,1.346-.613,0-1.385,1.028-2.018,1.344-.065.034-1.939,1.859-2.018,2.019a2.818,2.818,0,0,1-2.244,1.57,5.316,5.316,0,0,0-2.466,1.12c-.907.68-.7,1.122-2.468,1.122-.675,0-.975,1.122-2.466,1.122a4.94,4.94,0,0,1-3.365-.674c-2.107-1.053-.96-.982-2.242-2.69a8.032,8.032,0,0,0-2.242-2.02c-.9-.672-2.323.417-3.364,0a10.815,10.815,0,0,0-4.037-.9,11.983,11.983,0,0,0-2.692,1.122c-1.005.5-2.689-1.346-4.036-1.346-1.876,0-2.559-.45-4.261-.45a7.714,7.714,0,0,1-4.71-1.57l-.9-.672c-1.526-1.145-.585-1.659.224-2.468,1.441-1.439,2.242-1.116,2.242-2.69,0-.093-1.809-1.827-2.018-2.244-.355-.709,1.377-1.022,1.57-1.794.324-1.3.972-2.323,1.346-3.812.425-1.7,1.455-1.6,0-2.692-1.761-1.321-1.943-.823-1.122-2.466a4.431,4.431,0,0,0,0-3.813c-.3-.591-.7-1.626-1.122-2.466a14.961,14.961,0,0,0-1.57-2.018c-.355-.476-.05-.627-.9-1.57s-4.05-3.312-3.905-4.619c.779-.853-1.386-3.8.534-5.473-.459-2.351-1.456-2.872-.045-5.209,1.344-2.53-3.292-2.047-2.192-4.674,1.375-1.092.551-5.487-.174-6.729-1.61-2.444-1.638-2.192-.8-4.873-.134-2.111,1.119-5.069-.6-6.763-1.705-.671-4.408-2.622-3.418-4.728a9.239,9.239,0,0,1,1.229-5.005c-.524-1.886-.923-4.129.557-5.9-1.434-1.158-.062-3.217.741-4.784s-1.322-1.69.448-1.346a2.692,2.692,0,0,0,3.328-1.719,5.781,5.781,0,0,1,4.209-1.637,12.267,12.267,0,0,1,4.285,1.836c-1.014,1.176,1.951,1.813,2.363.45.661-1.858,2.953-.364,4.439-.507,1.869-.443,1.691,2.788,3.443,2.146,1.332-.8,3.015-.692,4.291-1.262.632-1.38,1.718-2.664,1.881-4.19a6.964,6.964,0,0,1,.1-4.674c.252-1.66,1.069-3.18.8-4.912-.429-1.587,1.368-1.635,1.962-.484,1.364.979,1.019,2.745,1.755,4.09,1.26,1.167-.52,1.461-.951,1.94.237,1.223,2.979.8,1.741,2.242-.345,1.226-3.291,1.62-1.858,3.015,1.327.887,2.847,1.573,3.715,3.009s-1.232,1.466-.291,3.348,4.934,3.364,6.727,3.812c3.07.976,2.107-3.891,4.934-1.346,2.268,1.627,4.576,1.164,6.5,3.364,1.744,2.427,3.765,2.548,6.5,3.14,2.086,1.374,1.786,4.2,4.485,4.261a15.349,15.349,0,0,0,6.5-1.57c2.43-.812,4.769-.128,7.4-.448,2.822-.937,6.872,1.912,7.4,2.018l9.867-11.213,2.242,2.466.224-4.934,2.692-16.819,5.831.224-.226,6.951,15.922.45.226,2.018,5.83-1.794.224-17.492,8.073.224c2.186.269,2.334-3.86,4.261-4.934.457-.229,1.554-2.468,2.018-2.468,1.732,0,1.652,1.276,3.14,2.019.864.431,3.348.415,3.813,1.346,1,2,1.3.123,2.69-.226,1.878-.468,1.06-1.193,1.346-2.914,2.216-.222,1.372-2.357,2.242-2.692Q391.579,295.777,393.969,295.762Z" transform="translate(113.774 154.246)" fill="#a0d7ef" stroke="#009be8" stroke-width="0.5" fill-rule="evenodd"/>
    <path id="Padre_Hurtado" data-name="Padre Hurtado" d="M290.135,258.181l.187,2.455,5.96,5.424,1.853-1.761,2.587-.392,5.189-9.652,4.585.363,1.195-3.518-6.824-6.617-7.617-6.947a2.6,2.6,0,0,0,1.6-.9c.675-.335.574-.548.414-1.243a2.1,2.1,0,0,1,1.186-1.6,2.619,2.619,0,0,0,2.013-.475,3.135,3.135,0,0,0-1.363-3.2c-2.661-1.545-2.7,3.858-5.449,3.792a29.979,29.979,0,0,0-4.087-1.125c-.891.126-1.749.358-2.665.414-2.25-.686-3.617.079-5.687.711-2.533-.017-3.788-2.435-5.8-3.554-1.408.975-3.2,2.741-4.916,1.836-.807-.646-1.522-1.369-2.37-1.954a3.137,3.137,0,0,0-2.131-.061c-.4.1-.619.422-1.067.534-.87-.258-.949-.6-.888-1.422.086-.9-.263-1.235-1.007-1.6a3.679,3.679,0,0,1-1.421-1.777c-.156-.31-1.066-.622-1.422-.711-1.9-.17-2.356-1.17-2.547-2.785-1.106-1.448-2.615-1.78-4.324-2.013-1.651-.045-3.375.968-4.678,1.363.493.574.156.784-.277,1.385-.507.254.062,1.346.173,1.9a2.785,2.785,0,0,1-.691,2.244c-.277,1.912-.84,2.189-1.294,3.8.341,1.438-.367,1.326-.431,4.143.045,1.494-.706,2.829-1.036,4.316,0,2.055-.75,2.058-2.245,3.367-.722,1.817-1.575,1.254-3.107,2.331a2,2,0,0,1-2.243,1.725c-.59.667-.149,2.569-.087,3.8,0,.686,1.126.263,1.64.776.45.419-.3,1.508.087,1.985.933.706.184.476,1.036,1.294.608.61,1.813-.429,1.813.431,0,.569-.263,2.31-.691,2.418-.451.112,1.088,1.57,1.294,1.985.236.471-.044,1.382.6,1.382,1.158.241,1.4.789,2.072.862.3-.3,1.452-.5,1.725-.776a8.68,8.68,0,0,1,4.143.087c2.948-.058,5.867-.177,8.8,0,.311,0,.817.643,1.036.862A2.567,2.567,0,0,0,264,259.323a12.362,12.362,0,0,0,2.416-2.158c1.411-.629.12,1.746,1.554.776.672-1.044,1.5-.849,2.243-1.813,1.106.254.591,1.883,1.9,1.985a21.555,21.555,0,0,1,2.243-2.849l8.632-.171.087,2.243,1.38.691Z" transform="translate(118.924 112.361)" fill="#a0d7ef" stroke="#009be8" stroke-width="0.5"/>
    <path id="Penaflor" d="M287.228,273.377l11-14.539-.786-2.555,1.828-2.615-5.96-5.424-.187-2.455-5.679-.152-1.38-.691-.087-2.243-8.632.171a21.553,21.553,0,0,0-2.243,2.849c-1.308-.1-.794-1.732-1.9-1.985-.741.963-1.571.769-2.244,1.813-1.434.969-.143-1.4-1.554-.776a12.361,12.361,0,0,1-2.416,2.158,2.567,2.567,0,0,1-1.036,2.762c-.219-.219-.725-.862-1.036-.862-2.937-.177-5.856-.058-8.8,0a8.68,8.68,0,0,0-4.143-.087c-.274.274-1.422.473-1.725.776l-1.82-.448c-2.024,2.326-2.716,7.647-6.661,5.651l-1.817,3.432c-.736,3.414.246,6.983-6.055,9.89-.789,6.054,4.16,5.593,3.835,10.7l10.5,1.21.807-4.037,5.45-.2-.2,1.615,3.028.2,1.414-3.633h4.643l12.313-2.825,6.661,2.623Z" transform="translate(115.935 124.754)" fill="#a0d7ef" stroke="#009be8" stroke-width="0.5"/>
    <path id="Talagante" d="M307.176,306.94c.134-4.4,6.13,5,7.051-2.019-.384-3.384,1.976-4.355,5.109-8.515,2.275-1.788.51-2.365.111-3.351-.934-8.854-5.056-8.993-2.748-13.844l-4.212-2.021-1.573-10.02-3.732.2-5.5,9.824-14.931-6.09,8.056-7.859-4.893.319-6.661-2.623-12.313,2.825H266.3l-1.414,3.633-3.028-.2.2-1.615-5.45.2-.807,4.037-10.5-1.21c1.246,4.865,6.348,1.856,10.318,7.387.159,6.695-6.245,4.554-13.634,10.679-3.594-.174-8.086,10.942-12.5,9.316-1.925.227-3.678,1.3-5,4.545-2.45-.559-4.277-.025-4.317,3.636,4.411,1.117,10.455,7.683,13.18,3.182h6.589c2.4,1.841,8.218,1.5,7.953-.456l18.178-1.363c1.68-7.571,6.323-4.857,6.363-10.225l22.5,9.089,1.817-3.863,5.226,4.317.909,1.363Z" transform="translate(108.358 134.889)" fill="#a0d7ef" stroke="#009be8" stroke-width="0.5"/>
    <path id="El_Monte" data-name="El Monte" d="M256.321,260.6c-.789,6.054,4.16,5.593,3.835,10.7,1.246,4.865,6.348,1.856,10.318,7.387.159,6.695-6.245,4.554-13.634,10.679-3.594-.174-8.086,10.942-12.5,9.316-1.925.227-3.678,1.3-5,4.545-2.847-.384-4.238.576-4.317,3.636-3.225,1.167-7.348,1.417-10.908,5.226H213.212c-7.4-.465-3.918-3.331-12.271-5,2.665-4.436-1.081-5.428-3.277-5.61l1.17-5.151-5.151-2.107-.233-2.576,3.512.235,2.81-25.99c3.939.779,4.828-1.165,7.493-3.278a5.163,5.163,0,0,1,3.746-.235,7.979,7.979,0,0,0,4.916,3.045c1.434.358.807,1.276,1.4,1.873a21.478,21.478,0,0,1,7.961,1.17c1,.2,1.78.856,3.043,1.172.065-2.489-.51-3.079,1.873-5.386a10.164,10.164,0,0,0,1.4-2.575c2.6-.6,3.619,1.242,6.323-.7,2.556-.467,2.457-3.347,4.448-4.682C247.122,255.41,252.643,257.76,256.321,260.6Z" transform="translate(93.504 132.201)" fill="#fdf9d2" stroke="#d38d5f" stroke-miterlimit="1.827" stroke-width="0.457" opacity="0"/>
    <path id="Isla_de_Maipo" data-name="Isla de Maipo" d="M254.152,336.709a2.692,2.692,0,0,0,3.328-1.719,5.781,5.781,0,0,1,4.209-1.637,12.267,12.267,0,0,1,4.285,1.836c-1.014,1.176,1.951,1.813,2.363.45.661-1.858,2.953-.364,4.439-.507,1.869-.443,1.691,2.788,3.443,2.146,1.332-.8,3.015-.692,4.291-1.262.632-1.38,1.718-2.664,1.881-4.19a6.964,6.964,0,0,1,.1-4.674c.252-1.66,1.069-3.18.8-4.912-.429-1.587,1.368-1.635,1.962-.484,1.364.979,1.019,2.745,1.755,4.09,1.26,1.167-.52,1.461-.951,1.94.237,1.223,2.979.8,1.741,2.242-.345,1.226-3.291,1.62-1.858,3.015,1.327.887,2.847,1.573,3.715,3.009s-1.232,1.466-.291,3.348c3.012-1.859,4.79-1.8,6.5-1.122a50.365,50.365,0,0,0,5.382-1.346c3.946,3.639,5.573-1.606,6.729-4.709.751-.563,2.9.515,3.14-.448,1.175-3.765,1.853-5.889,3.812-6.727,1.013-1.813.493-3.939,3.14-5.158,2.567-1.106,2.251-2.2,3.588-4.935.308-1.228,1.058-1.075,1.823-2.6-4.342-3.946-1.515-6.9-.837-6.864,2.273-2.122,1.186-3.712.781-5.413,1.274-1.8-.121-3.608-.613-5.413l-4.291-.725-.909-1.363-5.226-4.317-1.817,3.863-22.5-9.089c-.04,5.368-4.683,2.654-6.363,10.225l-18.178,1.363c.264,1.96-5.553,2.3-7.953.456h-6.589c-2.724,4.5-8.769-2.065-13.18-3.182-3.225,1.167-7.348,1.417-10.908,5.226H213.992c-7.4-.465-3.918-3.331-12.271-5-.434,2.964-3.807,4.808-6.362,6.362-1.869.84-6.16,5.844-.454,10.454,4.347,1.142,7.8-.825,12.271,4.089,3.025.986,1.126,7.446,10.452,2.5.226-1.971,1.335-3.057,6.362-.227,4.856-.033,7.11.716,5.909,2.5,4.668-.831,5.94,3.434,8.406,5.907.465,2.634,4.042.081,6.136,0,.559,4.078,2.642,3.585,5,2.272C255.953,326.258,252.649,333.087,254.152,336.709Z" transform="translate(92.725 147.169)" fill="#a0d7ef" stroke="#009be8" stroke-width="0.5"/>
    <path id="Colina" d="M280.193,154.063c5.346-2.58,10.087,2.416,15.145,3.233,2.953.353,5.19-3.5,7.194-4.478,4.79-.188,2.9-3.37,1.34-5.595-1.126-8.7-5.519-6.807-8.216-14.5-1.837-4.336,5.111-7.922.951-12.448-4.468-5.215,3.172-8.461,3.437-13.822,2.128-4.893-4.7-12.048-9.064-14.22-3.382-1.072,7.334-5.517,2.183-10.049,4.243-6.292,2.6-6.415,2.6-8.486,3.051-3.711,2.46-4.059-1.175-6.2-1.243-4.419-.879-9.559-4.288-12.8a28.1,28.1,0,0,0,8.182-7.871c3.8-1.5,10.437-2.223,11.325-7.813.338-2.377,4.669-1.078,3.877-4.1l-.512-3.835c1.657,7.865,7.255,1.011,11.311.731,8.829,4.1,4.884-1.158,16.971-1.785,4.008-3.675,9.2-5.946,14.672-4.828,2.2,3.633,3.424.384,5.165-1.2,4.661,1,6.4,4.7,8.006,7.071.776,2.631-1.5,7.866.77,8.515,1.965.56,6.183.044,7.9,5.575,4.361,4.856,7.972,10.469,12.416,15.068-1.237,5.265-6.493,12.745,1.456,15.435A13.881,13.881,0,0,1,400.7,90.134c2.864,2.175,4.946,7.074,6.454,9.708,1.316,2.3,5.212-.571,8.037-1.005,7.4-1.906,2.166-8.265,4.386-8.215,8.809.2,4.268-2.685,5.05-6.08,2.786-4.895,4.434-10.482,9.123-13.864.042-4.6,4.893-8.7,9.556-5.974,5.859,1.207,13.565,3.053,11.46,10.84,3.941,5.421-5.848,9.215-1.224,14.345,5.483,3.121,3.778,11.015,10.227,13.039l4.451,6.665c-.879,4.535-.582,10.517-6.2,9.223-.638,1.237.574,4.322-2.45,3.171-.657,2.5-1.881,1.585-2.881,2.018-1.641,1.9-4.552,1.889-7.715,1.5-1.137,2.413-9.435,4.12-10.267,11.952-1.6.658-2.422.04-4.173,4.493-.109,1.35.871,4.518-.4,3.93-2.5,1.3-3.41,2.231-3.129,2.888-.72,2.387-1.489,4.626-3.048,4.493,1.3,13.253-3.575,6.337-2.808,11.631,1.178,2.256,2.057,4.767-2.429,11.851-5.108-2.047-11.49,1.785-17.744.89-.635,2.933-.19,7.162-3.357,7.056-1.819,3.806-3.515.923-6.3,3.563a4.445,4.445,0,0,0-5.274.548H386c-1.073,1.873-2.443,3.672-2.124,5.892-2.724.826-.328,2.457-4.521,7.673,1.452,3.846,1.22,9.789-2.069,11.292-2.849,1.3-3.273,2.356-5.878,4.121,1.553,8.011-8.58,1.663-3.837,8.769V230.8c2.08,4.982,4.557,4.523,2.861,7.423-2.676,1.131-3.877.468-4.481,0-.837,1.562-2,.96-3.633,1.091-1.052.21-1.287,1.26-2.06,1.453-2.611.543-3.088-.5-3.874-.605h-2.422c-.487,0-.625-1.434-.969-1.091-.661.672-1.3,1.363-1.939,2.06-.591.591-.335,1.288-1.21.12a1.609,1.609,0,0,0-1.817-.484c-1.5.748-.691.381-1.937-.243.191-.618.585-1.487.121-1.937-.7-.727-.644-1.729-1.453-2.422-1.391-.683-1.808-2.427-3.27-2.3-.319.159-1.391,1.274-1.937.727A4.637,4.637,0,0,0,338.1,233.5a3.275,3.275,0,0,0-2.542,1.817,1.685,1.685,0,0,0-1.574-.848,5.606,5.606,0,0,1-2.38-.159v-2.065h-1.775l-.7-1.445c-.064-.622.294-.5.66-.372l.289,1.033c-.181-1.018,1.025-2.58-2.519-2.272-.812-.711-.661-1.973-2.849-1.9l-1.031.621-1.445-.124-1.858-1.57-3.014.082-.7,3.8-2.37.657-28.847-72.165C282.06,158.709,281.545,155.967,280.193,154.063Z" transform="translate(141.719 3.191)" fill="#a0d7ef" stroke="#009be8" stroke-width="0.5" fill-rule="evenodd"/>
    <path id="Lampa" d="M247.271,220.432c.761-.468.622-1.427,1.322-1.687,6.883-2.544,5.967-4.962,7.622-3.188,2.055,1.447,3.816-4.023,9.133-4.448l4.552,2.944c7.582,2.734,11.141-3.007,17.8.389,6.012,4.044,3.087.423,7.288,4.784,7.728-5.844,6.984-13.405,11.459-13.572,2.18-.146,4.187-4.61,6.225-8.282-.713-2.212-1.634-4.582-.769-5.61l3,.154.986,1.36,31.509-8.738-28.847-72.165c-3.378.121-3.893-2.62-5.245-4.524-1.909-2.239-12.5,1.133-12.108,5.82-4.552,1.721-7.782-3.063-12.624-.364-4.454,2,3.608,5.918-1.42,9.106-5.5,3.9-1.212,12.8-8.518,15.141-9,1.758-3.3-8.1-7.9-7.9-3.071.134-.182,1.333-.529-4.429.98-3.479,1.87-6.471.156-10.253-2.517-6.2-10.144-.008-14.581.49-4.218,2.429-4.846-5.214-11.733-5.819-4.036.481-7.859,4.442-11.449.093-8.055-2.777-.571,8.605-8.322,2.992.247,2.636.07,3.781-3.631,5.839-.238.949,1.562,3.088,2.567,4.179,1.627,5.427-5.869,11.96.314,15.66,1.386-.016.218-1.7,1.349,3.063.912,3.84,6.314,9.839,6.194,14.617.622,2.5-.3,4.907.456,5.154,4.873,1.6,1.5,6.933,2.9,9.324,3.575-.114,3.935,4.823-1.725,3.832-3.886.535-3.834,5.022-7.762,4.345-.938,3.376-1.1,7.311-3.774,9.592-1.621,1.386,2.609,4.3,3.183,6.541-1.257,7.042,7.428,5.487,7.191,12.045-.717,4.521,8.179,3.042,6.569,10.122C240.156,218.033,236.184,217.759,247.271,220.432Z" transform="translate(108.609 49.404)" fill="#a0d7ef" stroke="#009be8" stroke-width="0.5" fill-rule="evenodd"/>
    <path id="Melipilla" d="M317,241.325c.59-.666-2.265,1.741-2.475-2.363s-5.106-3.5-7.885-4.806c-8.459,4.636-6.538-1.859-10.407-2.78-6.356-2.847-10.723,2.653-15.726,5.433-4.644,2.622-10.113,2.659-15.537,2.7-5.786-1.074-11.591-2.3-17.5-3.048-1.9,4.431-5.007-.68-8.246.484-4.454,2.135-14.233-2.264-14.938,4.423-1.865-1.133-8.19-1.125-11.642-2.468-5.433.246-12.752-9.145-15.264-.709-1.14,5.333-5.962,6.328-9.1,10.227.068,5.528-6.158,2.436-7.673,4.756,4.277,3.112-.4,4.016-3.709,4.24-4.846-5.491-6.948,3.582-12.224,3.081-5.716-1.736-18.6.381-16.794-3.014l-2.583,3.445c-1.035,5.942-2.3,11.179-5.6,10.335l-5.6,5.167c-6.5-.187-15.215-2.583-10.766,8.182-8.755,3.034-5.3,9.559-6.889,14.64l-6.46-5.6-6.458,5.167.431,2.153c-9.372,12.507-.868,11.267,3.874,12.918-.384,3.611-4.994,5.109,3.015,12.918l7.751,5.167c2.329,10.721,6.253,5.117,14.209,12.92l-.431,7.75c.084,3.446-1.375,6.891-4.736,10.335-6.32,1.21-14.233-1.565-18.516,4.736,5.9.762.933,6.835-.008,8.447,1.907,4.868,5.609,8.52,8.6,12.531.188,3.182,2.452,6.463,3.61,8.3-2.079,5.76,6.34,7.866,5.514,13.334,2.22,4.139,7.691,6.808,12.132,8.041,2.035-5.5,4.188-5.794,5.033-5.5,1.906.658-.171-4.1-1.727-5.576-.048-3.731,6.25-1.545,8.431-3.681,4.118.49,8.425.383,11.95-.926,4.832.5,4.059,5.162,2.709,8.358.968,3.666,5.053,4.111,5.17,8.031,2.85,2.578-4,4.836.165,7.2a16.255,16.255,0,0,1,13.855,6.937c3.342,3.449,6,6.524,11.376,6.863,2.891-.529-.562,5.047,2.715,5.922,2.413,1.47,5.444,5.542,8.218,5.73a4.614,4.614,0,0,1,4.028-.233c3.429.663,4.93-4.036,6.449.339,10.934,4.526,6.561-10.9,13.4-7.166,5.055,1.109,6.307-1.644,16.209-1.932,4.759-.275,4.028-6.4,8.115-8.028,1.967-3.953,3.818-7.2,2.69-11.771.467-5.884.036-9.193,10.04-7.9,5.951.465,16.433,7.2,17.906,1.055,2.418-3.3,5.645-4.163,8.377-.653,6.975-.095,9.254,8.512,14.874,11.823.962,1.08,2.681,1.073,3.977,1.663s-.691-3.894.156-2.951c-.846-.943-4.05-3.312-3.905-4.619.779-.853-1.386-3.8.534-5.473-.459-2.351-1.456-2.872-.045-5.209,1.344-2.53-3.292-2.047-2.192-4.674,1.375-1.092.551-5.487-.174-6.729-1.61-2.444-1.638-2.192-.8-4.873-.134-2.111,1.119-5.069-.6-6.763-1.705-.671-4.408-2.622-3.418-4.728a9.239,9.239,0,0,1,1.229-5.005c-.524-1.886-.923-4.129.557-5.9-1.434-1.158-.062-3.217.741-4.784s-1.322-1.69.448-1.346c-1.5-3.622,1.8-10.451-4.713-10.734-2.357,1.313-4.44,1.806-5-2.272-2.094.081-5.671,2.634-6.136,0-2.466-2.474-3.739-6.738-8.406-5.908,1.2-1.785-1.053-2.533-5.909-2.5-5.027-2.83-6.136-1.744-6.362.227-9.326,4.946-7.428-1.514-10.452-2.5-4.475-4.913-7.924-2.947-12.271-4.089-5.705-4.61-1.414-9.614.454-10.454,2.555-1.554,5.928-3.4,6.362-6.362,2.665-4.436-1.081-5.428-3.277-5.61l1.17-5.151-5.151-2.107-.233-2.576,3.512.235,2.81-25.99c3.939.779,4.828-1.165,7.493-3.278a5.163,5.163,0,0,1,3.746-.235,7.979,7.979,0,0,0,4.916,3.045c1.434.358.807,1.276,1.4,1.873a21.478,21.478,0,0,1,7.961,1.17c1,.2,1.78.856,3.043,1.172.065-2.489-.51-3.079,1.873-5.386a10.164,10.164,0,0,0,1.4-2.575c2.6-.6,3.619,1.242,6.323-.7,2.556-.467,2.457-3.347,4.448-4.682,4.736-.876,10.258,1.473,13.936,4.311,6.3-2.908,5.319-6.477,6.055-9.89l1.817-3.432c3.944,2,4.636-3.325,6.661-5.651s.4-.414-.252-.414-.367-.91-.6-1.382c-.207-.415-1.746-1.873-1.294-1.985.428-.107.691-1.848.691-2.418,0-.86-1.2.179-1.813-.431-.853-.818-.1-.588-1.036-1.294-.384-.478.362-1.567-.087-1.985-.513-.513-1.64-.09-1.64-.776C316.847,243.893,316.407,241.992,317,241.325Z" transform="translate(41.414 118.015)" fill="#a0d7ef" stroke="#009be8" stroke-width="0.5" fill-rule="evenodd"/>
    <path id="Curacavi" d="M166.925,145.347c.51,2.849-.039,10.642,1.2,11.11.389.148.356,3.7,3.933,8-1.326,7.634,4.867,12.475,6.441,12.769,1.144.215-1.28.916-1.876,7.2-2.855.569-4.7,2.142-2.282,7.988l-2.282,5.421c-5.836,4.353,1.417,7.381-4.565,13.124-2.472-2.853-8.324,3.224-9.7,5.134-2.312-.235-4.143-2.869-7.132.286l-7.988,10.84-.377.129c2.357-2.774-1.537,5.024,5.6,2.153,4.112,4.181,11.851,2.979,14.721,8.629.881,4.009,6.114,4.322,9.467,5.354,4.349.888,11.205,3.441,14.275,6.975,2.973,3.538,5.212.636,8.252-1.515,5.741.2,11.524.879,17.184,1.252,4.207.112,7.241-5.072,11.5-3.4,2.8,3.79,7.527-.025,10.443-1.926,2.489-2.464,10.449-6.525,8.232.311-1.66,3.98-.414,9.842-5.165,10.933-1.13,4.4,3.834,7.4,5.326,11.207-.753,3.972,1.59,7.62,5.17,9.466,4.3,1.893,4.663,6.751,7.592,9.774,2.074,2.111,4.58,3.736,6.684,5.814s6.956,2.309,3.893,3.577c1.8-.569,4.882-.96,7.1.033,3.869.921,1.948,7.417,10.407,2.78,2.779,1.307,7.675.7,7.885,4.806s3.065,1.7,2.475,2.363a2,2,0,0,0,2.243-1.725c1.533-1.077,2.385-.513,3.107-2.331,1.5-1.308,2.245-1.312,2.245-3.367.33-1.487,1.081-2.822,1.036-4.316.064-2.818.772-2.706.431-4.143.454-1.609,1.018-1.886,1.294-3.8a2.785,2.785,0,0,0,.691-2.244c-.11-.554-.68-1.646-.173-1.9.433-.6.77-.811.277-1.385a4.513,4.513,0,0,0-1.778-1.659,5.972,5.972,0,0,0-2.013-.711c-.619-.846-.064-1.828.118-2.783a4.924,4.924,0,0,1,1.3-2.015,4.234,4.234,0,0,0,.652-2.191c.075-.932,1.48-1.8,1.539-1.836.19-.056.559-.535-.03-1.19-1.375-1.666-3.118-3.123-3.68-5.253-8.515-.569-8.167-3.535-9.511-6.152l-.238-4.874c-.876-1.627-3.7-2.209-2.091-4.109a3.493,3.493,0,0,0,.2-3.746c-1-1.825,2.074-1.29,2.412-6.956.982-5.931-2.544-7.826-.8-11.358-4.232-3.97,1.016-2.329.236-9.464-11.087-2.673-7.115-2.4-9.159-3.389,1.61-7.081-7.286-5.6-6.569-10.122.236-6.558-8.448-5-7.191-12.045-.574-2.245-4.8-5.155-3.183-6.541,2.67-2.281,2.836-6.216,3.774-9.592,3.928.677,3.876-3.81,7.762-4.345,5.66.991,5.3-3.946,1.725-3.832-1.4-2.391,1.968-7.723-2.9-9.324-.758-.247.166-2.656-.456-5.154.12-4.778-5.282-10.777-6.194-14.617-1.131-4.762.037-3.079-1.349-3.063-6.183-3.7,1.313-10.233-.314-15.66-1.005-1.091-2.805-3.23-2.567-4.179-6.715-1.237-6.278,3.177-10.244,1.968,1.822,9.512-1.518,6.762-5.707,2-2.282,1.859-4.563.177-6.846-.856-1.631,1.889-.862,6.175-1.142,9.414-5.5,6.385-9.323,4.394-12.552-.571-5.12.014-13.246-2.976-12.837,2.567-2.2,4.2-6.356,5.492-13.122,2.853l-5.421-2.282c-6.132,4.434-7.073,1.949-8.845.569l-5.705-.569a10.24,10.24,0,0,1-9.7,2.852c.171,3.051-2.08,4.649-5.705,5.421C163.442,139.885,165.441,142.659,166.925,145.347Z" transform="translate(65.074 53.407)" fill="#a0d7ef" stroke="#009be8" stroke-width="0.5"/>
    <path id="Tiltil" d="M350.936,34.274l-2.745-1.01c-.11-.548.439-7.435,0-9.193a9.982,9.982,0,0,0-11.163-5.582c-10.668,3.068-9.394,9.307-11.821,3.284-4.747-.825-9.108-4.053-15.1-1.643-2.239.56-2.8,1.643-5.581,1.643-3.636-.089-7.076-1.73-10.507-1.315-1.109.666-3.5,1.971-4.269,1.971-13.679-.643-7.19,2.2-10.507,2.3-.98,2.45-4.05,1.641-6.9,1.641-3.72-1.07-5.389-2.541-8.537,3.941-.958,3.4-3.353,4.478-4.268,7.88-1.484,3.217-1.453,8.181-6.239,6.894-3.155-.686-5.738-3.628-8.537-1.641-2.939,1.659-5.662,4.135-9.193,4.269-3.51,0-7.009-.017-10.507-.328-3.177,0-7.123-.63-9.852.657-.137,3.225-1.735,5.316-2.955,7.88a4.774,4.774,0,0,1,.328,6.894c3.379,2.027,3.771,6.909,7.224,13.791.244,8.058,5.341,6.528,3.611,10.178-1.061,4.21-2.741,4.756-4.268,11.821-5.257,3.009-5.159,3.711-5.254,7.879,2.352,1.967,5.833,2.727,5.254,6.239-3.4,10.447-.347,9.343.328,19.372,3.459,3.624.2,5.609,1.641,9.193,2.429,1.336,3.286,3.771,4.4,5.736,1.7,2.992,3.126,5.76,4.792,8.711,3.8,3.34-2.2,2.046-1.389,6.4,7.751,5.613.268-5.769,8.322-2.992,3.591,4.349,7.414.387,11.449-.093,6.886.605,7.515,8.248,11.733,5.819,4.437-.5,12.064-6.685,14.581-.49,1.715,3.782.825,6.774-.156,10.253.347,5.763-2.542,4.563.529,4.429,4.6-.2-1.1,9.657,7.9,7.9,7.306-2.345,3.015-11.238,8.518-15.141,5.028-3.188-3.034-7.109,1.42-9.106,4.842-2.7,8.072,2.085,12.624.364-.4-4.688,10.2-8.059,12.108-5.82,5.346-2.58,10.087,2.416,15.145,3.233,2.953.353,5.19-3.5,7.194-4.478,4.79-.188,2.9-3.37,1.34-5.595-1.126-8.7-5.519-6.807-8.216-14.5-1.837-4.336,5.111-7.922.951-12.448-4.468-5.215,3.172-8.461,3.437-13.822,2.128-4.893-4.7-12.048-9.064-14.22-3.382-1.072,7.334-5.517,2.183-10.049,4.243-6.292,2.6-6.415,2.6-8.486,3.051-3.711,2.46-4.059-1.175-6.2-1.243-4.419-.879-9.559-4.288-12.8a28.1,28.1,0,0,0,8.182-7.871c3.8-1.5,10.437-2.223,11.325-7.813.338-2.377,4.669-1.078,3.877-4.1Z" transform="translate(103.958)" fill="#fdf9d2" stroke="#d38d5f" stroke-miterlimit="1.827" stroke-width="0.457" fill-rule="evenodd" opacity="0"/>
    <path id="Maria_Pinto" data-name="Maria Pinto" d="M153.2,187.195c2.357-2.774-1.537,5.024,5.6,2.153,4.112,4.181,11.851,2.979,14.721,8.629.881,4.009,6.114,4.322,9.467,5.354,4.349.888,11.205,3.441,14.275,6.975,2.973,3.538,5.212.636,8.252-1.515,5.741.2,11.524.879,17.184,1.252,4.207.112,7.241-5.072,11.5-3.4,2.8,3.79,7.527-.025,10.443-1.926,2.489-2.464,10.449-6.525,8.232.311-1.66,3.98-.414,9.842-5.165,10.933-1.13,4.4,3.834,7.4,5.326,11.207-.753,3.972,1.59,7.62,5.17,9.466,4.3,1.893,4.663,6.751,7.593,9.774,2.074,2.111,4.58,3.736,6.684,5.814s6.956,2.309,3.933,3.58-5.738,3.834-8.669,5.463c-4.644,2.622-10.113,2.659-15.537,2.7-5.786-1.074-11.591-2.3-17.5-3.048-1.9,4.431-5.007-.68-8.246.484-4.454,2.135-14.233-2.264-14.938,4.423-1.865-1.133-8.19-1.125-11.642-2.468-5.433.246-12.752-9.145-15.264-.709-1.14,5.333-5.962,6.328-9.1,10.227.068,5.528-6.158,2.436-7.673,4.756,4.277,3.112-.4,4.016-3.709,4.24-4.846-5.491-6.948,3.582-12.224,3.081-5.716-1.736-18.6.381-16.794-3.014-1.8-3.3-2.492-6.6-.86-9.9-.781-9.957-2.384-14.987-4.307-18.085-10.248.04-3.255-7.58-4.307-11.627-4.806-6.315-3.661-12.632,3.015-18.947-2.923-2.76.485-10.455.429-17.656-.068-5.085-6.707-12.045.431-15.071.913-3.484,2.559-5.5,6.891-2.152C144.569,190.111,150.759,190.156,153.2,187.195Z" transform="translate(54.177 93.563)" fill="#fdf9d2" stroke="#d38f61" stroke-miterlimit="1.827" stroke-width="0.457" fill-rule="evenodd" opacity="0"/>
  </g>
</svg>
