<svg xmlns="http://www.w3.org/2000/svg" width="23.783" height="23.783" viewBox="0 0 23.783 23.783">
  <path id="Icon_ionic-ios-close-circle" data-name="Icon ionic-ios-close-circle" d="M8.409,0a8.409,8.409,0,1,0,8.409,8.409A8.407,8.407,0,0,0,8.409,0Zm2.13,11.453-2.13-2.13-2.13,2.13a.646.646,0,1,1-.914-.914L7.5,8.409l-2.13-2.13a.646.646,0,1,1,.914-.914L8.409,7.5l2.13-2.13a.646.646,0,1,1,.914.914l-2.13,2.13,2.13,2.13a.649.649,0,0,1,0,.914A.642.642,0,0,1,10.539,11.453Z" transform="translate(11.892) rotate(45)" fill="#95ea18"/>
</svg>
