<svg id="_546391" data-name="546391" xmlns="http://www.w3.org/2000/svg" width="11.416" height="13.536" viewBox="0 0 11.416 13.536">
  <g id="Grupo_928" data-name="Grupo 928" transform="translate(0)">
    <g id="Grupo_927" data-name="Grupo 927" transform="translate(0)">
      <path id="Trazado_3163" data-name="Trazado 3163" d="M50.86,1.794H49.719V.652A.654.654,0,0,0,49.066,0H40.749A.654.654,0,0,0,40.1.652V11.089a.654.654,0,0,0,.652.652h1.142v1.142a.654.654,0,0,0,.652.652h5.545a1.9,1.9,0,0,0,1.127-.447l1.822-1.715a1.732,1.732,0,0,0,.475-1.1V2.446A.654.654,0,0,0,50.86,1.794Zm-8.969.652v8.806H40.749a.165.165,0,0,1-.163-.163V.652a.165.165,0,0,1,.163-.163h8.317a.165.165,0,0,1,.163.163V1.794H42.543A.654.654,0,0,0,41.891,2.446ZM50.7,11.017,48.88,12.732a.866.866,0,0,1-.14.1v-1.5a.409.409,0,0,1,.408-.408h1.632A.685.685,0,0,1,50.7,11.017Zm.321-.743a.76.76,0,0,1-.022.163H49.148a.9.9,0,0,0-.9.9v1.693a.853.853,0,0,1-.163.02H42.543a.165.165,0,0,1-.163-.163V2.446a.165.165,0,0,1,.163-.163H50.86a.165.165,0,0,1,.163.163Z" transform="translate(-40.097)" fill="#009be8"/>
    </g>
  </g>
  <g id="Grupo_930" data-name="Grupo 930" transform="translate(3.996 4.077)">
    <g id="Grupo_929" data-name="Grupo 929">
      <path id="Trazado_3164" data-name="Trazado 3164" d="M196.209,154.216H191.48a.245.245,0,1,0,0,.489h4.729a.245.245,0,1,0,0-.489Z" transform="translate(-191.235 -154.216)" fill="#009be8"/>
    </g>
  </g>
  <g id="Grupo_932" data-name="Grupo 932" transform="translate(3.996 7.339)">
    <g id="Grupo_931" data-name="Grupo 931">
      <path id="Trazado_3165" data-name="Trazado 3165" d="M196.209,277.59H191.48a.245.245,0,0,0,0,.489h4.729a.245.245,0,1,0,0-.489Z" transform="translate(-191.235 -277.59)" fill="#009be8"/>
    </g>
  </g>
  <g id="Grupo_934" data-name="Grupo 934" transform="translate(3.996 8.969)">
    <g id="Grupo_933" data-name="Grupo 933">
      <path id="Trazado_3166" data-name="Trazado 3166" d="M194.09,339.277h-2.609a.245.245,0,1,0,0,.489h2.609a.245.245,0,0,0,0-.489Z" transform="translate(-191.236 -339.277)" fill="#009be8"/>
    </g>
  </g>
  <g id="Grupo_936" data-name="Grupo 936" transform="translate(3.996 5.708)">
    <g id="Grupo_935" data-name="Grupo 935">
      <path id="Trazado_3167" data-name="Trazado 3167" d="M196.209,215.9H191.48a.245.245,0,0,0,0,.489h4.729a.245.245,0,1,0,0-.489Z" transform="translate(-191.235 -215.903)" fill="#009be8"/>
    </g>
  </g>
</svg>
