<svg xmlns="http://www.w3.org/2000/svg" width="44" height="44" viewBox="0 0 44 44">
  <path id="Icon_ionic-ios-checkmark-circle" data-name="Icon ionic-ios-checkmark-circle" d="M25.375,3.375a22,22,0,1,0,22,22A22,22,0,0,0,25.375,3.375ZM36.639,19.293,22.5,33.5h-.011a1.91,1.91,0,0,1-1.227.582,1.852,1.852,0,0,1-1.238-.6L14.1,27.554a.421.421,0,0,1,0-.6l1.883-1.883a.409.409,0,0,1,.592,0l4.7,4.7,12.9-13a.418.418,0,0,1,.3-.127h0a.384.384,0,0,1,.3.127l1.851,1.914A.417.417,0,0,1,36.639,19.293Z" transform="translate(-3.375 -3.375)" fill="#95ea18"/>
</svg>
