<svg xmlns="http://www.w3.org/2000/svg" width="22.198" height="22.198" viewBox="0 0 22.198 22.198">
    <path id="Icon_awesome-user-alt" data-name="Icon awesome-user-alt" d="M10.6,11.924A5.962,5.962,0,1,0,4.637,5.962,5.964,5.964,0,0,0,10.6,11.924Zm5.3,1.325H13.618a7.207,7.207,0,0,1-6.037,0H5.3a5.3,5.3,0,0,0-5.3,5.3v.662A1.988,1.988,0,0,0,1.987,21.2H19.211A1.988,1.988,0,0,0,21.2,19.211v-.662A5.3,5.3,0,0,0,15.9,13.249Z" transform="translate(0.5 0.5)" fill="none" stroke="#009be8" stroke-width="1"/>
</svg>
