<svg id="_1.Webpay_FN_300px" data-name=" 1.Webpay FN 300px" xmlns="http://www.w3.org/2000/svg" width="154.444" height="49.919" viewBox="0 0 154.444 49.919">
  <g id="Grupo_883" data-name="Grupo 883" transform="translate(7.698 39.134)">
    <path id="Trazado_3011" data-name="Trazado 3011" d="M11.664,59.948a.854.854,0,1,0-.846-.862v.008a.85.85,0,0,0,.845.854h0" transform="translate(-10.818 -55.934)" fill="#009be8"/>
    <path id="Trazado_3012" data-name="Trazado 3012" d="M103.749,69.336a.854.854,0,1,0-.845-.862v.009a.85.85,0,0,0,.845.854h0" transform="translate(-37.38 -58.642)" fill="#680661"/>
    <path id="Trazado_3013" data-name="Trazado 3013" d="M45.067,61.518h0a3.014,3.014,0,0,0-.931-2.293l-.042-.038-.009-.009h0a3.4,3.4,0,0,0-2.231-.747h-.223a3.389,3.389,0,0,0-2.224.747h0l-.051.046a3.008,3.008,0,0,0-.931,2.282h0v0l0,4.893a.244.244,0,0,0,.077.175.272.272,0,0,0,.186.071h.871a.272.272,0,0,0,.186-.071.238.238,0,0,0,.077-.175V61.676a2.083,2.083,0,0,1,.5-1.508,2.277,2.277,0,0,1,2.86,0,2.088,2.088,0,0,1,.5,1.5V66.4a.241.241,0,0,0,.077.175.272.272,0,0,0,.186.071h.872A.272.272,0,0,0,45,66.575a.236.236,0,0,0,.077-.175Z" transform="translate(-18.78 -55.989)" fill="#ea076e"/>
    <path id="Trazado_3014" data-name="Trazado 3014" d="M87.737,61.516h0a3.014,3.014,0,0,0-.931-2.293l-.045-.043-.009-.009h0a3.4,3.4,0,0,0-2.231-.747H84.3a3.389,3.389,0,0,0-2.224.747h0l-.051.046a3.01,3.01,0,0,0-.931,2.282h0v0l0,4.893a.244.244,0,0,0,.077.175.272.272,0,0,0,.186.071h.871a.272.272,0,0,0,.186-.071.238.238,0,0,0,.077-.175V61.669a2.083,2.083,0,0,1,.5-1.508,2.277,2.277,0,0,1,2.86,0,2.088,2.088,0,0,1,.5,1.51V66.4a.244.244,0,0,0,.077.175.272.272,0,0,0,.186.071h.872a.272.272,0,0,0,.186-.071.236.236,0,0,0,.077-.175Z" transform="translate(-31.087 -55.987)" fill="#ea076e"/>
    <path id="Trazado_3015" data-name="Trazado 3015" d="M65.3,61.584v.037a4.564,4.564,0,0,1-.381,2.086,1.728,1.728,0,0,1-1.669.889H63.2a1.729,1.729,0,0,1-1.683-.889,4.556,4.556,0,0,1-.382-2.1v-.047a3.935,3.935,0,0,1,.382-1.948,1.727,1.727,0,0,1,1.683-.889h.035a1.73,1.73,0,0,1,1.684.889,3.948,3.948,0,0,1,.38,1.948Zm.258-3.3a.12.12,0,0,0-.016-.017,3.275,3.275,0,0,0-2.206-.741h-.05a3.151,3.151,0,0,0-2.149.712h0v-.487h0V55.288a.241.241,0,0,0-.077-.174.272.272,0,0,0-.186-.071H60.02a.277.277,0,0,0-.186.071.236.236,0,0,0-.077.174v2.466h0v5.234h0V65.44a.241.241,0,0,0,.077.174.272.272,0,0,0,.186.071h.858a.274.274,0,0,0,.185-.071.236.236,0,0,0,.077-.174v-.507a2.819,2.819,0,0,0,2.148.86h.053a3.276,3.276,0,0,0,2.206-.743,4.654,4.654,0,0,0,1.138-3.464,4.326,4.326,0,0,0-1.124-3.3" transform="translate(-24.935 -55.012)" fill="#ea076e"/>
    <path id="Trazado_3016" data-name="Trazado 3016" d="M32.886,63.672a1.566,1.566,0,0,1-.338,1.185,2.377,2.377,0,0,1-1.738.494h-.021a2.391,2.391,0,0,1-1.368-.3.947.947,0,0,1-.367-.843V64.19a1.011,1.011,0,0,1,.371-.869A2.18,2.18,0,0,1,30.739,63h2.145v.667Zm1.441-2.522v-.006a2.5,2.5,0,0,0-.854-2.016,3.847,3.847,0,0,0-2.5-.7h-.053a3.449,3.449,0,0,0-2.712.971h0l-.039.047c-.051.057-.1.116-.151.179h0l-.071.083a.236.236,0,0,0-.054.183.273.273,0,0,0,.094.177l.04.034a.424.424,0,0,0,.051.051l.153.125.407.352a.27.27,0,0,0,.187.066A.233.233,0,0,0,29,60.61l.261-.31h0a1.544,1.544,0,0,1,.532-.391,3,3,0,0,1,1.18-.189h.019a2.249,2.249,0,0,1,1.489.39,1.386,1.386,0,0,1,.4,1.125v.539H30.652a3.533,3.533,0,0,0-2.2.63,2.206,2.206,0,0,0-.842,1.8v.028a2.346,2.346,0,0,0,.657,1.65,3.273,3.273,0,0,0,2.484.768h.593a2.98,2.98,0,0,0,2.3-.783,3.171,3.171,0,0,0,.681-2.229V61.151Z" transform="translate(-15.662 -55.983)" fill="#ea076e"/>
    <path id="Trazado_3017" data-name="Trazado 3017" d="M71.737,64.224V64.2a1.007,1.007,0,0,1,.374-.868,2.18,2.18,0,0,1,1.314-.317h2.145v.667a1.564,1.564,0,0,1-.338,1.184,2.38,2.38,0,0,1-1.739.494h-.02a2.385,2.385,0,0,1-1.368-.3.945.945,0,0,1-.368-.842m5.273-3.06v-.006a2.5,2.5,0,0,0-.854-2.015,3.845,3.845,0,0,0-2.5-.7h-.054a3.451,3.451,0,0,0-2.712.97h0l-.039.047c-.051.057-.1.116-.151.178h0l-.071.083a.237.237,0,0,0-.053.183.278.278,0,0,0,.093.177l.039.034a.423.423,0,0,0,.051.051l.153.125.407.351a.273.273,0,0,0,.187.066.235.235,0,0,0,.17-.083l.261-.31h0a1.551,1.551,0,0,1,.532-.39,3,3,0,0,1,1.18-.189h.024a2.249,2.249,0,0,1,1.489.39,1.387,1.387,0,0,1,.4,1.124v.538H73.335a3.532,3.532,0,0,0-2.2.63,2.205,2.205,0,0,0-.842,1.8v.028a2.35,2.35,0,0,0,.657,1.649,3.273,3.273,0,0,0,2.484.768h.6a2.98,2.98,0,0,0,2.3-.783,3.167,3.167,0,0,0,.681-2.227V61.164Z" transform="translate(-27.974 -55.988)" fill="#ea076e"/>
    <path id="Trazado_3018" data-name="Trazado 3018" d="M17.026,57.477H15.554V55.983h0v-.719a.246.246,0,0,0-.253-.236h-.887a.261.261,0,0,0-.179.071.232.232,0,0,0-.075.166V56.6h0v6.992a2.1,2.1,0,0,0,.524,1.467,2.07,2.07,0,0,0,1.54.608h.427v0h.373a.238.238,0,0,0,.174-.078.275.275,0,0,0,.071-.187v-.867a.277.277,0,0,0-.071-.186.234.234,0,0,0-.174-.078H16.34a1.17,1.17,0,0,1-.347-.056.586.586,0,0,1-.135-.071.541.541,0,0,1-.1-.081.96.96,0,0,1-.207-.68v-4.5h1.471a.238.238,0,0,0,.174-.078.275.275,0,0,0,.071-.187v-.865a.277.277,0,0,0-.071-.186.234.234,0,0,0-.174-.078" transform="translate(-11.782 -55.008)" fill="#ea076e"/>
    <path id="Trazado_3019" data-name="Trazado 3019" d="M25.042,59.477l-.082-.091a.077.077,0,0,0-.019-.031l-.049-.051h0l-.071-.071-.055-.062h0a2.386,2.386,0,0,0-1.787-.749h-.052a1.837,1.837,0,0,0-1.36.613l-.23.273V58.7a.241.241,0,0,0-.077-.174.274.274,0,0,0-.186-.071h-.857a.272.272,0,0,0-.186.071.236.236,0,0,0-.077.174v7.7a.241.241,0,0,0,.077.174.271.271,0,0,0,.186.071h.86a.272.272,0,0,0,.186-.071.236.236,0,0,0,.077-.174V61.308a1.933,1.933,0,0,1,.381-1.084,1.3,1.3,0,0,1,1.052-.49,1.375,1.375,0,0,1,.551.088,1.468,1.468,0,0,1,.457.349l.041.043.186.208a.235.235,0,0,0,.175.078.277.277,0,0,0,.188-.071l.64-.585a.281.281,0,0,0,.09-.181.239.239,0,0,0-.06-.183" transform="translate(-13.453 -55.986)" fill="#ea076e"/>
    <path id="Trazado_3020" data-name="Trazado 3020" d="M54.973,62.434l-.011-.007h0a3.67,3.67,0,0,0-1.818-.529l-1.281-.108a2,2,0,0,1-1.055-.306.749.749,0,0,1-.266-.631v-.007h0v-.016a.941.941,0,0,1,.4-.808,2.241,2.241,0,0,1,1.3-.317h.006a3.527,3.527,0,0,1,1.95.525h0l.324.228a.225.225,0,0,0,.181.035.269.269,0,0,0,.162-.11l.478-.7a.274.274,0,0,0,.046-.192.232.232,0,0,0-.039-.1.246.246,0,0,0-.076-.088l-.055-.039a5.193,5.193,0,0,0-2.975-.854,3.779,3.779,0,0,0-2.272.644,2.158,2.158,0,0,0-.9,1.761v.034a1.965,1.965,0,0,0,.7,1.573,3.517,3.517,0,0,0,1.979.665l1.316.107a1.747,1.747,0,0,1,.961.3.773.773,0,0,1,.255.64v.021a.965.965,0,0,1-.466.869,3.023,3.023,0,0,1-1.579.33h-.026a3.277,3.277,0,0,1-2.182-.662l-.278-.235a.235.235,0,0,0-.182-.053.274.274,0,0,0-.174.1l-.551.666a.278.278,0,0,0-.064.191.24.24,0,0,0,.084.172l.261.221h0l.016.011.034.028h0a5.052,5.052,0,0,0,3.055.866h.022A4.4,4.4,0,0,0,54.767,66a2.206,2.206,0,0,0,.989-1.85v-.033a1.963,1.963,0,0,0-.783-1.688" transform="translate(-21.77 -55.983)" fill="#ea076e"/>
    <path id="Trazado_3021" data-name="Trazado 3021" d="M98.972,65.319,97.9,63.8l-2.149-3.141,1.671-1.779.976-1.025.059-.065a.186.186,0,0,0,.022-.262l-.014-.014a.272.272,0,0,0-.186-.071h-1.12a.359.359,0,0,0-.2.095h0l-3.755,4v-6.3a.241.241,0,0,0-.077-.174A.274.274,0,0,0,92.938,55h-.855a.271.271,0,0,0-.186.071.236.236,0,0,0-.077.174v10.17a.244.244,0,0,0,.077.175.274.274,0,0,0,.186.071h.857a.275.275,0,0,0,.186-.071.238.238,0,0,0,.077-.175V63.362L94.829,61.6l1.094,1.637h0l1.538,2.3a.254.254,0,0,0,.221.132H98.8a.271.271,0,0,0,.186-.071.206.206,0,0,0-.009-.276" transform="translate(-34.183 -54.999)" fill="#ea076e"/>
    <path id="Trazado_3022" data-name="Trazado 3022" d="M88.368,55.106h.152l.226.663.226-.663h.149v.783h-.1v-.661l-.225.662h-.106l-.225-.662v.662h-.1v-.783Z" transform="translate(-33.186 -55.03)" fill="#ea076e"/>
    <path id="Trazado_3023" data-name="Trazado 3023" d="M90.41,55.466a.2.2,0,0,0,.116-.03.127.127,0,0,0,.042-.108.116.116,0,0,0-.06-.114.19.19,0,0,0-.084-.016h-.254v.268Zm-.347-.356h.356a.335.335,0,0,1,.142.026.182.182,0,0,1,.108.184.207.207,0,0,1-.028.116.236.236,0,0,1-.083.071.17.17,0,0,1,.071.048.181.181,0,0,1,.023.1l.006.1a.339.339,0,0,0,.007.071.068.068,0,0,0,.035.046V55.9h-.13c0-.009,0-.016-.009-.026a.322.322,0,0,1,0-.064l-.007-.132a.113.113,0,0,0-.055-.1.234.234,0,0,0-.094-.014h-.236v.337h-.106v-.783Z" transform="translate(-33.676 -55.031)" fill="#ea076e"/>
    <path id="Trazado_3024" data-name="Trazado 3024" d="M89.731,56.159a.051.051,0,0,1-.051-.051V56.1a.054.054,0,1,1,.051.057" transform="translate(-33.566 -55.302)" fill="#ea076e"/>
    <path id="Trazado_3025" data-name="Trazado 3025" d="M91.239,56.157a.053.053,0,0,1-.054-.053v0a.054.054,0,0,1,.051-.058h0a.053.053,0,0,1,.054.051V56.1a.053.053,0,0,1-.048.057h-.007Z" transform="translate(-34 -55.3)" fill="#ea076e"/>
  </g>
  <g id="Grupo_884" data-name="Grupo 884" transform="translate(0)">
    <path id="Trazado_3026" data-name="Trazado 3026" d="M107.975,19.559v.112a13.636,13.636,0,0,1-1.138,6.23c-.87,1.565-2.27,2.612-4.987,2.654a.608.608,0,0,0-.1,0H101.7c-2.736-.028-4.153-1.076-5.029-2.656a13.61,13.61,0,0,1-1.143-6.27v-.142a11.743,11.743,0,0,1,1.143-5.821c.874-1.581,2.292-2.633,5.029-2.655h.1c2.738.025,4.15,1.072,5.033,2.659a11.8,11.8,0,0,1,1.138,5.818Zm.77-9.854a.519.519,0,0,0-.046-.051,9.777,9.777,0,0,0-6.6-2.216,1.274,1.274,0,0,0-.147,0,9.414,9.414,0,0,0-6.421,2.128h0V8.1h0V.739A.716.716,0,0,0,95.31.218.815.815,0,0,0,94.755,0H92.193a.82.82,0,0,0-.554.218.712.712,0,0,0-.228.522V8.1h0v15.64h0v7.329a.718.718,0,0,0,.228.52.819.819,0,0,0,.556.218h2.562a.812.812,0,0,0,.554-.218.7.7,0,0,0,.231-.52V29.554a8.42,8.42,0,0,0,6.417,2.572h.158A9.8,9.8,0,0,0,108.7,29.9c2.762-2.615,3.393-6.623,3.4-10.348-.007-3.706-.64-7.251-3.356-9.856" transform="translate(-26.368 0)" fill="#75086f"/>
    <path id="Trazado_3027" data-name="Trazado 3027" d="M141.164,23.059a11.773,11.773,0,0,1-1.138,5.818c-.882,1.586-2.295,2.633-5.033,2.659h-.1c-2.736-.025-4.153-1.074-5.029-2.656a11.8,11.8,0,0,1-1.143-5.821v-.143a13.6,13.6,0,0,1,1.143-6.27c.874-1.58,2.292-2.629,5.029-2.656h.045a.608.608,0,0,0,.1,0c2.718.041,4.117,1.087,4.987,2.654a13.637,13.637,0,0,1,1.138,6.23v.184Zm.768,9.779c2.715-2.6,3.348-6.15,3.356-9.855-.009-3.726-.64-7.734-3.4-10.348a9.8,9.8,0,0,0-6.586-2.221h-.158a8.42,8.42,0,0,0-6.417,2.572V11.47a.7.7,0,0,0-.231-.52.812.812,0,0,0-.554-.218h-2.562a.819.819,0,0,0-.556.218.718.718,0,0,0-.228.52V18.8h0V34.434h0V41.8a.712.712,0,0,0,.228.522.82.82,0,0,0,.554.218h2.562a.813.813,0,0,0,.556-.218.716.716,0,0,0,.228-.522V34.434h0V32.98h0a9.414,9.414,0,0,0,6.421,2.128,1.273,1.273,0,0,0,.147,0,9.777,9.777,0,0,0,6.6-2.216.449.449,0,0,0,.047-.051" transform="translate(-35.939 -3.002)" fill="#75086f"/>
    <path id="Trazado_3028" data-name="Trazado 3028" d="M196.383,37.17c-.226.611-.63,1.6-.9,2.189a7.044,7.044,0,0,1-1.178,1.766,5.077,5.077,0,0,1-2.167,1.309,7,7,0,0,1-1.346.278c-.65.045-1.6.083-2.107.083a1.083,1.083,0,0,1-.925-1.183V39.87c0-.65.265-1.183.587-1.183s1.117-.056,1.764-.122a2.077,2.077,0,0,0,.944-.4,2.524,2.524,0,0,0,.68-.845c.271-.592.672-1.579.889-2.193l.473-1.338a3.845,3.845,0,0,0-.011-2.228L185.91,11.952a.774.774,0,0,1,.778-1.112H189.2a1.768,1.768,0,0,1,1.565,1.121l4.7,13.871c.21.618.547.615.751,0l4.582-13.864a1.752,1.752,0,0,1,1.556-1.124H204.9a.773.773,0,0,1,.775,1.111Z" transform="translate(-53.603 -3.126)" fill="#75086f"/>
    <path id="Trazado_3029" data-name="Trazado 3029" d="M160.538,27.836v-.056a2.978,2.978,0,0,1,1.1-2.562,6.426,6.426,0,0,1,3.879-.935h6.333v1.969c-.006,1.931-.427,3-1,3.5-1.37,1.262-3.067,1.452-5.135,1.458h-.06a7.058,7.058,0,0,1-4.039-.881,2.791,2.791,0,0,1-1.085-2.49m15.57-9.028V18.79a7.387,7.387,0,0,0-2.523-5.95c-1.72-1.412-4.19-2.076-7.368-2.078h-.159c-3.34-.009-5.99.717-8.008,2.863l-.009-.007-.115.139c-.152.167-.3.342-.446.526v.006l-.206.245a.7.7,0,0,0-.159.541.819.819,0,0,0,.276.523l.117.1a1.169,1.169,0,0,0,.149.148l.451.371,1.2,1.038a.791.791,0,0,0,.552.2.693.693,0,0,0,.5-.244l.771-.915h0A4.613,4.613,0,0,1,162.7,15.14a8.879,8.879,0,0,1,3.487-.556h.07c2.222,0,3.6.457,4.4,1.151a4.1,4.1,0,0,1,1.2,3.319v1.589h-6.6a10.438,10.438,0,0,0-6.494,1.859,6.509,6.509,0,0,0-2.486,5.306v.083a6.928,6.928,0,0,0,1.942,4.87c1.688,1.663,3.938,2.267,7.335,2.267h1.76c3.112,0,5.344-.766,6.782-2.315s2.009-3.79,2.009-6.576V18.808Z" transform="translate(-45.078 -3.104)" fill="#75086f"/>
    <path id="Trazado_3030" data-name="Trazado 3030" d="M41.616,10.907a1.737,1.737,0,0,0-1.575,1.19L35.56,27.9c-.186.655-.512.662-.724.015L29.624,12.081A1.827,1.827,0,0,0,28,10.907h-.935a1.823,1.823,0,0,0-1.617,1.175L20.274,27.916c-.213.647-.538.64-.724-.013L15.029,12.1a1.742,1.742,0,0,0-1.578-1.19h-1.9a.854.854,0,0,0-.863,1.179L17.6,33.9a1.806,1.806,0,0,0,1.611,1.179h1.308a1.641,1.641,0,0,0,1.455-1.047L27.142,18.6c.213-.645.569-.645.789,0L33.1,33.9a1.849,1.849,0,0,0,1.633,1.172H36a1.666,1.666,0,0,0,1.49-1.093l6.9-21.9a.854.854,0,0,0-.867-1.18Z" transform="translate(-3.063 -3.145)" fill="#75086f"/>
    <path id="Trazado_3031" data-name="Trazado 3031" d="M79.232,22.1c0-7.174-3.806-11.63-9.933-11.63-6.219,0-9.933,4.6-9.933,12.291,0,7.925,3.745,12.291,10.545,12.291a11.075,11.075,0,0,0,8.777-3.7l.3-.3-2.917-2.562-.268.267a7.268,7.268,0,0,1-5.8,2.524c-4.027,0-6.308-2.562-6.431-7.212H79.231ZM63.592,20.71a8.643,8.643,0,0,1,.653-3.307,5.558,5.558,0,0,1,10.1,0A8.66,8.66,0,0,1,75,20.714Z" transform="translate(-17.124 -3.021)" fill="#75086f"/>
    <path id="Trazado_3032" data-name="Trazado 3032" d="M2.457,15.935A2.476,2.476,0,1,0,0,13.441v.019a2.469,2.469,0,0,0,2.457,2.475" transform="translate(0 -3.168)" fill="#ea076e"/>
    <path id="Trazado_3033" data-name="Trazado 3033" d="M212.548,42.847a2.476,2.476,0,1,0-2.455-2.5v.023a2.467,2.467,0,0,0,2.455,2.474" transform="translate(-60.602 -10.931)" fill="#ea076e"/>
  </g>
</svg>
