<svg xmlns="http://www.w3.org/2000/svg" width="27.627" height="15.457" viewBox="0 0 27.627 15.457">
    <g id="Grupo_1057" data-name="Grupo 1057" transform="translate(-149.097 -372.345)">
        <g id="box" transform="translate(161.267 372.345)">
            <path id="Trazado_175" data-name="Trazado 175" d="M15.454,3.812a.483.483,0,0,0-.276-.385L7.933.046a.483.483,0,0,0-.409,0L.279,3.427A.483.483,0,0,0,0,3.812s0,.05,0,.052v8.212a.483.483,0,0,0,.3.448l7.246,2.9a.483.483,0,0,0,.359,0l7.246-2.9a.483.483,0,0,0,.3-.448V3.865S15.455,3.816,15.454,3.812Zm-7.726-2.8,6.03,2.814-2.322.929L5.293,2.153ZM4.115,2.7l6.048,2.566-2.435.974L1.7,3.83ZM.966,4.578,7.246,7.09v7.171L.966,11.749Zm7.246,9.683V7.09l6.279-2.512v7.171Z" transform="translate(0 0)" fill="#009be8"/>
        </g>
        <path id="Trazado_3292" data-name="Trazado 3292" d="M203.579,282.2c-1.108,0-2.217,0-3.325,0a.7.7,0,0,1-.729-.579.684.684,0,0,1,.42-.761.94.94,0,0,1,.339-.056q3.213,0,6.425.007a1.657,1.657,0,0,1,.442.027.679.679,0,0,1,.485.788.7.7,0,0,1-.707.574c-.893.005-1.787,0-2.68,0Z" transform="translate(-50.416 97.785)" fill="#009be8"/>
        <path id="Trazado_3293" data-name="Trazado 3293" d="M213.226,303.75q-1.264,0-2.528,0a.7.7,0,0,1-.776-.685.694.694,0,0,1,.773-.713q2.553,0,5.106,0a.7.7,0,1,1,0,1.4C214.945,303.753,214.086,303.75,213.226,303.75Z" transform="translate(-59.022 80.693)" fill="#009be8"/>
        <path id="Trazado_3294" data-name="Trazado 3294" d="M213.267,259.236h2.478c.505,0,.812.261.82.691a.715.715,0,0,1-.808.706q-2.527,0-5.055,0a.7.7,0,1,1-.011-1.4C211.548,259.234,212.407,259.236,213.267,259.236Z" transform="translate(-59.019 114.892)" fill="#009be8"/>
    </g>
</svg>
