<svg xmlns="http://www.w3.org/2000/svg" width="15.457" height="15.457" viewBox="0 0 15.457 15.457">
    <g id="Grupo_1059" data-name="Grupo 1059" transform="translate(-154.267 -371.345)">
        <g id="box" transform="translate(154.267 371.345)">
            <path id="Trazado_175" data-name="Trazado 175" d="M15.454,3.812a.483.483,0,0,0-.276-.385L7.933.046a.483.483,0,0,0-.409,0L.279,3.427A.483.483,0,0,0,0,3.812s0,.05,0,.052v8.212a.483.483,0,0,0,.3.448l7.246,2.9a.483.483,0,0,0,.359,0l7.246-2.9a.483.483,0,0,0,.3-.448V3.865S15.455,3.816,15.454,3.812Zm-7.726-2.8,6.03,2.814-2.322.929L5.293,2.153ZM4.115,2.7l6.048,2.566-2.435.974L1.7,3.83ZM.966,4.578,7.246,7.09v7.171L.966,11.749Zm7.246,9.683V7.09l6.279-2.512v7.171Z" transform="translate(0 0)" fill="#009be8"/>
        </g>
    </g>
</svg>
