<svg xmlns="http://www.w3.org/2000/svg" width="19.159" height="13.058" viewBox="0 0 19.159 13.058">
  <g id="Grupo_902" data-name="Grupo 902" transform="translate(15648 7643)">
    <path id="Icon_ionic-ios-arrow-round-down" data-name="Icon ionic-ios-arrow-round-down" d="M19.789,16.2a.593.593,0,0,0-.835,0l-2.762,2.753V8.46a.59.59,0,0,0-1.179,0V18.951l-2.762-2.758a.6.6,0,0,0-.835,0,.587.587,0,0,0,0,.83l3.764,3.737h0a.662.662,0,0,0,.186.122.563.563,0,0,0,.227.045.591.591,0,0,0,.413-.168l3.764-3.737A.578.578,0,0,0,19.789,16.2Z" transform="translate(-15659.247 -7650.875)" fill="#033f5d"/>
    <path id="Icon_ionic-ios-arrow-round-up" data-name="Icon ionic-ios-arrow-round-up" d="M19.789,12.613a.593.593,0,0,1-.835,0L16.193,9.864V20.355a.59.59,0,0,1-1.179,0V9.864l-2.762,2.758a.6.6,0,0,1-.835,0,.587.587,0,0,1,0-.83L15.186,8.05h0a.662.662,0,0,1,.186-.122.563.563,0,0,1,.227-.045.591.591,0,0,1,.413.168l3.764,3.737A.578.578,0,0,1,19.789,12.613Z" transform="translate(-15648.797 -7650.882)" fill="#033f5d"/>
  </g>
</svg>
