<svg xmlns="http://www.w3.org/2000/svg" width="82.444" height="82.444" viewBox="0 0 82.444 82.444">
  <g id="Icon_ionic-ios-checkmark-circle-outline" data-name="Icon ionic-ios-checkmark-circle-outline" transform="translate(-3.375 -3.375)">
    <path id="Trazado_3227" data-name="Trazado 3227" d="M52.885,16.031,49.4,12.444a.75.75,0,0,0-.555-.238h0a.72.72,0,0,0-.555.238L24.109,36.8,15.31,28a.766.766,0,0,0-1.11,0l-3.528,3.528a.79.79,0,0,0,0,1.13l11.1,11.1a3.51,3.51,0,0,0,2.319,1.13,3.678,3.678,0,0,0,2.3-1.09h.02l26.5-26.636A.847.847,0,0,0,52.885,16.031Z" transform="translate(12.838 16.061)" fill="#00dbae"/>
    <path id="Trazado_3228" data-name="Trazado 3228" d="M44.6,8.924a35.679,35.679,0,0,1,25.229,60.9A35.679,35.679,0,0,1,19.368,19.368,35.437,35.437,0,0,1,44.6,8.924m0-5.549A41.222,41.222,0,1,0,85.819,44.6,41.216,41.216,0,0,0,44.6,3.375Z" fill="#00dbae"/>
  </g>
</svg>
