<svg xmlns="http://www.w3.org/2000/svg" width="85.444" height="85.444" viewBox="0 0 85.444 85.444">
  <g id="Icon_ionic-md-close-circle-outline" data-name="Icon ionic-md-close-circle-outline" transform="translate(-1.875 -1.875)">
    <path id="Trazado_3229" data-name="Trazado 3229" d="M44.6,11.7A32.885,32.885,0,1,1,21.33,21.33,32.762,32.762,0,0,1,44.6,11.7m0-8.324A41.222,41.222,0,1,0,85.819,44.6,41.216,41.216,0,0,0,44.6,3.375Z" transform="translate(0 0)" fill="#cb0000" stroke="#fff" stroke-width="3"/>
    <path id="Trazado_3230" data-name="Trazado 3230" d="M51.91,46.143,46.143,51.91,31.3,37.066,16.455,51.91l-5.767-5.767L25.531,31.3,10.687,16.455l5.767-5.767L31.3,25.531,46.143,10.687l5.767,5.767L37.066,31.3Z" transform="translate(13.299 13.299)" fill="#cb0000" stroke="#fff" stroke-width="3"/>
  </g>
</svg>
