<svg xmlns="http://www.w3.org/2000/svg" width="35.593" height="21.996" viewBox="0 0 35.593 21.996">
  <path id="Icon_awesome-handshake" data-name="Icon awesome-handshake" d="M23.5,4.5H18.853a1.729,1.729,0,0,0-1.168.454L12.372,9.819c-.005.005-.011.016-.016.022a2.15,2.15,0,0,0-.114,3.027,2.254,2.254,0,0,0,3.032.146c.005-.005.016-.005.022-.011l4.319-3.957a.865.865,0,0,1,1.168,1.276l-1.411,1.292L27.242,18a3.894,3.894,0,0,1,.427.416V7.959L24.718,5.008A1.717,1.717,0,0,0,23.5,4.5ZM29.4,7.97v12.1a1.728,1.728,0,0,0,1.73,1.73h3.459V7.97ZM32,20.072a.865.865,0,1,1,.865-.865A.867.867,0,0,1,32,20.072ZM0,21.8H3.459a1.728,1.728,0,0,0,1.73-1.73V7.97H0Zm2.594-3.454a.865.865,0,1,1-.865.865A.867.867,0,0,1,2.594,18.343Zm23.561,1.005L18.086,12.8l-1.622,1.486A3.891,3.891,0,0,1,11.2,8.548L15.626,4.5H11.1a1.727,1.727,0,0,0-1.222.508L6.919,7.959v12.1h.989L12.8,24.488a3.459,3.459,0,0,0,4.865-.5l.011-.011.968.838a2.009,2.009,0,0,0,2.827-.292l1.7-2.086.292.238a1.727,1.727,0,0,0,2.432-.254l.513-.632a1.733,1.733,0,0,0-.249-2.438Z" transform="translate(0.5 -4)" fill="none" stroke="#fff" stroke-width="1"/>
</svg>
