<svg xmlns="http://www.w3.org/2000/svg" width="16.235" height="12.449" viewBox="0 0 16.235 12.449">
    <g id="Grupo_1048" data-name="Grupo 1048" transform="translate(-199.514 -223.876)">
        <path id="Trazado_3282" data-name="Trazado 3282" d="M249.665,225.279v-.625c-.217,0-.426.005-.636,0a.386.386,0,0,1-.334-.589.373.373,0,0,1,.333-.186c.693,0,1.387,0,2.08,0a.378.378,0,0,1,.379.377.372.372,0,0,1-.359.394c-.219.011-.439,0-.667,0v.624a5.492,5.492,0,0,1,4.292,2.595,5.34,5.34,0,0,1,.788,3.7,5.533,5.533,0,0,1-10.971-.12,5.367,5.367,0,0,1,1.227-4.168A5.461,5.461,0,0,1,249.665,225.279Zm-4.357,5.53a4.754,4.754,0,1,0,4.777-4.761A4.756,4.756,0,0,0,245.308,230.809Z" transform="translate(-39.849)" fill="#fff"/>
        <path id="Trazado_3283" data-name="Trazado 3283" d="M201.77,281.578c-.615,0-1.23,0-1.846,0a.388.388,0,0,1-.4-.322.38.38,0,0,1,.233-.422.522.522,0,0,1,.188-.031q1.783,0,3.567,0a.92.92,0,0,1,.245.015.377.377,0,0,1,.269.437.386.386,0,0,1-.392.319c-.5,0-.992,0-1.488,0Z" transform="translate(0 -50.391)" fill="#fff"/>
        <path id="Trazado_3284" data-name="Trazado 3284" d="M211.756,303.127h-1.4a.391.391,0,0,1-.431-.38.385.385,0,0,1,.429-.4q1.417,0,2.835,0a.39.39,0,1,1,0,.776C212.71,303.128,212.233,303.127,211.756,303.127Z" transform="translate(-9.213 -69.465)" fill="#fff"/>
        <path id="Trazado_3285" data-name="Trazado 3285" d="M211.777,259.236h1.376c.281,0,.451.145.455.384a.4.4,0,0,1-.449.392h-2.806a.39.39,0,1,1-.006-.775C210.823,259.235,211.3,259.236,211.777,259.236Z" transform="translate(-9.21 -31.3)" fill="#fff"/>
        <path id="Trazado_3286" data-name="Trazado 3286" d="M250.783,236.118a1.028,1.028,0,0,1-.185-1.005.8.8,0,0,1,.689-.555,1.033,1.033,0,0,1,.953.4Z" transform="translate(-45.167 -9.447)" fill="#fff"/>
        <path id="Trazado_3287" data-name="Trazado 3287" d="M321.6,236.111l-1.437-1.144a.925.925,0,1,1,1.437,1.144Z" transform="translate(-106.798 -9.448)" fill="#fff"/>
        <path id="Trazado_3288" data-name="Trazado 3288" d="M278.5,256.909c-.407-.115-.8-.227-1.191-.338-.283-.08-.295-.107-.105-.333q1.3-1.542,2.6-3.08c.036-.043.112-.052.17-.077a.5.5,0,0,1,.03.195c-.235.833-.477,1.664-.717,2.5-.014.048-.027.1-.046.166.171.051.34.1.509.15.26.074.521.146.781.22.165.047.184.111.073.241l-2.972,3.467c-.006.007-.011.017-.018.02l-.172.07c-.01-.061-.042-.129-.025-.182.072-.227.159-.449.241-.673l.81-2.221C278.473,257,278.483,256.963,278.5,256.909Z" transform="translate(-68.658 -25.853)" fill="#fff"/>
    </g>
</svg>
