<?xml version="1.0" standalone="no"?>
<!DOCTYPE svg PUBLIC "-//W3C//DTD SVG 20010904//EN"
 "http://www.w3.org/TR/2001/REC-SVG-20010904/DTD/svg10.dtd">
<svg version="1.0" xmlns="http://www.w3.org/2000/svg"
 width="1200.000000pt" height="1200.000000pt" viewBox="0 0 1200.000000 1200.000000"
 preserveAspectRatio="xMidYMid meet">
<metadata>
Created by potrace 1.11, written by Peter Selinger 2001-2013
</metadata>
<g transform="translate(0.000000,1200.000000) scale(0.100000,-0.100000)"
fill="#00396b" stroke="none">
<path d="M3570 7372 l0 -2022 258 0 257 0 123 123 122 122 0 1520 0 1520 -380
380 -380 380 0 -2023z"/>
<path d="M5648 9038 l352 -353 352 353 353 352 -705 0 -705 0 353 -352z"/>
<path d="M8047 9012 l-377 -377 0 -1643 0 -1642 380 0 380 0 0 2020 c0 1111
-1 2020 -3 2020 -1 0 -172 -170 -380 -378z"/>
<path d="M4590 7180 c0 -643 3 -1170 7 -1170 4 0 175 167 380 372 l373 372 0
426 0 425 -373 373 c-204 204 -375 372 -380 372 -4 0 -7 -526 -7 -1170z"/>
<path d="M7022 7827 l-372 -372 0 -1053 0 -1052 380 0 380 0 0 1425 c0 784 -3
1425 -8 1425 -4 0 -175 -168 -380 -373z"/>
<path d="M5610 7235 c0 -129 3 -235 7 -235 4 0 61 53 125 117 l118 118 -117
117 c-65 65 -121 118 -125 118 -5 0 -8 -106 -8 -235z"/>
<path d="M6002 6977 l-372 -372 0 -628 0 -627 377 2 378 3 0 993 c0 547 -2
995 -6 997 -3 2 -173 -164 -377 -368z"/>
<path d="M4859 5841 l-494 -490 496 -1 c389 0 498 3 501 13 6 16 2 957 -4 963
-3 2 -227 -216 -499 -485z"/>
<path d="M4968 4384 c-5 -4 -8 -160 -8 -346 l0 -338 173 0 c94 0 188 5 208 10
90 25 139 89 140 182 1 63 -18 108 -59 138 l-28 21 32 35 c36 38 49 84 41 144
-7 57 -42 99 -106 128 -51 24 -70 26 -221 30 -91 2 -168 1 -172 -4z m299 -135
c35 -13 43 -25 43 -70 0 -55 -27 -73 -116 -77 l-74 -4 0 81 0 81 59 0 c33 0
72 -5 88 -11z m38 -284 c17 -16 25 -35 25 -57 -1 -63 -41 -88 -146 -88 l-64 0
0 85 0 85 80 0 c73 0 83 -3 105 -25z"/>
<path d="M5550 4383 c0 -4 50 -105 110 -224 l110 -217 0 -121 0 -121 80 0 80
0 0 127 0 126 110 214 c61 118 110 216 110 219 0 2 -37 4 -83 4 l-84 0 -63
-140 c-35 -78 -66 -143 -70 -145 -4 -2 -36 60 -72 138 l-64 142 -82 3 c-45 2
-82 -1 -82 -5z"/>
<path d="M6307 4384 c-4 -4 -7 -160 -7 -346 l0 -338 82 0 81 0 -6 228 c-7 262
-17 267 93 -45 l65 -183 55 0 55 0 65 183 c110 312 100 308 93 45 l-6 -228 82
0 81 0 -2 343 -3 342 -100 0 -100 0 -80 -232 c-44 -128 -82 -233 -85 -233 -3
0 -41 105 -85 233 l-80 232 -95 3 c-53 1 -99 0 -103 -4z"/>
<path d="M6207 3146 c-85 -31 -119 -92 -119 -213 0 -69 5 -93 24 -131 68 -134
286 -115 314 27 6 31 6 31 -35 31 -35 0 -41 -3 -47 -25 -14 -56 -96 -74 -139
-31 -29 29 -39 76 -33 161 3 50 9 70 27 89 48 51 121 41 143 -20 11 -31 16
-34 50 -34 33 0 38 3 38 24 0 28 -36 82 -70 107 -35 25 -107 32 -153 15z"/>
<path d="M7727 3146 c-51 -19 -76 -42 -100 -95 -27 -61 -27 -183 1 -237 51
-99 145 -130 242 -81 58 28 88 83 97 169 11 126 -40 221 -134 247 -48 14 -59
13 -106 -3z m128 -98 c22 -26 25 -39 25 -111 0 -64 -4 -89 -20 -114 -34 -56
-102 -56 -144 0 -31 41 -31 183 0 224 37 49 98 50 139 1z"/>
<path d="M4040 2935 l0 -215 40 0 40 0 0 90 0 90 88 0 89 0 -3 28 c-1 15 -2
30 -3 35 -1 4 -39 7 -86 7 l-85 0 0 55 0 55 100 0 100 0 0 35 0 35 -140 0
-140 0 0 -215z"/>
<path d="M4430 2935 l0 -215 45 0 45 0 0 215 0 215 -45 0 -45 0 0 -215z"/>
<path d="M4660 2936 l0 -216 40 0 39 0 3 141 3 142 88 -142 88 -141 45 0 44 0
0 215 0 215 -45 0 -44 0 -3 -139 -3 -140 -85 137 -86 137 -42 3 -42 3 0 -215z"/>
<path d="M5265 3133 c-8 -22 -87 -232 -126 -335 l-28 -78 43 0 c43 0 45 1 58
43 l15 42 80 3 81 3 17 -46 c17 -44 19 -45 61 -45 l44 0 -19 48 c-10 26 -46
122 -81 215 l-63 167 -37 0 c-27 0 -40 -5 -45 -17z m73 -171 c12 -38 22 -71
22 -75 0 -4 -22 -7 -50 -7 -27 0 -50 3 -50 7 0 16 44 143 50 143 3 0 16 -31
28 -68z"/>
<path d="M5610 2936 l0 -216 40 0 39 0 3 141 3 142 88 -142 88 -141 45 0 44 0
0 215 0 215 -45 0 -44 0 -3 -139 -3 -140 -85 137 -86 137 -42 3 -42 3 0 -215z"/>
<path d="M6550 2935 l0 -215 45 0 45 0 0 215 0 215 -45 0 -45 0 0 -215z"/>
<path d="M6780 2935 l0 -215 146 0 145 0 -3 33 -3 32 -92 1 c-51 1 -97 2 -103
3 -5 0 -10 28 -10 61 l0 60 90 0 90 0 0 30 0 30 -90 0 -90 0 0 55 0 54 103 3
102 3 0 30 0 30 -142 3 -143 3 0 -216z"/>
<path d="M7180 2935 l0 -215 40 0 40 0 0 80 0 80 39 0 c38 0 39 -1 80 -80 l42
-80 45 0 46 0 -47 87 -46 88 24 21 c35 30 47 57 47 107 0 53 -27 93 -76 113
-21 9 -71 14 -134 14 l-100 0 0 -215z m210 125 c11 -11 20 -31 20 -45 0 -43
-33 -65 -95 -65 l-55 0 0 65 0 65 55 0 c42 0 60 -5 75 -20z"/>
</g>
</svg>
