<svg xmlns="http://www.w3.org/2000/svg" xmlns:xlink="http://www.w3.org/1999/xlink" width="17.251" height="17.251" viewBox="0 0 17.251 17.251">
  <defs>
    <clipPath id="clip-path">
      <path id="Mask" d="M12.49,17.251H4.76A4.766,4.766,0,0,1,0,12.49V4.76A4.766,4.766,0,0,1,4.76,0h7.73a4.766,4.766,0,0,1,4.76,4.76v7.73A4.766,4.766,0,0,1,12.49,17.251ZM4.76,1.53A3.234,3.234,0,0,0,1.53,4.76v7.73a3.234,3.234,0,0,0,3.23,3.23h7.73a3.234,3.234,0,0,0,3.23-3.23V4.76a3.234,3.234,0,0,0-3.23-3.23ZM8.625,13.143a4.518,4.518,0,1,1,4.518-4.518A4.523,4.523,0,0,1,8.625,13.143Zm0-7.481a2.962,2.962,0,1,0,2.962,2.963A2.966,2.966,0,0,0,8.625,5.663Z" transform="translate(0 0)" fill="#fff"/>
    </clipPath>
  </defs>
  <g id="Icon" transform="translate(0 0)">
    <path id="Mask-2" data-name="Mask" d="M12.49,17.251H4.76A4.766,4.766,0,0,1,0,12.49V4.76A4.766,4.766,0,0,1,4.76,0h7.73a4.766,4.766,0,0,1,4.76,4.76v7.73A4.766,4.766,0,0,1,12.49,17.251ZM4.76,1.53A3.234,3.234,0,0,0,1.53,4.76v7.73a3.234,3.234,0,0,0,3.23,3.23h7.73a3.234,3.234,0,0,0,3.23-3.23V4.76a3.234,3.234,0,0,0-3.23-3.23ZM8.625,13.143a4.518,4.518,0,1,1,4.518-4.518A4.523,4.523,0,0,1,8.625,13.143Zm0-7.481a2.962,2.962,0,1,0,2.962,2.963A2.966,2.966,0,0,0,8.625,5.663Z" transform="translate(0 0)" fill="#fff"/>
  </g>
</svg>
