<svg id="Group" xmlns="http://www.w3.org/2000/svg" width="8.815" height="8.815" viewBox="0 0 8.815 8.815">
  <path id="Icon_awesome-phone-alt" data-name="Icon awesome-phone-alt" d="M8.564,6.23,6.636,5.4a.413.413,0,0,0-.482.119L5.3,6.566A6.382,6.382,0,0,1,2.249,3.515l1.043-.854a.412.412,0,0,0,.119-.482L2.584.25A.416.416,0,0,0,2.111.011L.32.424a.413.413,0,0,0-.32.4A7.988,7.988,0,0,0,7.989,8.816a.413.413,0,0,0,.4-.32l.413-1.791a.418.418,0,0,0-.241-.475Z" transform="translate(0 0)" fill="#fff"/>
</svg>
