<svg id="Icon" xmlns="http://www.w3.org/2000/svg" xmlns:xlink="http://www.w3.org/1999/xlink" width="16.292" height="13.234" viewBox="0 0 16.292 13.234">
  <defs>
    <clipPath id="clip-path">
      <path id="Shape" d="M16.292,1.566a6.674,6.674,0,0,1-1.919.526A3.356,3.356,0,0,0,15.842.244a6.738,6.738,0,0,1-2.124.811A3.345,3.345,0,0,0,8.023,4.1,9.489,9.489,0,0,1,1.135.611,3.346,3.346,0,0,0,2.17,5.072,3.342,3.342,0,0,1,.656,4.653v.042A3.346,3.346,0,0,0,3.336,7.972a3.385,3.385,0,0,1-.881.117,3.208,3.208,0,0,1-.629-.062,3.344,3.344,0,0,0,3.121,2.321A6.706,6.706,0,0,1,.8,11.776,7.1,7.1,0,0,1,0,11.73a9.447,9.447,0,0,0,5.123,1.5,9.443,9.443,0,0,0,9.509-9.509l-.011-.433A6.674,6.674,0,0,0,16.292,1.566Z" fill="#fff"/>
    </clipPath>
  </defs>
  <path id="Shape-2" data-name="Shape" d="M16.292,1.566a6.674,6.674,0,0,1-1.919.526A3.356,3.356,0,0,0,15.842.244a6.738,6.738,0,0,1-2.124.811A3.345,3.345,0,0,0,8.023,4.1,9.489,9.489,0,0,1,1.135.611,3.346,3.346,0,0,0,2.17,5.072,3.342,3.342,0,0,1,.656,4.653v.042A3.346,3.346,0,0,0,3.336,7.972a3.385,3.385,0,0,1-.881.117,3.208,3.208,0,0,1-.629-.062,3.344,3.344,0,0,0,3.121,2.321A6.706,6.706,0,0,1,.8,11.776,7.1,7.1,0,0,1,0,11.73a9.447,9.447,0,0,0,5.123,1.5,9.443,9.443,0,0,0,9.509-9.509l-.011-.433A6.674,6.674,0,0,0,16.292,1.566Z" fill="#fff"/>
</svg>
