<svg id="_1.Webpay_FN_300px" data-name=" 1.Webpay FN 300px" xmlns="http://www.w3.org/2000/svg" width="113.402" height="36.654" viewBox="0 0 113.402 36.654">
  <g id="Grupo_883" data-name="Grupo 883" transform="translate(5.652 28.735)">
    <path id="Trazado_3011" data-name="Trazado 3011" d="M11.439,59.494a.627.627,0,1,0-.621-.633v.006a.624.624,0,0,0,.621.627h0" transform="translate(-10.818 -56.547)" fill="#fff"/>
    <path id="Trazado_3012" data-name="Trazado 3012" d="M103.525,68.882a.627.627,0,1,0-.621-.633v.006a.624.624,0,0,0,.621.627h0" transform="translate(-54.792 -61.03)" fill="#fff"/>
    <path id="Trazado_3013" data-name="Trazado 3013" d="M43.3,60.7h0a2.213,2.213,0,0,0-.683-1.683l-.031-.028-.007-.006h0a2.494,2.494,0,0,0-1.638-.549h-.164a2.488,2.488,0,0,0-1.633.549h0l-.038.034a2.208,2.208,0,0,0-.683,1.676h0v0l0,3.592a.179.179,0,0,0,.056.129.2.2,0,0,0,.136.052h.639a.2.2,0,0,0,.136-.052.174.174,0,0,0,.056-.129V60.814a1.529,1.529,0,0,1,.369-1.107,1.672,1.672,0,0,1,2.1,0,1.533,1.533,0,0,1,.365,1.105v3.47a.177.177,0,0,0,.056.129.2.2,0,0,0,.136.052h.641a.2.2,0,0,0,.136-.052.174.174,0,0,0,.056-.129Z" transform="translate(-23.999 -56.638)" fill="#fff"/>
    <path id="Trazado_3014" data-name="Trazado 3014" d="M85.97,60.695h0a2.213,2.213,0,0,0-.683-1.683l-.033-.031-.007-.006h0a2.494,2.494,0,0,0-1.638-.549h-.164a2.488,2.488,0,0,0-1.633.549h0l-.038.034a2.21,2.21,0,0,0-.683,1.676h0v0l0,3.592a.179.179,0,0,0,.056.129.2.2,0,0,0,.136.052h.639a.2.2,0,0,0,.136-.052.174.174,0,0,0,.056-.129V60.807a1.529,1.529,0,0,1,.369-1.107,1.672,1.672,0,0,1,2.1,0,1.533,1.533,0,0,1,.367,1.109v3.47a.179.179,0,0,0,.056.129.2.2,0,0,0,.136.052h.641a.2.2,0,0,0,.136-.052.174.174,0,0,0,.056-.129Z" transform="translate(-44.374 -56.634)" fill="#fff"/>
    <path id="Trazado_3015" data-name="Trazado 3015" d="M63.83,59.846v.027a3.351,3.351,0,0,1-.28,1.531,1.269,1.269,0,0,1-1.225.653h-.036a1.27,1.27,0,0,1-1.236-.653,3.345,3.345,0,0,1-.281-1.541v-.034a2.889,2.889,0,0,1,.281-1.431,1.268,1.268,0,0,1,1.236-.653h.026a1.27,1.27,0,0,1,1.237.653,2.9,2.9,0,0,1,.279,1.43Zm.189-2.422-.012-.013a2.4,2.4,0,0,0-1.62-.544h-.037a2.314,2.314,0,0,0-1.578.522h0v-.357h0V55.223a.177.177,0,0,0-.056-.128.2.2,0,0,0-.136-.052H59.95a.2.2,0,0,0-.136.052.173.173,0,0,0-.056.128v1.81h0v3.843h0v1.8a.177.177,0,0,0,.056.128.2.2,0,0,0,.136.052h.63a.2.2,0,0,0,.136-.052.173.173,0,0,0,.056-.128v-.372a2.07,2.07,0,0,0,1.577.632h.039a2.406,2.406,0,0,0,1.62-.545,3.417,3.417,0,0,0,.836-2.543,3.177,3.177,0,0,0-.825-2.422" transform="translate(-34.188 -55.02)" fill="#fff"/>
    <path id="Trazado_3016" data-name="Trazado 3016" d="M31.484,62.274a1.15,1.15,0,0,1-.248.87,1.746,1.746,0,0,1-1.276.363h-.015a1.756,1.756,0,0,1-1-.219.7.7,0,0,1-.27-.619v-.014a.742.742,0,0,1,.273-.638,1.6,1.6,0,0,1,.964-.232h1.575v.49Zm1.058-1.852v0a1.839,1.839,0,0,0-.627-1.48,2.825,2.825,0,0,0-1.833-.517h-.039a2.533,2.533,0,0,0-1.992.713h0l-.029.034c-.038.042-.075.085-.111.131h0l-.052.061a.174.174,0,0,0-.04.134.2.2,0,0,0,.069.13l.029.025a.312.312,0,0,0,.037.037l.112.092.3.259a.2.2,0,0,0,.137.049.171.171,0,0,0,.125-.061l.192-.228h0a1.134,1.134,0,0,1,.391-.287,2.2,2.2,0,0,1,.867-.138h.014a1.651,1.651,0,0,1,1.093.286,1.018,1.018,0,0,1,.3.826v.4H29.844a2.594,2.594,0,0,0-1.614.462,1.62,1.62,0,0,0-.618,1.32v.021a1.723,1.723,0,0,0,.483,1.212,2.4,2.4,0,0,0,1.824.564h.436a2.188,2.188,0,0,0,1.687-.575,2.328,2.328,0,0,0,.5-1.636V60.423Z" transform="translate(-18.837 -56.629)" fill="#fff"/>
    <path id="Trazado_3017" data-name="Trazado 3017" d="M71.353,62.683v-.014a.74.74,0,0,1,.274-.637,1.6,1.6,0,0,1,.964-.232h1.575v.49a1.148,1.148,0,0,1-.248.869,1.748,1.748,0,0,1-1.277.363h-.015a1.751,1.751,0,0,1-1-.219.694.694,0,0,1-.27-.619m3.871-2.247v0a1.837,1.837,0,0,0-.627-1.48,2.823,2.823,0,0,0-1.832-.517h-.04a2.534,2.534,0,0,0-1.991.712h0l-.029.034c-.038.042-.075.085-.111.131h0l-.052.061a.174.174,0,0,0-.039.134.2.2,0,0,0,.068.13l.029.025a.31.31,0,0,0,.037.037l.112.092.3.258a.2.2,0,0,0,.137.049.173.173,0,0,0,.125-.061l.192-.228h0a1.139,1.139,0,0,1,.391-.286,2.2,2.2,0,0,1,.867-.138h.018a1.651,1.651,0,0,1,1.093.286,1.018,1.018,0,0,1,.3.825v.395H72.526a2.593,2.593,0,0,0-1.615.462,1.619,1.619,0,0,0-.618,1.319V62.7a1.726,1.726,0,0,0,.483,1.211,2.4,2.4,0,0,0,1.824.564h.438a2.188,2.188,0,0,0,1.687-.575,2.326,2.326,0,0,0,.5-1.635V60.437Z" transform="translate(-39.219 -56.636)" fill="#fff"/>
    <path id="Trazado_3018" data-name="Trazado 3018" d="M16.264,56.827h-1.08v-1.1h0V55.2A.181.181,0,0,0,15,55.029h-.651a.192.192,0,0,0-.131.052.17.17,0,0,0-.055.122v.976h0v5.134a1.542,1.542,0,0,0,.385,1.077,1.52,1.52,0,0,0,1.131.447h.313v0h.274a.175.175,0,0,0,.127-.057.2.2,0,0,0,.052-.137V62a.2.2,0,0,0-.052-.137.172.172,0,0,0-.127-.057h-.5a.859.859,0,0,1-.254-.041.43.43,0,0,1-.1-.052.4.4,0,0,1-.073-.06.7.7,0,0,1-.152-.5V57.85h1.08a.175.175,0,0,0,.127-.057.2.2,0,0,0,.052-.137v-.635a.2.2,0,0,0-.052-.137.172.172,0,0,0-.127-.057" transform="translate(-12.413 -55.013)" fill="#fff"/>
    <path id="Trazado_3019" data-name="Trazado 3019" d="M23.69,59.2l-.06-.067a.056.056,0,0,0-.014-.022l-.036-.037h0l-.052-.052-.041-.045h0a1.752,1.752,0,0,0-1.312-.55h-.038a1.349,1.349,0,0,0-1,.45l-.169.2v-.448a.177.177,0,0,0-.056-.128.2.2,0,0,0-.137-.052h-.63a.2.2,0,0,0-.136.052.173.173,0,0,0-.056.128v5.657a.177.177,0,0,0,.056.128.2.2,0,0,0,.136.052h.631a.2.2,0,0,0,.136-.052.173.173,0,0,0,.056-.128V60.541a1.419,1.419,0,0,1,.28-.8.951.951,0,0,1,.772-.36,1.01,1.01,0,0,1,.4.065,1.078,1.078,0,0,1,.335.256l.03.031.137.153a.173.173,0,0,0,.129.057.2.2,0,0,0,.138-.052l.47-.429a.206.206,0,0,0,.066-.133.175.175,0,0,0-.044-.134" transform="translate(-15.18 -56.634)" fill="#fff"/>
    <path id="Trazado_3020" data-name="Trazado 3020" d="M53.329,61.365l-.008-.005h0a2.7,2.7,0,0,0-1.335-.389l-.94-.079a1.467,1.467,0,0,1-.774-.225.55.55,0,0,1-.2-.463V60.2h0v-.012a.691.691,0,0,1,.29-.593,1.646,1.646,0,0,1,.957-.232h0a2.59,2.59,0,0,1,1.432.386h0l.238.167a.165.165,0,0,0,.133.026.2.2,0,0,0,.119-.08l.351-.512a.2.2,0,0,0,.033-.141.171.171,0,0,0-.029-.073.181.181,0,0,0-.056-.065l-.04-.029a3.813,3.813,0,0,0-2.184-.627,2.775,2.775,0,0,0-1.668.473A1.585,1.585,0,0,0,49,60.178V60.2a1.443,1.443,0,0,0,.516,1.155,2.583,2.583,0,0,0,1.453.489l.966.078a1.283,1.283,0,0,1,.706.22.568.568,0,0,1,.187.47v.015a.709.709,0,0,1-.342.638,2.22,2.22,0,0,1-1.159.242h-.019a2.406,2.406,0,0,1-1.6-.486l-.2-.172a.173.173,0,0,0-.134-.039.2.2,0,0,0-.128.072l-.4.489a.2.2,0,0,0-.047.14.176.176,0,0,0,.062.126l.192.162h0l.011.008.025.021h0a3.71,3.71,0,0,0,2.243.636h.016a3.227,3.227,0,0,0,1.841-.481,1.62,1.62,0,0,0,.726-1.358V62.6a1.442,1.442,0,0,0-.575-1.239" transform="translate(-28.95 -56.628)" fill="#fff"/>
    <path id="Trazado_3021" data-name="Trazado 3021" d="M97.072,62.576l-.789-1.112L94.7,59.158l1.227-1.306.716-.753.043-.048a.137.137,0,0,0,.016-.192l-.01-.01a.2.2,0,0,0-.136-.052h-.822a.264.264,0,0,0-.148.069h0L92.834,59.8V55.179a.177.177,0,0,0-.056-.128A.2.2,0,0,0,92.641,55h-.628a.2.2,0,0,0-.136.052.173.173,0,0,0-.056.128v7.468a.179.179,0,0,0,.056.129.2.2,0,0,0,.137.052h.63a.2.2,0,0,0,.136-.052.174.174,0,0,0,.056-.129V61.14l1.194-1.294.8,1.2h0l1.13,1.688a.186.186,0,0,0,.162.1h.821a.2.2,0,0,0,.136-.052.151.151,0,0,0-.006-.2" transform="translate(-49.499 -54.999)" fill="#fff"/>
    <path id="Trazado_3022" data-name="Trazado 3022" d="M88.367,55.106h.111l.166.487.166-.487h.11v.575h-.074V55.2l-.165.486H88.6l-.165-.486v.486h-.074v-.575Z" transform="translate(-47.849 -55.05)" fill="#fff"/>
    <path id="Trazado_3023" data-name="Trazado 3023" d="M90.318,55.371a.149.149,0,0,0,.085-.022.093.093,0,0,0,.031-.079.085.085,0,0,0-.044-.084.139.139,0,0,0-.062-.011h-.187v.2Zm-.254-.261h.261a.246.246,0,0,1,.1.019.134.134,0,0,1,.079.135.152.152,0,0,1-.021.085.174.174,0,0,1-.061.052.125.125,0,0,1,.052.036.133.133,0,0,1,.017.073l0,.076a.249.249,0,0,0,.005.052.05.05,0,0,0,.026.034v.014h-.1c0-.006,0-.012-.007-.019a.235.235,0,0,1,0-.047l-.005-.1a.083.083,0,0,0-.041-.076.172.172,0,0,0-.069-.01h-.173v.247h-.078V55.11Z" transform="translate(-48.659 -55.052)" fill="#fff"/>
    <path id="Trazado_3024" data-name="Trazado 3024" d="M89.718,56.13a.037.037,0,0,1-.038-.038v0a.04.04,0,1,1,.038.042" transform="translate(-48.477 -55.501)" fill="#fff"/>
    <path id="Trazado_3025" data-name="Trazado 3025" d="M91.225,56.126a.039.039,0,0,1-.04-.039v0a.04.04,0,0,1,.037-.042h0a.039.039,0,0,1,.04.038v0a.039.039,0,0,1-.036.042h-.005Z" transform="translate(-49.196 -55.497)" fill="#fff"/>
  </g>
  <g id="Grupo_884" data-name="Grupo 884" transform="translate(0)">
    <path id="Trazado_3026" data-name="Trazado 3026" d="M103.573,14.361v.082a10.012,10.012,0,0,1-.836,4.575,3.791,3.791,0,0,1-3.662,1.949.446.446,0,0,0-.075,0h-.033a3.8,3.8,0,0,1-3.692-1.95,9.993,9.993,0,0,1-.84-4.6v-.1a8.623,8.623,0,0,1,.84-4.274,3.788,3.788,0,0,1,3.692-1.95h.077a3.8,3.8,0,0,1,3.7,1.952,8.667,8.667,0,0,1,.836,4.272Zm.565-7.236a.382.382,0,0,0-.034-.037,7.179,7.179,0,0,0-4.844-1.627.935.935,0,0,0-.108,0A6.912,6.912,0,0,0,94.438,7.02h0V5.95h0V.543A.526.526,0,0,0,94.274.16.6.6,0,0,0,93.866,0H91.985a.6.6,0,0,0-.406.16.523.523,0,0,0-.168.383V5.95h0V17.434h0v5.381a.527.527,0,0,0,.168.382.6.6,0,0,0,.409.16h1.881a.6.6,0,0,0,.407-.16.516.516,0,0,0,.169-.382V21.7a6.183,6.183,0,0,0,4.712,1.888h.116a7.192,7.192,0,0,0,4.836-1.631c2.028-1.92,2.491-4.863,2.5-7.6s-.47-5.324-2.464-7.237" transform="translate(-43.652)" fill="#fff"/>
    <path id="Trazado_3027" data-name="Trazado 3027" d="M136.76,19.7a8.645,8.645,0,0,1-.836,4.272,3.8,3.8,0,0,1-3.7,1.952h-.077a3.791,3.791,0,0,1-3.692-1.95,8.664,8.664,0,0,1-.84-4.274v-.105a9.989,9.989,0,0,1,.84-4.6,3.794,3.794,0,0,1,3.692-1.95h.033a.446.446,0,0,0,.075,0,3.788,3.788,0,0,1,3.662,1.949,10.014,10.014,0,0,1,.836,4.575V19.7Zm.564,7.18c1.994-1.913,2.458-4.516,2.464-7.236-.007-2.736-.47-5.679-2.5-7.6a7.192,7.192,0,0,0-4.836-1.631h-.116a6.183,6.183,0,0,0-4.712,1.888V11.187a.516.516,0,0,0-.169-.382.6.6,0,0,0-.407-.16h-1.881a.6.6,0,0,0-.409.16.527.527,0,0,0-.168.382v5.381h0V28.049h0v5.409a.523.523,0,0,0,.168.383.6.6,0,0,0,.406.16h1.881a.6.6,0,0,0,.408-.16.526.526,0,0,0,.168-.383V28.049h0V26.981h0a6.912,6.912,0,0,0,4.715,1.562.934.934,0,0,0,.108,0,7.179,7.179,0,0,0,4.844-1.627.33.33,0,0,0,.034-.037" transform="translate(-59.498 -4.97)" fill="#fff"/>
    <path id="Trazado_3028" data-name="Trazado 3028" d="M193.579,30.172c-.166.448-.462,1.172-.66,1.607a5.172,5.172,0,0,1-.865,1.3,3.728,3.728,0,0,1-1.591.961,5.138,5.138,0,0,1-.988.2c-.477.033-1.173.061-1.547.061a.8.8,0,0,1-.679-.869V32.155c0-.478.194-.869.431-.869s.82-.041,1.3-.089a1.525,1.525,0,0,0,.693-.292,1.853,1.853,0,0,0,.5-.621c.2-.435.493-1.159.653-1.61l.347-.982a2.823,2.823,0,0,0-.008-1.636l-5.269-14.4a.569.569,0,0,1,.571-.817H188.3a1.3,1.3,0,0,1,1.149.823L192.9,21.847c.154.453.4.452.552,0l3.365-10.18a1.287,1.287,0,0,1,1.143-.825h1.873a.568.568,0,0,1,.569.816Z" transform="translate(-88.741 -5.174)" fill="#fff"/>
    <path id="Trazado_3029" data-name="Trazado 3029" d="M159.405,23.3v-.041a2.187,2.187,0,0,1,.81-1.881,4.718,4.718,0,0,1,2.848-.687h4.65v1.446a3.386,3.386,0,0,1-.731,2.567,5.167,5.167,0,0,1-3.771,1.071h-.044a5.182,5.182,0,0,1-2.966-.647,2.05,2.05,0,0,1-.8-1.829m11.433-6.629v-.013a5.424,5.424,0,0,0-1.853-4.369,8.347,8.347,0,0,0-5.41-1.526h-.117c-2.452-.006-4.4.527-5.88,2.1l-.006-.005-.085.1c-.111.123-.22.251-.328.386v0l-.152.18a.514.514,0,0,0-.117.4.6.6,0,0,0,.2.384l.086.074a.859.859,0,0,0,.109.109l.331.272.882.762a.581.581,0,0,0,.405.144.509.509,0,0,0,.369-.179l.566-.672h0A3.387,3.387,0,0,1,161,13.977a6.519,6.519,0,0,1,2.56-.409h.052a4.864,4.864,0,0,1,3.227.845,3.007,3.007,0,0,1,.878,2.437v1.167H162.87a7.664,7.664,0,0,0-4.768,1.365,4.779,4.779,0,0,0-1.825,3.9v.061a5.087,5.087,0,0,0,1.426,3.576c1.239,1.221,2.891,1.665,5.386,1.665h1.292c2.285,0,3.924-.563,4.98-1.7a6.86,6.86,0,0,0,1.475-4.829V16.67Z" transform="translate(-74.627 -5.139)" fill="#fff"/>
    <path id="Trazado_3030" data-name="Trazado 3030" d="M33.379,10.906a1.275,1.275,0,0,0-1.156.874l-3.29,11.6c-.136.481-.376.486-.532.011L24.573,11.768a1.342,1.342,0,0,0-1.192-.863h-.687a1.339,1.339,0,0,0-1.188.863L17.708,23.4c-.157.475-.395.47-.532-.009l-3.32-11.607a1.279,1.279,0,0,0-1.159-.874H11.3a.627.627,0,0,0-.634.866l5.078,16.015a1.326,1.326,0,0,0,1.183.866h.96a1.205,1.205,0,0,0,1.068-.769l3.8-11.328c.157-.473.418-.473.579,0l3.794,11.236a1.358,1.358,0,0,0,1.2.861h.929a1.223,1.223,0,0,0,1.094-.8l5.068-16.078a.627.627,0,0,0-.637-.866Z" transform="translate(-5.07 -5.207)" fill="#fff"/>
    <path id="Trazado_3031" data-name="Trazado 3031" d="M73.953,19.014c0-5.267-2.795-8.54-7.293-8.54-4.566,0-7.293,3.374-7.293,9.025,0,5.819,2.75,9.025,7.743,9.025a8.132,8.132,0,0,0,6.445-2.717l.224-.224L71.636,23.7l-.2.2a5.336,5.336,0,0,1-4.259,1.853c-2.957,0-4.632-1.881-4.722-5.3H73.953ZM62.469,17.99a6.346,6.346,0,0,1,.48-2.428,4.081,4.081,0,0,1,7.419,0,6.359,6.359,0,0,1,.481,2.431Z" transform="translate(-28.35 -5.002)" fill="#fff"/>
    <path id="Trazado_3032" data-name="Trazado 3032" d="M1.8,14.619A1.818,1.818,0,1,0,0,12.788V12.8a1.813,1.813,0,0,0,1.8,1.817" transform="translate(0 -5.245)" fill="#fff"/>
    <path id="Trazado_3033" data-name="Trazado 3033" d="M211.9,41.531a1.818,1.818,0,1,0-1.8-1.834v.017a1.812,1.812,0,0,0,1.8,1.817" transform="translate(-100.327 -18.096)" fill="#fff"/>
  </g>
</svg>
