<?xml version="1.0" encoding="utf-8"?>
<!-- Generator: Adobe Illustrator 19.0.0, SVG Export Plug-In . SVG Version: 6.00 Build 0)  -->
<svg version="1.1" id="Layer_1" xmlns="http://www.w3.org/2000/svg" xmlns:xlink="http://www.w3.org/1999/xlink" x="0px" y="0px"
	 viewBox="0 0 311.2 47" style="enable-background:new 0 0 311.2 47;" xml:space="preserve">
<style type="text/css">
	.st0{fill-rule:evenodd;clip-rule:evenodd;fill:#069547;}
</style>
<path id="XMLID_29_" class="st0" d="M125.2,16.3c0,2.2-0.7,4.1-2.1,5.6c-1.4,1.5-3.2,2.3-5.5,2.3c-2.3-0.1-4.1-0.8-5.5-2.4
	c-1.4-1.5-2.1-3.4-2.2-5.6v-0.1c0-2.2,0.7-4.1,2.1-5.6c1.4-1.5,3.2-2.3,5.5-2.3c2.3,0.1,4.1,0.8,5.5,2.4
	C124.5,12.1,125.2,14,125.2,16.3L125.2,16.3z M131.1,16.3L131.1,16.3c0-2.5-0.6-4.7-1.8-6.7c-1.1-2-2.7-3.5-4.8-4.7
	c-2-1.2-4.3-1.8-7-1.8c-2.6,0-5,0.6-7,1.8c-2,1.2-3.6,2.8-4.8,4.7c-1.2,2-1.7,4.2-1.8,6.6v0.1c0,2.4,0.6,4.6,1.8,6.6
	c1.1,2,2.7,3.5,4.8,4.7c2,1.2,4.3,1.8,7,1.8c2.6,0,5-0.6,7-1.8c2-1.2,3.6-2.8,4.8-4.7C130.5,20.9,131,18.7,131.1,16.3z"/>
<polygon id="XMLID_28_" class="st0" points="156.9,29 148,16 156.5,3.5 150.2,3.5 144.8,11.8 139.4,3.5 132.9,3.5 141.4,16 
	132.5,29 138.9,29 144.6,20.3 150.3,29 "/>
<polygon id="XMLID_27_" class="st0" points="180.5,8.6 180.5,3.5 161.1,3.5 161.1,29 166.7,29 166.7,19.1 178.8,19.1 178.8,14 
	166.7,14 166.7,8.6 "/>
<path id="XMLID_24_" class="st0" d="M196.9,18.3h-6.8l3.4-8.3L196.9,18.3z M207.1,29L196.2,3.3h-5.2L180.1,29h5.7l2.3-5.7h10.8
	l2.3,5.7H207.1z"/>
<path id="XMLID_21_" class="st0" d="M226.6,12.3c0,1.1-0.4,2-1.1,2.6c-0.7,0.6-1.8,1-3.2,1h-5.7V8.6h5.6c1.4,0,2.5,0.3,3.2,0.9
	C226.2,10.1,226.6,11,226.6,12.3L226.6,12.3z M233.1,29l-6.2-9.1c1.6-0.6,3-1.5,3.9-2.9c1-1.3,1.5-3,1.5-5v-0.1
	c0-2.6-0.9-4.7-2.5-6.2c-1.7-1.5-4-2.2-7-2.2h-11.6V29h5.6v-8.1h4.4l5.5,8.1H233.1z"/>
<polygon id="XMLID_20_" class="st0" points="112.1,36.8 112.1,34.9 104.7,34.9 104.7,44.6 106.9,44.6 106.9,40.8 111.5,40.8 
	111.5,38.9 106.9,38.9 106.9,36.8 "/>
<path id="XMLID_17_" class="st0" d="M123.7,40.5h-2.6l1.3-3.2L123.7,40.5z M127.6,44.6l-4.2-9.8h-2l-4.2,9.8h2.2l0.9-2.2h4.1
	l0.9,2.2H127.6z"/>
<path id="XMLID_14_" class="st0" d="M139.3,38.2c0,0.4-0.1,0.7-0.4,1c-0.3,0.2-0.7,0.4-1.2,0.4h-2.2v-2.8h2.1c0.5,0,0.9,0.1,1.2,0.4
	C139.2,37.4,139.3,37.7,139.3,38.2L139.3,38.2z M141.8,44.6l-2.4-3.5c0.6-0.2,1.1-0.6,1.5-1.1c0.4-0.5,0.6-1.1,0.6-1.9v0
	c0-1-0.3-1.8-1-2.4c-0.6-0.6-1.5-0.8-2.7-0.9h-4.4v9.7h2.1v-3.1h1.7l2.1,3.1H141.8z"/>
<polygon id="XMLID_13_" class="st0" points="157.4,44.6 157.4,34.9 155.1,34.9 152.5,39 150,34.9 147.7,34.9 147.7,44.6 149.8,44.6 
	149.8,38.3 152.5,42.4 152.5,42.4 155.3,38.2 155.3,44.6 "/>
<path id="XMLID_10_" class="st0" d="M169.8,40.5h-2.6l1.3-3.2L169.8,40.5z M173.7,44.6l-4.2-9.8h-2l-4.2,9.8h2.2l0.9-2.2h4.1
	l0.9,2.2H173.7z"/>
<path id="XMLID_9_" class="st0" d="M187.7,43l-1.4-1.4c-0.4,0.4-0.8,0.6-1.1,0.8s-0.9,0.3-1.4,0.3c-0.8,0-1.5-0.3-2-0.9
	c-0.5-0.6-0.8-1.3-0.8-2.2v0c0-0.9,0.3-1.6,0.8-2.1c0.5-0.6,1.2-0.9,2-0.9c0.5,0,0.9,0.1,1.3,0.3c0.4,0.2,0.8,0.5,1.2,0.8l1.4-1.6
	c-0.4-0.5-1-0.8-1.6-1.1c-0.6-0.3-1.4-0.4-2.3-0.4c-1,0-1.9,0.2-2.6,0.7c-0.8,0.4-1.4,1.1-1.8,1.8c-0.4,0.8-0.6,1.6-0.7,2.5v0
	c0,0.9,0.2,1.8,0.7,2.5c0.4,0.8,1,1.3,1.8,1.8c0.7,0.4,1.6,0.7,2.6,0.7c0.9,0,1.7-0.2,2.3-0.5C186.7,44,187.2,43.6,187.7,43z"/>
<rect id="XMLID_8_" x="195.4" y="34.9" class="st0" width="2.1" height="9.7"/>
<path id="XMLID_5_" class="st0" d="M213,40.5h-2.6l1.3-3.2L213,40.5z M216.9,44.6l-4.2-9.8h-2l-4.2,9.8h2.2l0.9-2.2h4.1l0.9,2.2
	H216.9z"/>
<path id="XMLID_4_" class="st0" d="M230.4,41.7L230.4,41.7c0-0.9-0.3-1.5-0.8-1.9c-0.5-0.4-1.3-0.8-2.3-1c-0.8-0.2-1.4-0.4-1.7-0.6
	c-0.3-0.2-0.4-0.4-0.4-0.7v0c0-0.2,0.1-0.4,0.3-0.6c0.2-0.2,0.5-0.2,0.9-0.2c0.4,0,0.8,0.1,1.2,0.3c0.4,0.2,0.8,0.4,1.3,0.7l1.1-1.6
	c-0.5-0.4-1-0.7-1.6-0.9c-0.6-0.2-1.3-0.3-2-0.3c-1,0-1.8,0.3-2.4,0.8c-0.6,0.5-0.9,1.2-1,2.1v0c0,0.6,0.1,1.1,0.4,1.5
	c0.3,0.4,0.6,0.7,1.1,0.9c0.5,0.2,1.1,0.4,1.7,0.6c0.8,0.2,1.3,0.4,1.6,0.6c0.3,0.2,0.4,0.4,0.4,0.7v0c0,0.3-0.1,0.5-0.4,0.7
	c-0.2,0.2-0.6,0.2-1,0.2c-0.6,0-1.1-0.1-1.5-0.3c-0.5-0.2-0.9-0.5-1.4-0.9l-1.3,1.5c0.6,0.5,1.2,0.9,1.9,1.2
	c0.7,0.3,1.4,0.4,2.2,0.4c1.1,0,1.9-0.3,2.6-0.8C230.1,43.4,230.4,42.7,230.4,41.7z"/>
<path id="XMLID_3_" class="st0" d="M82.3,0.5c0,0,14.4,9.7,11.4,13.6c-2.5,3.2-4,3.8-4,3.8s-1.5-3.5-6.2-4.3c0,0,1.4-0.5,1.4-0.5
	S88.1,12,86.6,8C84.9,3.7,82.3,0.5,82.3,0.5z"/>
<path id="XMLID_2_" class="st0" d="M77.6,35.7C73.4,41.6,69.4,47,69.4,47s0.9-5.3,4.2-11.3c0.4-0.8,1-1.7,1.6-2.6
	c-2.2-2.5-4-4.5-4.4-5c-1-1.5-3-4-2.6-5.8c0.4-1.9,1.6-2.5,1.6-2.5s4.5,0.6,5.7,1.9c0,0-2.5,1.1-1.9,3.7c0.2,0.8,1.6,2.7,3.5,5
	c2.4-3.6,4.8-7,5-7.7c0.8-2.5-0.4-3.6-3.5-4.2c-3.2-0.7-19.1-2.9-18.4-7.1C61.3,5.2,75.1,0.5,75.1,0.5s-9,5.8-8.4,9.4
	c0.2,1.6,8.4,3.3,14.4,4.5c6,1.2,7.5,4.6,7.2,6c-0.2,0.7-4.4,6.6-8.7,12.7c3.3,4.3,6.7,9,5.7,10.9C85.2,44,81.3,39.8,77.6,35.7z"/>
</svg>
