<?xml version="1.0" encoding="UTF-8"?>
<svg id="Capa_1" data-name="Capa 1" xmlns="http://www.w3.org/2000/svg" viewBox="0 0 120 60">
  <defs>
    <style>
      .cls-1 {
        fill: #1434cb;
      }

      .cls-1, .cls-2, .cls-3, .cls-4, .cls-5, .cls-6, .cls-7, .cls-8, .cls-9 {
        stroke-width: 0px;
      }

      .cls-2 {
        fill: #df1612;
      }

      .cls-3 {
        fill: #86317c;
      }

      .cls-4 {
        fill: #fff;
      }

      .cls-5 {
        fill: #ec0000;
      }

      .cls-6 {
        fill: #ea5b0c;
      }

      .cls-7 {
        fill: #ec2628;
      }

      .cls-8 {
        fill: #f59e00;
      }

      .cls-9 {
        fill: #006fcf;
      }
    </style>
  </defs>
  <path class="cls-5" d="m62.51,14.27c-1.55,0-3.81.32-5.86.82v14.66h3.22v-12.49c.88-.15,1.79-.23,2.55-.23,3.22,0,3.99,1.11,3.99,3.43v9.29h3.22v-9.85c0-3.55-1.73-5.63-7.12-5.63Zm-39.14,12.72c-.88.18-1.85.29-2.7.29-4.46,0-7.27-2.58-7.27-7.83,0-4.81,2.61-7.53,7.42-7.53,2.05,0,3.66.35,5.1.82.29-.91.53-1.99.59-2.96-1.52-.53-3.43-.79-5.69-.79-6.86,0-10.82,3.81-10.82,10.58,0,6.21,3.61,10.64,10.44,10.64,2.2,0,4.54-.41,6.21-1.08v-10.44h-3.28v8.3Zm55.91-12.72c-5.13,0-7.15,3.46-7.15,7.83,0,5.01,2.61,8,8,8,1.73,0,3.28-.26,4.75-.94.21-.97.38-2.08.5-2.93-1.61.73-3.4,1.11-5.16,1.11-2.87,0-4.4-1.26-4.81-3.87h10.29c.12-.85.18-1.58.18-2.49,0-3.69-1.99-6.71-6.6-6.71Zm-3.93,6.51c.26-2.49,1.47-3.81,3.75-3.81s3.52,1.41,3.52,3.81h-7.27Zm21.2-3.25c.15-.85.23-1.76.29-2.76h-5.1v-5.54c-1,0-2.23.15-3.22.47v15.39c0,3.58,1.99,5.01,5.13,5.01.91,0,1.85-.12,2.73-.47.18-.85.29-1.85.38-2.73-.7.26-1.58.44-2.52.44-1.55,0-2.49-.73-2.49-2.64v-7.18h4.81Zm-42.54,0c.15-.85.23-1.76.29-2.76h-5.1v-5.54c-1,0-2.23.15-3.22.47v15.39c0,3.58,1.99,5.01,5.13,5.01.91,0,1.85-.12,2.73-.47.18-.85.29-1.85.38-2.73-.7.26-1.58.44-2.52.44-1.55,0-2.49-.73-2.49-2.64v-7.18h4.81Zm-17.27-3.25c-5.13,0-7.15,3.46-7.15,7.83,0,5.01,2.61,8,8,8,1.73,0,3.28-.26,4.75-.94.21-.97.38-2.08.5-2.93-1.61.73-3.4,1.11-5.16,1.11-2.87,0-4.4-1.26-4.81-3.87h10.29c.12-.85.18-1.58.18-2.49,0-3.69-1.99-6.71-6.6-6.71Zm-3.93,6.51c.26-2.49,1.47-3.81,3.75-3.81s3.52,1.41,3.52,3.81h-7.27Zm75.55-3.25h1.65v-1.65h-1.65v1.65Zm0-3.29h1.65v-1.65h-1.65v1.65Zm-3.29-3.29h1.65v-1.65h-1.65v1.65Zm-3.29,6.58h1.65v-1.65h-1.65v1.65Zm3.29-3.29h1.65v-1.65h-1.65v1.65Zm3.29-4.94v1.65h1.65v-1.65h-1.65Zm-6.58,4.94h1.65v-1.65h-1.65v1.65Zm0-3.29h1.65v-1.65h-1.65v1.65Zm3.29,6.58h1.65v-1.65h-1.65v1.65Z"/>
  <g>
    <g>
      <rect class="cls-7" x="29.58" y="40.39" width="17.28" height="10.37" rx=".76" ry=".76"/>
      <path class="cls-3" d="m39.86,46.1s-.02-.04-.03-.06c0,.02.02.04.03.06"/>
      <path class="cls-4" d="m33.67,47.45h-.54c-.07,0-.13.04-.16.1l-.61,1.3s0,0,0,0l-.62-1.3c-.03-.06-.09-.1-.16-.1h-.52c-.1,0-.18.08-.18.17v1.82c0,.1.08.17.18.17h.27c.1,0,.18-.08.18-.17v-1.05s0,0,0,0l.55,1.13c.03.06.09.1.16.1h.29c.07,0,.13-.04.16-.1l.55-1.16s0,0,0,0v1.08c0,.1.08.17.18.17h.28c.1,0,.18-.08.18-.17v-1.82c0-.1-.08-.17-.18-.17"/>
      <path class="cls-4" d="m35.83,47.54c-.03-.05-.09-.09-.15-.09h-.38c-.06,0-.12.03-.15.09l-1.08,1.82s-.02.05-.03.08c0,.11.08.19.18.19h.29c.06,0,.12-.03.15-.09l.19-.32s0,0,0,0c.03.05.09.09.15.09h1.15s0,0,0,0l.14.24c.03.05.09.09.15.09h.31c.06,0,.12-.03.15-.09.03-.05.03-.12,0-.17l-1.07-1.82Zm-.74,1.26l.38-.66s0,0,0,0l.38.66s0,0,0,0h-.77"/>
      <path class="cls-4" d="m39.64,48.29h-1.16c-.1,0-.18.08-.18.17v.18c0,.1.08.17.18.17h.72s0,0,0,0v.11s0,0,0,0c-.18.12-.44.19-.71.19-.5,0-.84-.24-.84-.59s.33-.58.84-.58c.28,0,.55.09.66.23.06.07.17.09.24.03l.19-.15s.06-.08.07-.13c0-.05-.01-.1-.05-.13-.22-.23-.66-.38-1.12-.38-.91,0-1.52.45-1.52,1.12s.61,1.12,1.52,1.12c.47,0,.93-.14,1.25-.38.04-.03.07-.08.07-.14v-.68c0-.1-.08-.17-.18-.17"/>
      <path class="cls-4" d="m42.29,47.45h-.28c-.1,0-.18.08-.18.17v1.18s0,0,0,0l-1.04-1.29s-.08-.07-.14-.07h-.36c-.1,0-.18.08-.18.17v1.82c0,.1.08.17.18.17h.28c.1,0,.18-.08.18-.17v-1.04s0,0,0,0l.92,1.15s.08.07.14.07h.48c.1,0,.18-.08.18-.17v-1.82c0-.1-.08-.17-.18-.17"/>
      <path class="cls-4" d="m45.52,49.36h0l-1.07-1.82c-.03-.05-.09-.09-.15-.09h-.38c-.06,0-.12.03-.15.09l-1.08,1.82c-.05.08-.02.19.07.24.02.01.05.02.08.02h.29c.06,0,.12-.03.15-.09l.19-.32s0,0,0,0c.03.05.09.09.15.09h1.15s0,0,0,0l.14.24c.03.05.09.09.15.09h.3s.07,0,.1-.03c.08-.05.1-.16.05-.23m-1.81-.56l.38-.66s0,0,0,0l.38.66s0,0,0,0h-.77"/>
      <path class="cls-4" d="m37.14,45.96s-.07-.06-.11-.06c-.05,0-.09.04-.1.08-.14.39-.23.38-.23.38h0c-.23,0-.55-.85-.83-1.6-.16-.44-.24-.68-.45-1.14-.02-.04-.06-.07-.11-.07h0s-.09.03-.11.07l-.13.29s-.01.07,0,.1c.17.38.21.53.36.92.42,1.1.76,1.97,1.26,1.98h0c.25,0,.38-.09.59-.59.01-.03.01-.07,0-.1l-.14-.25Z"/>
      <path class="cls-4" d="m37.5,44.26h0s.12.23.12.23c.02.04.06.06.11.06,0,0,0,0,.01,0,.05,0,.09-.04.1-.09l.17-.7c.04-.19.09-.38.15-.56,0-.01,0-.02.01-.04h0s.03-.08.04-.12c.02.04.03.08.04.12h0s0,.02.01.04c.06.18.1.38.15.56l.17.7s.05.08.1.09c0,0,0,0,.01,0,.04,0,.09-.02.11-.06l.12-.23h0s.03-.06.03-.1c0-.04,0-.08-.01-.1-.09-.37-.11-.4-.22-.78-.05-.17-.11-.38-.2-.57-.04-.1-.1-.2-.19-.28-.04-.03-.08-.05-.13-.05-.05,0-.09.01-.13.05-.09.08-.14.18-.19.28-.09.19-.15.4-.2.57-.11.38-.12.41-.22.78,0,.02-.02.06-.01.1,0,.04.02.07.03.1"/>
      <path class="cls-4" d="m41.22,43.62s-.06-.07-.11-.07h0s-.09.03-.11.07c-.21.46-.29.7-.45,1.14-.28.75-.6,1.59-.83,1.6h0s-.09.01-.23-.38c-.02-.04-.06-.08-.1-.08-.05,0-.09.02-.11.06l-.14.25s-.02.07,0,.1c.22.5.34.59.59.59h0c.51-.01.84-.88,1.26-1.98.15-.39.19-.54.36-.92.01-.03.01-.07,0-.1l-.13-.29Z"/>
      <path class="cls-4" d="m43.45,43.05s-.01-.06-.02-.08c0,0,0,0,0-.01,0,0,0-.01,0-.02,0,0,0,0,0-.01,0-.01,0-.02,0-.03,0,0,0,0,0,0,0,0,0,0,0-.01,0,0,0,0,0,0,0,0,0,0,0,0-.2-.73-.44-1.39-.92-1.39h0c-.28,0-.47.13-.88.92-.02.03-.02.07,0,.11l.13.27s.06.07.11.07h0s.09-.03.11-.07c.39-.81.51-.75.53-.75.14,0,.63.28.85,3.45h0c-.03.37-.12.59-.24.59,0,0,0,0,0,0-.18,0-.58-1.05-.82-1.69-.48-1.27-.99-2.59-1.61-2.59,0,0,0,0-.01,0-.59.02-.97.95-1.36,1.95-.31.77-.66,1.64-1.03,1.7h0s-.03,0-.04,0-.03,0-.04,0h0c-.37-.06-.72-.93-1.03-1.7-.4-.99-.77-1.93-1.36-1.95,0,0,0,0-.01,0-.62,0-1.13,1.32-1.61,2.59-.24.63-.64,1.69-.82,1.69,0,0,0,0,0,0-.11,0-.2-.23-.24-.59h0c.22-3.17.71-3.44.85-3.45.03,0,.14-.05.53.75.02.04.06.07.11.07h0s.09-.03.11-.07l.13-.27s.02-.07,0-.11c-.41-.79-.6-.92-.88-.92h0c-.48,0-.73.66-.92,1.39,0,0,0,0,0,0,0,0,0,0,0,0,0,0,0,0,0,.01,0,0,0,0,0,0,0,.01,0,.02,0,.03,0,0,0,0,0,.01,0,0,0,.01,0,.02,0,0,0,0,0,.01,0,.03-.01.05-.02.08-.22.95-.55,3.02-.06,3.64.1.13.25.2.4.2.54,0,.92-1.04,1.35-2.24.33-.9.74-2.03,1.09-2.03h0c.31,0,.55.78.77,1.53.34,1.14.73,2.43,1.67,2.44h0c.94,0,1.33-1.29,1.67-2.44.23-.75.46-1.53.77-1.53h0c.36,0,.76,1.13,1.09,2.03.43,1.2.81,2.24,1.35,2.24.15,0,.3-.07.4-.2.49-.63.16-2.69-.06-3.64"/>
    </g>
    <g>
      <rect class="cls-4" x="89.67" y="42.06" width="8.01" height="7.07"/>
      <path class="cls-9" d="m97.68,50.77v-1.65h-1.25l-.65-.71-.65.71h-4.13v-3.32h-1.33l1.65-3.74h1.59l.57,1.28v-1.28h1.97l.34.97.35-.97h1.53v-1.67h-10.39v10.39h10.39Zm-1.04-2.06h1.04l-1.38-1.46,1.38-1.44h-1.03l-.85.93-.84-.93h-1.04l1.37,1.45-1.37,1.45h1.01l.86-.94.85.94h0Zm.24-1.46l.8.85v-1.69l-.8.84h0Zm-4.64.79v-.45h1.64v-.66h-1.64v-.45h1.68v-.67h-2.47v2.91h2.47v-.67h-1.68Zm4.66-2.66h.78v-2.91h-1.22l-.65,1.81-.65-1.81h-1.24v2.91h.78v-2.03l.75,2.03h.7l.75-2.04v2.04h0Zm-3.87,0h.89l-1.28-2.91h-1.02l-1.28,2.91h.87l.24-.58h1.34l.24.58h0Zm-.52-1.23h-.79l.39-.95.39.95h0Z"/>
    </g>
    <path class="cls-1" d="m72.38,42.69l-2.42,5.77h-1.58l-1.19-4.6c-.07-.28-.13-.39-.35-.51-.36-.19-.95-.38-1.47-.49l.04-.17h2.54c.32,0,.61.22.69.59l.63,3.34,1.55-3.92h1.57Zm6.18,3.88c0-1.52-2.1-1.61-2.09-2.29,0-.21.2-.43.63-.48.21-.03.8-.05,1.47.26l.26-1.22c-.36-.13-.82-.26-1.4-.26-1.47,0-2.51.78-2.52,1.91,0,.83.74,1.29,1.31,1.57.58.28.78.46.77.72,0,.39-.46.56-.89.56-.75.01-1.18-.2-1.53-.36l-.27,1.26c.35.16.99.3,1.66.31,1.57,0,2.59-.77,2.6-1.97m3.89,1.88h1.38l-1.2-5.77h-1.27c-.29,0-.53.17-.63.42l-2.24,5.34h1.57l.31-.86h1.91l.18.86Zm-1.66-2.04l.79-2.17.45,2.17h-1.24Zm-6.28-3.72l-1.23,5.77h-1.49l1.23-5.77h1.49Z"/>
    <g>
      <rect class="cls-6" x="55.13" y="42.4" width="3.53" height="6.35"/>
      <path class="cls-2" d="m55.36,45.58c0-1.29.6-2.44,1.54-3.18-.69-.54-1.55-.86-2.5-.86-2.23,0-4.04,1.81-4.04,4.04s1.81,4.04,4.04,4.04c.94,0,1.81-.32,2.5-.86-.94-.74-1.54-1.89-1.54-3.18Z"/>
      <path class="cls-8" d="m63.44,45.58c0,2.23-1.81,4.04-4.04,4.04-.94,0-1.81-.32-2.5-.86.94-.74,1.54-1.89,1.54-3.18s-.6-2.44-1.54-3.18c.69-.54,1.55-.86,2.5-.86,2.23,0,4.04,1.81,4.04,4.04Z"/>
      <path class="cls-8" d="m63.05,48.08v-.13h.05v-.03h-.13v.03h.05v.13h.03Zm.26,0v-.16h-.04l-.05.11-.05-.11h-.04v.16h.03v-.12l.04.1h.03l.04-.1v.12h.03Z"/>
    </g>
  </g>
</svg>